<svg width="561" height="91" viewBox="0 0 561 91" fill="none" xmlns="http://www.w3.org/2000/svg">
<mask id="path-1-outside-1_27_2" maskUnits="userSpaceOnUse" x="0" y="0" width="561" height="91" fill="black">
<rect fill="white" width="561" height="91"/>
<path d="M15 16.0239C17.0646 16.2857 18.9414 16.482 20.6306 16.6129C22.2572 16.7438 23.6649 16.8746 24.8535 17.0055C26.2299 17.1364 27.4499 17.2345 28.5134 17.3C29.6395 17.3 31.0785 17.2673 32.8302 17.2018C34.3317 17.1364 36.2398 17.0382 38.5546 16.9074C40.8694 16.7765 43.716 16.5474 47.0944 16.2202C45.4678 17.2018 44.1227 18.1834 43.0591 19.165C42.0581 20.1466 41.2761 21.03 40.713 21.8153C40.0248 22.7314 39.5244 23.6476 39.2115 24.5637C39.0239 25.8071 39.0864 28.2283 39.3992 31.8274C39.5244 33.3325 39.712 35.1975 39.9623 37.4225C40.2751 39.582 40.6505 42.1668 41.0884 45.177C41.5889 48.1217 42.1832 51.5246 42.8714 55.3855C43.6222 59.2464 44.4668 63.6308 45.4052 68.5387C46.6564 64.8087 47.6887 61.504 48.502 58.6247C49.3153 55.6799 50.0035 53.1605 50.5666 51.0665C51.1922 48.7107 51.724 46.6166 52.1619 44.7844C52.5998 42.8866 53.1316 40.4327 53.7572 37.4225C54.2577 34.8704 54.9146 31.5657 55.7279 27.5085C56.5412 23.4513 57.5422 18.4452 58.7309 12.4902L62.1093 12.981C62.4221 17.6272 62.7349 21.7171 63.0477 25.2508C63.4231 28.7845 63.7359 31.7947 63.9861 34.2814C64.2364 37.1607 64.4866 39.6474 64.7369 41.7414C64.9871 43.6392 65.3625 45.8314 65.863 48.3181C66.3009 50.4121 66.864 52.9969 67.5522 56.0726C68.2404 59.0828 69.1475 62.4856 70.2736 66.2811C71.3998 61.6349 72.4007 57.4795 73.2766 53.8149C74.215 50.1504 74.9971 46.9111 75.6227 44.0972C76.3109 41.2834 76.8739 38.8621 77.3119 36.8335C77.8124 34.8049 78.219 33.1035 78.5318 31.7293C79.22 28.4573 79.6267 26.2651 79.7518 25.1527C79.6892 23.9093 79.4077 22.6987 78.9072 21.5208C78.4693 20.4738 77.7811 19.3286 76.8427 18.0853C75.9042 16.8419 74.5279 15.6313 72.7136 14.4534C76.5298 14.5843 79.6267 14.6824 82.004 14.7479C84.444 14.7479 86.3834 14.7479 87.8223 14.7479H94.9544C96.2056 14.7479 97.8323 14.7479 99.8342 14.7479C101.899 14.6824 104.526 14.5843 107.717 14.4534C104.964 15.9585 102.743 17.3327 101.054 18.576C99.365 19.8194 98.0512 20.8664 97.1128 21.7171C95.9867 22.7641 95.1734 23.6476 94.6729 24.3674C94.1724 25.6762 93.3591 28.6209 92.2329 33.2017C91.7324 35.1648 91.1694 37.6188 90.5438 40.5635C89.9181 43.4429 89.1674 46.9111 88.2915 50.9683C87.4782 55.0256 86.5398 59.7699 85.4762 65.2013C84.4127 70.5673 83.224 76.7186 81.9102 83.6551L65.6753 81.8883L58.7309 51.361C57.6674 56.9233 56.8228 61.4386 56.1972 64.9068C55.5715 68.3097 55.1023 70.9599 54.7895 72.8577C54.4141 75.148 54.1952 76.8167 54.1326 77.8638C54.07 78.7799 54.0075 79.6633 53.9449 80.514C53.8824 81.2339 53.7885 82.0191 53.6634 82.8698C53.6008 83.7205 53.507 84.5058 53.3819 85.2256H36.7716C35.145 77.7656 33.6748 71.189 32.361 65.4958C31.1097 59.7372 29.9836 54.6984 28.9826 50.3794C27.9816 46.0604 27.1058 42.3958 26.355 39.3856C25.6668 36.3754 25.0412 33.856 24.4782 31.8274C23.2269 27.1158 22.3198 24.2038 21.7567 23.0913C21.3188 22.5678 20.7557 21.9462 20.0675 21.2263C19.5045 20.6374 18.8163 19.9175 18.003 19.0668C17.1271 18.1507 16.1261 17.1364 15 16.0239Z"/>
<path d="M131.366 11.0178C134.744 11.1487 138.154 11.8031 141.594 12.981C145.098 14.0935 148.32 15.9258 151.26 18.4779C154.201 20.9646 156.703 24.2038 158.768 28.1956C160.832 32.1219 162.115 36.9317 162.615 42.6249C163.053 47.271 162.49 51.8845 160.926 56.4652C159.425 60.9805 157.329 65.1359 154.639 68.9313C151.948 72.7268 148.852 75.966 145.348 78.649C141.845 81.2666 138.341 83.0007 134.838 83.8514C132.711 84.3749 130.365 84.4404 127.8 84.0477C125.297 83.5897 122.732 82.7717 120.104 81.5938C117.539 80.3504 115.006 78.7799 112.503 76.8822C110.063 74.9844 107.842 72.825 105.84 70.4037C103.838 67.917 102.149 65.234 100.773 62.3547C99.4589 59.4754 98.6456 56.4652 98.3327 53.3241C98.0199 50.7066 97.9887 47.8273 98.2389 44.6862C98.5517 41.4797 99.1461 38.3059 100.022 35.1648C100.96 31.9583 102.243 28.8827 103.869 25.9379C105.559 22.9277 107.686 20.3102 110.251 18.0853C112.816 15.7949 115.819 14.028 119.26 12.7847C122.763 11.4759 126.799 10.887 131.366 11.0178ZM114.568 50.772C113.692 57.774 114.317 63.4017 116.444 67.6553C118.634 71.9088 121.919 74.4936 126.298 75.4098C128.425 75.8679 130.458 75.4098 132.398 74.0356C134.4 72.5959 136.214 70.5346 137.841 67.8516C139.467 65.1686 140.875 62.0275 142.064 58.4284C143.252 54.8292 144.128 51.0665 144.691 47.1402C145.254 43.2138 145.286 39.6801 144.785 36.539C144.347 33.3325 143.565 30.6168 142.439 28.3919C141.313 26.1015 139.937 24.3347 138.31 23.0913C136.746 21.848 135.119 21.1609 133.43 21.03C130.49 20.8337 127.925 21.6517 125.735 23.484C123.545 25.2508 121.7 27.5739 120.198 30.4532C118.697 33.3325 117.477 36.5718 116.538 40.1709C115.662 43.7701 115.006 47.3038 114.568 50.772Z"/>
<path d="M161.302 13.3736C163.304 13.7008 165.118 13.9953 166.744 14.2571C168.371 14.4534 169.779 14.617 170.967 14.7479C172.344 14.9442 173.564 15.1078 174.627 15.2387C175.941 15.435 177.912 15.2059 180.539 14.5516C183.167 13.8317 186.045 13.1773 189.173 12.5884C192.364 11.934 195.617 11.5741 198.933 11.5086C202.248 11.3778 205.283 11.9994 208.035 13.3736C210.788 14.7479 213.04 16.1221 214.792 17.4963C216.544 18.8705 217.92 20.3429 218.921 21.9134C219.985 23.4185 220.736 25.0218 221.173 26.7232C221.611 28.4246 221.862 30.2896 221.924 32.3182C221.862 35.3284 221.173 38.2405 219.86 41.0543C219.297 42.2322 218.546 43.4756 217.607 44.7844C216.732 46.0277 215.637 47.2383 214.323 48.4162C213.009 49.5941 211.445 50.7066 209.631 51.7536C207.879 52.8006 205.814 53.7168 203.437 54.502C205.752 55.2219 207.66 56.0726 209.162 57.0542C210.726 58.0357 211.977 58.9519 212.915 59.8026C214.041 60.8496 214.886 61.8639 215.449 62.8455C216.137 64.2197 216.606 65.3976 216.857 66.3792C217.107 67.3608 217.263 68.3097 217.326 69.2258C217.451 70.0765 217.607 70.9599 217.795 71.8761C217.983 72.7922 218.389 73.8393 219.015 75.0172C219.516 75.9333 220.11 76.8822 220.798 77.8638C221.424 78.7145 222.143 79.6306 222.956 80.6122C223.832 81.5938 224.896 82.5426 226.147 83.4588C224.395 83.5242 222.769 83.5569 221.267 83.5569C219.828 83.5569 218.577 83.5569 217.514 83.5569C216.262 83.5569 215.074 83.5242 213.948 83.4588C212.821 83.3933 211.414 83.3606 209.725 83.3606C208.286 83.3606 206.44 83.3606 204.188 83.3606C201.998 83.3606 199.339 83.3933 196.211 83.4588C197.588 82.3463 198.714 81.2339 199.59 80.1214C200.465 79.0089 201.154 77.9946 201.654 77.0785C202.217 76.0315 202.624 75.0172 202.874 74.0356C203.187 72.2687 203.218 70.4364 202.968 68.5387C202.78 66.9027 202.28 65.1032 201.466 63.14C200.653 61.1114 199.339 59.0828 197.525 57.0542C195.711 57.3814 194.178 57.6431 192.927 57.8394C191.738 57.9703 190.706 58.1012 189.83 58.2321C188.829 58.3629 188.016 58.4611 187.39 58.5265C186.827 58.592 186.201 58.6574 185.513 58.7229C184.95 58.7883 184.324 58.8865 183.636 59.0173C183.011 59.0828 182.416 59.1809 181.853 59.3118C181.728 62.1257 181.728 64.5796 181.853 66.6737C181.978 68.7023 182.135 70.4037 182.322 71.7779C182.573 73.4139 182.854 74.8208 183.167 75.9987C183.48 77.1766 183.918 78.3218 184.481 79.4343C184.919 80.3504 185.482 81.332 186.17 82.379C186.858 83.3606 187.64 84.1786 188.516 84.833C186.889 84.833 185.325 84.833 183.824 84.833C182.385 84.833 181.071 84.8003 179.882 84.7348C178.506 84.7348 177.192 84.7021 175.941 84.6367C174.69 84.5712 173.282 84.5385 171.718 84.5385C170.404 84.5385 168.84 84.5385 167.026 84.5385C165.274 84.5385 163.366 84.5712 161.302 84.6367C162.928 82.8698 164.211 81.3647 165.149 80.1214C166.088 78.8781 166.807 77.831 167.307 76.9803C167.871 76.0642 168.215 75.2789 168.34 74.6245C168.465 73.5775 168.559 71.7125 168.621 69.0295C168.746 66.2811 168.84 63.14 168.903 59.6063C168.965 56.0726 168.997 52.3753 168.997 48.5144C168.997 44.6535 168.965 41.0543 168.903 37.7169C168.84 34.3141 168.778 31.4021 168.715 28.9808C168.653 26.5596 168.59 25.0218 168.527 24.3674C168.34 23.1895 167.933 22.0116 167.307 20.8337C166.807 19.7867 166.088 18.6088 165.149 17.3C164.211 15.9912 162.928 14.6824 161.302 13.3736ZM196.774 47.9254C197.4 47.5328 197.932 47.1402 198.37 46.7475C198.808 46.3549 199.183 45.7332 199.496 44.8825C199.809 43.9664 200.059 42.6903 200.246 41.0543C200.497 39.4184 200.778 37.1934 201.091 34.3796C201.341 31.5657 201.154 29.2426 200.528 27.4103C199.965 25.578 199.183 24.1384 198.182 23.0913C197.243 21.9789 196.18 21.2263 194.991 20.8337C193.865 20.3756 192.864 20.1466 191.988 20.1466C190.237 20.1466 188.516 20.7028 186.827 21.8153C185.138 22.9277 183.855 24.4328 182.979 26.3306C182.666 27.1813 182.385 28.5882 182.135 30.5514C181.947 32.2528 181.822 34.6086 181.759 37.6188C181.697 40.629 181.791 44.588 182.041 49.496C184.418 49.8886 186.514 50.0522 188.328 49.9868C190.143 49.8559 191.675 49.6268 192.927 49.2996C194.428 48.9724 195.711 48.5144 196.774 47.9254Z"/>
<path d="M222.3 15.0423C224.489 15.3695 226.397 15.6313 228.024 15.8276C229.651 16.0239 230.996 16.1875 232.059 16.3184C233.311 16.4493 234.374 16.5474 235.25 16.6129C236.251 16.7438 237.471 16.6783 238.91 16.4166C240.411 16.1548 242.007 15.8931 243.696 15.6313C245.385 15.3041 247.137 15.0423 248.951 14.846C250.765 14.6497 252.517 14.6497 254.206 14.846C255.332 14.9769 256.771 15.2387 258.523 15.6313C260.275 16.0239 262.12 16.6456 264.06 17.4963C266.062 18.347 268.064 19.4595 270.066 20.8337C272.068 22.2079 273.882 23.942 275.509 26.0361C277.135 28.1301 278.48 30.6168 279.544 33.4961C280.607 36.3754 281.202 39.7456 281.327 43.6065C281.515 49.3651 281.014 54.6002 279.825 59.3118C278.637 64.0234 276.791 68.0479 274.289 71.3853C271.849 74.7227 268.752 77.3402 264.998 79.238C261.245 81.1357 256.865 82.1827 251.86 82.379C248.044 82.7062 244.29 83.0007 240.599 83.2625C239.035 83.3933 237.377 83.4915 235.625 83.5569C233.936 83.6224 232.247 83.6878 230.558 83.7533C228.869 83.7533 227.242 83.7205 225.678 83.6551C224.114 83.5897 222.675 83.4915 221.361 83.3606C222.8 82.6408 223.957 81.921 224.833 81.2011C225.772 80.4813 226.491 79.8596 226.992 79.3361C227.555 78.6817 227.961 78.0928 228.212 77.5693C228.337 76.8495 228.525 75.4425 228.775 73.3485C228.962 71.5816 229.213 69.0622 229.526 65.7903C229.838 62.5183 230.214 58.0685 230.652 52.4407L231.215 45.4715C231.528 41.1525 231.653 37.6188 231.59 34.8704C231.59 32.1219 231.528 29.9624 231.402 28.3919C231.215 26.5596 230.964 25.2181 230.652 24.3674C230.401 23.6476 229.932 22.7969 229.244 21.8153C228.618 21.03 227.742 20.0811 226.616 18.9687C225.553 17.7908 224.114 16.482 222.3 15.0423ZM242.101 51.1647C242.226 56.9887 242.507 61.4713 242.945 64.6124C243.446 67.688 243.977 69.9784 244.54 71.4835C245.229 73.1849 245.979 74.1992 246.793 74.5264C247.981 74.5264 249.326 74.0029 250.828 72.9558C252.329 71.8434 253.8 70.1747 255.239 67.9498C256.74 65.7248 258.085 62.9437 259.274 59.6063C260.525 56.2689 261.432 52.3753 261.995 47.9254C262.558 43.4756 262.402 39.5492 261.526 36.1464C260.65 32.7436 259.493 29.897 258.054 27.6066C256.615 25.2508 255.145 23.484 253.643 22.3061C252.142 21.0627 251.016 20.4411 250.265 20.4411C249.389 20.4411 248.607 20.7028 247.919 21.2263C247.231 21.6844 246.261 22.7641 245.01 24.4656C244.384 25.3817 243.821 26.6905 243.32 28.3919C242.883 29.897 242.507 31.8929 242.194 34.3796C241.882 36.8662 241.788 40.0728 241.913 43.9991L242.101 51.1647Z"/>
<path d="M313.046 15.0423C315.236 15.3695 317.144 15.6313 318.77 15.8276C320.397 16.0239 321.742 16.1875 322.806 16.3184C324.057 16.4493 325.12 16.5474 325.996 16.6129C326.997 16.7438 328.217 16.6783 329.656 16.4166C331.158 16.1548 332.753 15.8931 334.442 15.6313C336.131 15.3041 337.883 15.0423 339.697 14.846C341.512 14.6497 343.263 14.6497 344.953 14.846C346.079 14.9769 347.518 15.2387 349.269 15.6313C351.021 16.0239 352.867 16.6456 354.806 17.4963C356.808 18.347 358.81 19.4595 360.812 20.8337C362.814 22.2079 364.628 23.942 366.255 26.0361C367.882 28.1301 369.227 30.6168 370.29 33.4961C371.354 36.3754 371.948 39.7456 372.073 43.6065C372.261 49.3651 371.761 54.6002 370.572 59.3118C369.383 64.0234 367.538 68.0479 365.035 71.3853C362.595 74.7227 359.498 77.3402 355.745 79.238C351.991 81.1357 347.612 82.1827 342.607 82.379C338.79 82.7062 335.037 83.0007 331.345 83.2625C329.781 83.3933 328.123 83.4915 326.372 83.5569C324.683 83.6224 322.993 83.6878 321.304 83.7533C319.615 83.7533 317.988 83.7205 316.424 83.6551C314.86 83.5897 313.421 83.4915 312.108 83.3606C313.546 82.6408 314.704 81.921 315.58 81.2011C316.518 80.4813 317.238 79.8596 317.738 79.3361C318.301 78.6817 318.708 78.0928 318.958 77.5693C319.083 76.8495 319.271 75.4425 319.521 73.3485C319.709 71.5816 319.959 69.0622 320.272 65.7903C320.585 62.5183 320.96 58.0685 321.398 52.4407L321.961 45.4715C322.274 41.1525 322.399 37.6188 322.336 34.8704C322.336 32.1219 322.274 29.9624 322.149 28.3919C321.961 26.5596 321.711 25.2181 321.398 24.3674C321.148 23.6476 320.679 22.7969 319.99 21.8153C319.365 21.03 318.489 20.0811 317.363 18.9687C316.299 17.7908 314.86 16.482 313.046 15.0423ZM332.847 51.1647C332.972 56.9887 333.254 61.4713 333.691 64.6124C334.192 67.688 334.724 69.9784 335.287 71.4835C335.975 73.1849 336.726 74.1992 337.539 74.5264C338.728 74.5264 340.073 74.0029 341.574 72.9558C343.076 71.8434 344.546 70.1747 345.985 67.9498C347.486 65.7248 348.831 62.9437 350.02 59.6063C351.271 56.2689 352.179 52.3753 352.742 47.9254C353.305 43.4756 353.148 39.5492 352.272 36.1464C351.397 32.7436 350.239 29.897 348.8 27.6066C347.361 25.2508 345.891 23.484 344.39 22.3061C342.888 21.0627 341.762 20.4411 341.011 20.4411C340.135 20.4411 339.353 20.7028 338.665 21.2263C337.977 21.6844 337.007 22.7641 335.756 24.4656C335.13 25.3817 334.567 26.6905 334.067 28.3919C333.629 29.897 333.254 31.8929 332.941 34.3796C332.628 36.8662 332.534 40.0728 332.659 43.9991L332.847 51.1647Z"/>
<path d="M386.337 18.576C389.466 18.7724 392.093 18.936 394.22 19.0668C396.41 19.1323 398.224 19.1977 399.663 19.2632C401.29 19.3286 402.666 19.3286 403.792 19.2632C404.918 19.1977 406.451 19.0341 408.391 18.7724C410.017 18.576 412.176 18.2816 414.866 17.8889C417.619 17.4309 421.028 16.8419 425.095 16.1221C423.656 17.6272 422.53 19.0014 421.716 20.2447C420.966 21.4226 420.371 22.4369 419.933 23.2877C419.433 24.3347 419.089 25.2181 418.901 25.9379C418.776 26.5923 418.901 28.2283 419.276 30.8459C419.652 33.4634 420.184 36.5718 420.872 40.1709C421.56 43.7046 422.311 47.5001 423.124 51.5573C423.937 55.5491 424.751 59.3118 425.564 62.8455C426.377 66.3138 427.097 69.2912 427.722 71.7779C428.411 74.1992 428.911 75.6388 429.224 76.0969C430.162 77.4711 430.757 78.3873 431.007 78.8453C431.257 79.238 431.695 79.5979 432.321 79.9251C432.571 80.056 432.978 80.2523 433.541 80.514C434.041 80.7758 434.698 81.103 435.511 81.4956C436.387 81.8883 437.482 82.3463 438.796 82.8698C436.356 83.0007 434.26 83.0989 432.508 83.1643C430.757 83.1643 429.318 83.197 428.192 83.2625C426.878 83.3279 425.752 83.3933 424.813 83.4588C423.875 83.4588 422.749 83.5242 421.435 83.6551C420.309 83.786 418.839 83.9169 417.024 84.0477C415.272 84.1786 413.208 84.3095 410.831 84.4404C412.082 83.5242 413.083 82.7062 413.834 81.9864C414.647 81.2011 415.272 80.5468 415.71 80.0232C416.211 79.3689 416.555 78.7799 416.743 78.2564C416.868 77.6674 416.962 76.784 417.024 75.6061C417.087 74.5591 417.087 73.1849 417.024 71.4835C416.962 69.7166 416.805 67.4262 416.555 64.6124L391.874 67.2626C391.249 68.3751 390.779 69.3567 390.467 70.2074C390.154 70.9927 389.935 71.6798 389.81 72.2687C389.622 72.9886 389.559 73.5775 389.622 74.0356C389.747 74.5591 389.966 75.1808 390.279 75.9006C390.592 76.555 391.03 77.3402 391.593 78.2564C392.218 79.1071 393.125 80.1214 394.314 81.2993C392.75 81.2339 391.155 81.2011 389.528 81.2011C387.902 81.2011 386.4 81.2339 385.024 81.2993C383.397 81.3647 381.802 81.4302 380.238 81.4956C378.674 81.5611 376.891 81.6592 374.889 81.7901C373.199 81.921 371.229 82.0846 368.976 82.2809C366.662 82.4118 364.19 82.6081 361.563 82.8698C363.189 82.0846 364.566 81.2993 365.692 80.514C366.818 79.6633 367.757 78.8781 368.507 78.1582C369.383 77.373 370.134 76.6204 370.76 75.9006C371.197 75.2462 372.073 73.7411 373.387 71.3853C374.701 68.9641 376.171 66.1175 377.798 62.8455C379.487 59.5736 381.239 56.0726 383.053 52.3426C384.93 48.6125 386.619 45.1116 388.121 41.8396C389.622 38.5022 390.842 35.6229 391.78 33.2017C392.719 30.7804 393.188 29.2099 393.188 28.4901C393.063 27.6393 392.75 26.6905 392.25 25.6435C391.812 24.7273 391.123 23.6803 390.185 22.5024C389.309 21.3245 388.027 20.0157 386.337 18.576ZM415.429 57.3486C415.053 55.0583 414.709 53.0951 414.397 51.4591C414.084 49.7577 413.834 48.3508 413.646 47.2383C413.396 45.9295 413.208 44.7844 413.083 43.8028C412.895 42.8866 412.676 41.7087 412.426 40.2691C412.176 39.0257 411.863 37.4879 411.487 35.6556C411.175 33.7579 410.768 31.5002 410.267 28.8827C406.701 36.3427 403.917 42.1341 401.915 46.2567C399.976 50.3139 398.568 53.2914 397.693 55.1892C396.629 57.4141 396.035 58.7229 395.909 59.1155L415.429 57.3486Z"/>
<path d="M494.726 13.1773C493.85 15.2714 493.068 17.1037 492.38 18.6742C491.692 20.2447 491.098 21.5862 490.597 22.6987C490.034 23.942 489.565 25.0545 489.19 26.0361C488.877 26.7559 488.47 27.7375 487.97 28.9808C487.469 30.0933 486.844 31.5657 486.093 33.398C485.405 35.1648 484.497 37.4552 483.371 40.2691C482.808 37.8478 482.12 35.7211 481.307 33.8888C480.493 32.0565 479.618 30.4532 478.679 29.079C477.741 27.7048 476.74 26.5923 475.676 25.7416C474.675 24.8255 473.674 24.0729 472.673 23.484C470.358 22.1752 467.918 21.4554 465.353 21.3245C461.975 21.5208 459.316 22.1098 457.377 23.0913C455.5 24.0075 454.124 25.0872 453.248 26.3306C452.372 27.5085 451.903 28.7518 451.84 30.0606C451.777 31.3039 451.934 32.351 452.309 33.2017C452.622 33.9869 453.717 34.9031 455.594 35.9501C457.533 36.9971 459.848 38.2077 462.538 39.582C465.291 40.8907 468.231 42.3958 471.359 44.0972C474.488 45.7332 477.365 47.5655 479.993 49.5941C482.683 51.5573 484.935 53.7168 486.75 56.0726C488.627 58.3629 489.659 60.8169 489.847 63.4345C490.034 66.7718 490.003 69.782 489.753 72.465C489.502 75.148 488.627 77.4384 487.125 79.3361C485.624 81.2339 483.277 82.739 480.087 83.8514C476.959 84.9639 472.611 85.651 467.043 85.9127C461.287 86.1745 456.563 85.8473 452.872 84.9312C449.181 84.015 446.178 82.7717 443.863 81.2011C441.611 79.6306 439.922 77.8965 438.796 75.9987C437.732 74.101 436.95 72.3014 436.45 70.6C435.949 68.8332 435.605 67.3281 435.417 66.0847C435.23 64.776 434.917 63.9907 434.479 63.7289C433.979 63.4017 433.478 63.1073 432.978 62.8455C432.54 62.5838 432.07 62.3547 431.57 62.1584C431.069 61.8966 430.569 61.6676 430.068 61.4713L457.377 56.8578C455.813 58.1666 454.593 59.3772 453.717 60.4897C452.904 61.6022 452.278 62.5838 451.84 63.4345C451.34 64.416 450.995 65.3322 450.808 66.1829C450.683 67.099 450.964 68.2442 451.652 69.6184C452.341 70.9927 453.279 72.3342 454.468 73.6429C455.719 74.8863 457.158 75.9333 458.784 76.784C460.411 77.6347 462.1 77.9946 463.852 77.8638C466.042 77.6674 467.825 77.1112 469.201 76.1951C470.577 75.2135 471.61 74.0029 472.298 72.5632C473.049 71.1235 473.487 69.553 473.612 67.8516C473.737 66.1502 473.58 64.4815 473.142 62.8455C472.767 61.1441 472.141 59.5736 471.266 58.1339C470.39 56.6288 469.357 55.3855 468.169 54.4039C467.105 53.6186 465.447 52.8661 463.195 52.1462C461.005 51.4264 458.534 50.6411 455.781 49.7904C453.091 48.9397 450.307 47.9581 447.429 46.8457C444.614 45.7332 442.049 44.359 439.734 42.723C437.482 41.0871 435.668 39.1566 434.291 36.9317C432.978 34.7068 432.477 32.0238 432.79 28.8827C433.04 26.1997 433.853 23.9748 435.23 22.2079C436.669 20.3756 438.452 18.936 440.579 17.8889C442.769 16.7765 445.177 15.9585 447.805 15.435C450.495 14.9115 453.216 14.617 455.969 14.5516C458.784 14.4207 461.537 14.4534 464.227 14.6497C466.98 14.846 469.451 15.0751 471.641 15.3368C473.831 15.5986 475.676 15.8603 477.178 16.1221C478.742 16.3184 479.711 16.4493 480.087 16.5147C481.713 16.6456 483.34 16.6129 484.967 16.4166C486.406 16.2857 487.97 15.9912 489.659 15.5331C491.411 15.0096 493.1 14.2244 494.726 13.1773Z"/>
<path d="M491.348 15.3368C493.538 15.5986 495.383 15.7949 496.885 15.9258C498.386 15.9912 499.575 16.0566 500.451 16.1221C501.514 16.1875 502.359 16.2202 502.985 16.2202C504.048 16.2202 505.268 16.1875 506.644 16.1221C507.833 16.0566 509.209 15.9585 510.774 15.8276C512.4 15.6313 514.152 15.3368 516.029 14.9442C515.153 15.9258 514.433 16.8746 513.87 17.7908C513.307 18.6415 512.869 19.4268 512.557 20.1466C512.181 20.9319 511.868 21.6517 511.618 22.3061C511.368 23.1568 511.086 24.4656 510.774 26.2324C510.461 27.7375 510.117 29.8643 509.741 32.6127C509.428 35.3611 509.022 38.9603 508.521 43.4101C510.648 43.4756 512.494 43.5083 514.058 43.5083C515.622 43.4429 516.936 43.4101 517.999 43.4101H521.096C521.972 43.3447 522.973 43.2793 524.099 43.2138C525.976 43.1484 528.823 42.9521 532.639 42.6249C532.952 39.6147 533.108 37.0298 533.108 34.8704C533.171 32.6454 533.14 30.7804 533.014 29.2753C532.889 27.5739 532.702 26.1342 532.451 24.9563C532.264 24.302 531.982 23.5167 531.607 22.6005C531.294 21.8153 530.856 20.8664 530.293 19.7539C529.792 18.576 529.104 17.1691 528.228 15.5331C529.855 15.7949 531.294 15.9912 532.545 16.1221C533.859 16.1875 534.954 16.253 535.83 16.3184C536.831 16.3838 537.675 16.4166 538.363 16.4166C539.052 16.4166 539.959 16.3838 541.085 16.3184C542.023 16.253 543.181 16.2202 544.557 16.2202C545.933 16.1548 547.623 16.0566 549.625 15.9258C549.124 16.8419 548.686 17.7908 548.311 18.7724C547.935 19.7539 547.623 20.6374 547.372 21.4226C547.122 22.3388 546.872 23.2549 546.622 24.1711C546.309 25.5453 546.027 27.5412 545.777 30.1587C545.589 32.7763 545.402 35.6883 545.214 38.8948C545.089 42.1014 544.964 45.4387 544.839 48.907C544.776 52.3753 544.713 55.6472 544.651 58.7229C544.651 61.7985 544.682 64.5469 544.745 66.9682C544.807 69.324 544.932 70.9927 545.12 71.9742C545.308 73.1521 545.621 74.3628 546.059 75.6061C546.434 76.7186 546.934 77.9292 547.56 79.238C548.186 80.4813 548.999 81.6592 550 82.7717L527.384 84.5385C528.322 83.6224 529.073 82.739 529.636 81.8883C530.199 80.9721 530.637 80.1868 530.95 79.5324C531.263 78.8126 531.482 78.1255 531.607 77.4711C531.669 76.6859 531.763 75.3116 531.888 73.3485C532.013 71.7125 532.139 69.3894 532.264 66.3792C532.389 63.369 532.514 59.3772 532.639 54.4039C531.763 54.4039 530.7 54.4366 529.448 54.502C528.26 54.502 527.134 54.5348 526.07 54.6002C524.819 54.6656 523.505 54.6984 522.129 54.6984C520.752 54.7638 519.313 54.8292 517.812 54.8947C516.561 55.0256 515.153 55.1564 513.589 55.2873C512.087 55.3527 510.586 55.4509 509.084 55.5818C508.959 58.3302 508.959 60.7515 509.084 62.8455C509.209 64.8741 509.397 66.6083 509.647 68.0479C509.898 69.7493 510.21 71.2217 510.586 72.465C510.961 73.6429 511.368 74.8208 511.806 75.9987C512.181 77.0458 512.619 78.1582 513.12 79.3361C513.683 80.514 514.246 81.5611 514.809 82.4772C513.62 82.3463 512.525 82.2482 511.524 82.1827C510.523 82.0518 509.647 81.921 508.897 81.7901C508.021 81.7247 507.176 81.6592 506.363 81.5938C505.55 81.5938 504.58 81.5611 503.454 81.4956C502.453 81.4302 501.202 81.3975 499.7 81.3975C498.199 81.332 496.447 81.2993 494.445 81.2993C495.634 80.056 496.572 78.8453 497.26 77.6674C498.011 76.4241 498.543 75.3116 498.855 74.33C499.231 73.1521 499.481 72.0724 499.606 71.0908C499.669 70.2401 499.7 68.6369 499.7 66.2811C499.763 63.9253 499.763 61.2423 499.7 58.2321C499.7 55.1564 499.669 51.9499 499.606 48.6125C499.544 45.2097 499.45 42.0359 499.325 39.0912C499.262 36.1464 499.168 33.627 499.043 31.533C498.981 29.3735 498.918 28.032 498.855 27.5085C498.543 26.3306 498.073 25.0545 497.448 23.6803C496.885 22.5678 496.134 21.2918 495.196 19.8521C494.257 18.347 492.975 16.8419 491.348 15.3368Z"/>
</mask>
<path d="M15 16.0239C17.0646 16.2857 18.9414 16.482 20.6306 16.6129C22.2572 16.7438 23.6649 16.8746 24.8535 17.0055C26.2299 17.1364 27.4499 17.2345 28.5134 17.3C29.6395 17.3 31.0785 17.2673 32.8302 17.2018C34.3317 17.1364 36.2398 17.0382 38.5546 16.9074C40.8694 16.7765 43.716 16.5474 47.0944 16.2202C45.4678 17.2018 44.1227 18.1834 43.0591 19.165C42.0581 20.1466 41.2761 21.03 40.713 21.8153C40.0248 22.7314 39.5244 23.6476 39.2115 24.5637C39.0239 25.8071 39.0864 28.2283 39.3992 31.8274C39.5244 33.3325 39.712 35.1975 39.9623 37.4225C40.2751 39.582 40.6505 42.1668 41.0884 45.177C41.5889 48.1217 42.1832 51.5246 42.8714 55.3855C43.6222 59.2464 44.4668 63.6308 45.4052 68.5387C46.6564 64.8087 47.6887 61.504 48.502 58.6247C49.3153 55.6799 50.0035 53.1605 50.5666 51.0665C51.1922 48.7107 51.724 46.6166 52.1619 44.7844C52.5998 42.8866 53.1316 40.4327 53.7572 37.4225C54.2577 34.8704 54.9146 31.5657 55.7279 27.5085C56.5412 23.4513 57.5422 18.4452 58.7309 12.4902L62.1093 12.981C62.4221 17.6272 62.7349 21.7171 63.0477 25.2508C63.4231 28.7845 63.7359 31.7947 63.9861 34.2814C64.2364 37.1607 64.4866 39.6474 64.7369 41.7414C64.9871 43.6392 65.3625 45.8314 65.863 48.3181C66.3009 50.4121 66.864 52.9969 67.5522 56.0726C68.2404 59.0828 69.1475 62.4856 70.2736 66.2811C71.3998 61.6349 72.4007 57.4795 73.2766 53.8149C74.215 50.1504 74.9971 46.9111 75.6227 44.0972C76.3109 41.2834 76.8739 38.8621 77.3119 36.8335C77.8124 34.8049 78.219 33.1035 78.5318 31.7293C79.22 28.4573 79.6267 26.2651 79.7518 25.1527C79.6892 23.9093 79.4077 22.6987 78.9072 21.5208C78.4693 20.4738 77.7811 19.3286 76.8427 18.0853C75.9042 16.8419 74.5279 15.6313 72.7136 14.4534C76.5298 14.5843 79.6267 14.6824 82.004 14.7479C84.444 14.7479 86.3834 14.7479 87.8223 14.7479H94.9544C96.2056 14.7479 97.8323 14.7479 99.8342 14.7479C101.899 14.6824 104.526 14.5843 107.717 14.4534C104.964 15.9585 102.743 17.3327 101.054 18.576C99.365 19.8194 98.0512 20.8664 97.1128 21.7171C95.9867 22.7641 95.1734 23.6476 94.6729 24.3674C94.1724 25.6762 93.3591 28.6209 92.2329 33.2017C91.7324 35.1648 91.1694 37.6188 90.5438 40.5635C89.9181 43.4429 89.1674 46.9111 88.2915 50.9683C87.4782 55.0256 86.5398 59.7699 85.4762 65.2013C84.4127 70.5673 83.224 76.7186 81.9102 83.6551L65.6753 81.8883L58.7309 51.361C57.6674 56.9233 56.8228 61.4386 56.1972 64.9068C55.5715 68.3097 55.1023 70.9599 54.7895 72.8577C54.4141 75.148 54.1952 76.8167 54.1326 77.8638C54.07 78.7799 54.0075 79.6633 53.9449 80.514C53.8824 81.2339 53.7885 82.0191 53.6634 82.8698C53.6008 83.7205 53.507 84.5058 53.3819 85.2256H36.7716C35.145 77.7656 33.6748 71.189 32.361 65.4958C31.1097 59.7372 29.9836 54.6984 28.9826 50.3794C27.9816 46.0604 27.1058 42.3958 26.355 39.3856C25.6668 36.3754 25.0412 33.856 24.4782 31.8274C23.2269 27.1158 22.3198 24.2038 21.7567 23.0913C21.3188 22.5678 20.7557 21.9462 20.0675 21.2263C19.5045 20.6374 18.8163 19.9175 18.003 19.0668C17.1271 18.1507 16.1261 17.1364 15 16.0239Z" fill="#3FD33C"/>
<path d="M131.366 11.0178C134.744 11.1487 138.154 11.8031 141.594 12.981C145.098 14.0935 148.32 15.9258 151.26 18.4779C154.201 20.9646 156.703 24.2038 158.768 28.1956C160.832 32.1219 162.115 36.9317 162.615 42.6249C163.053 47.271 162.49 51.8845 160.926 56.4652C159.425 60.9805 157.329 65.1359 154.639 68.9313C151.948 72.7268 148.852 75.966 145.348 78.649C141.845 81.2666 138.341 83.0007 134.838 83.8514C132.711 84.3749 130.365 84.4404 127.8 84.0477C125.297 83.5897 122.732 82.7717 120.104 81.5938C117.539 80.3504 115.006 78.7799 112.503 76.8822C110.063 74.9844 107.842 72.825 105.84 70.4037C103.838 67.917 102.149 65.234 100.773 62.3547C99.4589 59.4754 98.6456 56.4652 98.3327 53.3241C98.0199 50.7066 97.9887 47.8273 98.2389 44.6862C98.5517 41.4797 99.1461 38.3059 100.022 35.1648C100.96 31.9583 102.243 28.8827 103.869 25.9379C105.559 22.9277 107.686 20.3102 110.251 18.0853C112.816 15.7949 115.819 14.028 119.26 12.7847C122.763 11.4759 126.799 10.887 131.366 11.0178ZM114.568 50.772C113.692 57.774 114.317 63.4017 116.444 67.6553C118.634 71.9088 121.919 74.4936 126.298 75.4098C128.425 75.8679 130.458 75.4098 132.398 74.0356C134.4 72.5959 136.214 70.5346 137.841 67.8516C139.467 65.1686 140.875 62.0275 142.064 58.4284C143.252 54.8292 144.128 51.0665 144.691 47.1402C145.254 43.2138 145.286 39.6801 144.785 36.539C144.347 33.3325 143.565 30.6168 142.439 28.3919C141.313 26.1015 139.937 24.3347 138.31 23.0913C136.746 21.848 135.119 21.1609 133.43 21.03C130.49 20.8337 127.925 21.6517 125.735 23.484C123.545 25.2508 121.7 27.5739 120.198 30.4532C118.697 33.3325 117.477 36.5718 116.538 40.1709C115.662 43.7701 115.006 47.3038 114.568 50.772Z" fill="#3FD33C"/>
<path d="M161.302 13.3736C163.304 13.7008 165.118 13.9953 166.744 14.2571C168.371 14.4534 169.779 14.617 170.967 14.7479C172.344 14.9442 173.564 15.1078 174.627 15.2387C175.941 15.435 177.912 15.2059 180.539 14.5516C183.167 13.8317 186.045 13.1773 189.173 12.5884C192.364 11.934 195.617 11.5741 198.933 11.5086C202.248 11.3778 205.283 11.9994 208.035 13.3736C210.788 14.7479 213.04 16.1221 214.792 17.4963C216.544 18.8705 217.92 20.3429 218.921 21.9134C219.985 23.4185 220.736 25.0218 221.173 26.7232C221.611 28.4246 221.862 30.2896 221.924 32.3182C221.862 35.3284 221.173 38.2405 219.86 41.0543C219.297 42.2322 218.546 43.4756 217.607 44.7844C216.732 46.0277 215.637 47.2383 214.323 48.4162C213.009 49.5941 211.445 50.7066 209.631 51.7536C207.879 52.8006 205.814 53.7168 203.437 54.502C205.752 55.2219 207.66 56.0726 209.162 57.0542C210.726 58.0357 211.977 58.9519 212.915 59.8026C214.041 60.8496 214.886 61.8639 215.449 62.8455C216.137 64.2197 216.606 65.3976 216.857 66.3792C217.107 67.3608 217.263 68.3097 217.326 69.2258C217.451 70.0765 217.607 70.9599 217.795 71.8761C217.983 72.7922 218.389 73.8393 219.015 75.0172C219.516 75.9333 220.11 76.8822 220.798 77.8638C221.424 78.7145 222.143 79.6306 222.956 80.6122C223.832 81.5938 224.896 82.5426 226.147 83.4588C224.395 83.5242 222.769 83.5569 221.267 83.5569C219.828 83.5569 218.577 83.5569 217.514 83.5569C216.262 83.5569 215.074 83.5242 213.948 83.4588C212.821 83.3933 211.414 83.3606 209.725 83.3606C208.286 83.3606 206.44 83.3606 204.188 83.3606C201.998 83.3606 199.339 83.3933 196.211 83.4588C197.588 82.3463 198.714 81.2339 199.59 80.1214C200.465 79.0089 201.154 77.9946 201.654 77.0785C202.217 76.0315 202.624 75.0172 202.874 74.0356C203.187 72.2687 203.218 70.4364 202.968 68.5387C202.78 66.9027 202.28 65.1032 201.466 63.14C200.653 61.1114 199.339 59.0828 197.525 57.0542C195.711 57.3814 194.178 57.6431 192.927 57.8394C191.738 57.9703 190.706 58.1012 189.83 58.2321C188.829 58.3629 188.016 58.4611 187.39 58.5265C186.827 58.592 186.201 58.6574 185.513 58.7229C184.95 58.7883 184.324 58.8865 183.636 59.0173C183.011 59.0828 182.416 59.1809 181.853 59.3118C181.728 62.1257 181.728 64.5796 181.853 66.6737C181.978 68.7023 182.135 70.4037 182.322 71.7779C182.573 73.4139 182.854 74.8208 183.167 75.9987C183.48 77.1766 183.918 78.3218 184.481 79.4343C184.919 80.3504 185.482 81.332 186.17 82.379C186.858 83.3606 187.64 84.1786 188.516 84.833C186.889 84.833 185.325 84.833 183.824 84.833C182.385 84.833 181.071 84.8003 179.882 84.7348C178.506 84.7348 177.192 84.7021 175.941 84.6367C174.69 84.5712 173.282 84.5385 171.718 84.5385C170.404 84.5385 168.84 84.5385 167.026 84.5385C165.274 84.5385 163.366 84.5712 161.302 84.6367C162.928 82.8698 164.211 81.3647 165.149 80.1214C166.088 78.8781 166.807 77.831 167.307 76.9803C167.871 76.0642 168.215 75.2789 168.34 74.6245C168.465 73.5775 168.559 71.7125 168.621 69.0295C168.746 66.2811 168.84 63.14 168.903 59.6063C168.965 56.0726 168.997 52.3753 168.997 48.5144C168.997 44.6535 168.965 41.0543 168.903 37.7169C168.84 34.3141 168.778 31.4021 168.715 28.9808C168.653 26.5596 168.59 25.0218 168.527 24.3674C168.34 23.1895 167.933 22.0116 167.307 20.8337C166.807 19.7867 166.088 18.6088 165.149 17.3C164.211 15.9912 162.928 14.6824 161.302 13.3736ZM196.774 47.9254C197.4 47.5328 197.932 47.1402 198.37 46.7475C198.808 46.3549 199.183 45.7332 199.496 44.8825C199.809 43.9664 200.059 42.6903 200.246 41.0543C200.497 39.4184 200.778 37.1934 201.091 34.3796C201.341 31.5657 201.154 29.2426 200.528 27.4103C199.965 25.578 199.183 24.1384 198.182 23.0913C197.243 21.9789 196.18 21.2263 194.991 20.8337C193.865 20.3756 192.864 20.1466 191.988 20.1466C190.237 20.1466 188.516 20.7028 186.827 21.8153C185.138 22.9277 183.855 24.4328 182.979 26.3306C182.666 27.1813 182.385 28.5882 182.135 30.5514C181.947 32.2528 181.822 34.6086 181.759 37.6188C181.697 40.629 181.791 44.588 182.041 49.496C184.418 49.8886 186.514 50.0522 188.328 49.9868C190.143 49.8559 191.675 49.6268 192.927 49.2996C194.428 48.9724 195.711 48.5144 196.774 47.9254Z" fill="#3FD33C"/>
<path d="M222.3 15.0423C224.489 15.3695 226.397 15.6313 228.024 15.8276C229.651 16.0239 230.996 16.1875 232.059 16.3184C233.311 16.4493 234.374 16.5474 235.25 16.6129C236.251 16.7438 237.471 16.6783 238.91 16.4166C240.411 16.1548 242.007 15.8931 243.696 15.6313C245.385 15.3041 247.137 15.0423 248.951 14.846C250.765 14.6497 252.517 14.6497 254.206 14.846C255.332 14.9769 256.771 15.2387 258.523 15.6313C260.275 16.0239 262.12 16.6456 264.06 17.4963C266.062 18.347 268.064 19.4595 270.066 20.8337C272.068 22.2079 273.882 23.942 275.509 26.0361C277.135 28.1301 278.48 30.6168 279.544 33.4961C280.607 36.3754 281.202 39.7456 281.327 43.6065C281.515 49.3651 281.014 54.6002 279.825 59.3118C278.637 64.0234 276.791 68.0479 274.289 71.3853C271.849 74.7227 268.752 77.3402 264.998 79.238C261.245 81.1357 256.865 82.1827 251.86 82.379C248.044 82.7062 244.29 83.0007 240.599 83.2625C239.035 83.3933 237.377 83.4915 235.625 83.5569C233.936 83.6224 232.247 83.6878 230.558 83.7533C228.869 83.7533 227.242 83.7205 225.678 83.6551C224.114 83.5897 222.675 83.4915 221.361 83.3606C222.8 82.6408 223.957 81.921 224.833 81.2011C225.772 80.4813 226.491 79.8596 226.992 79.3361C227.555 78.6817 227.961 78.0928 228.212 77.5693C228.337 76.8495 228.525 75.4425 228.775 73.3485C228.962 71.5816 229.213 69.0622 229.526 65.7903C229.838 62.5183 230.214 58.0685 230.652 52.4407L231.215 45.4715C231.528 41.1525 231.653 37.6188 231.59 34.8704C231.59 32.1219 231.528 29.9624 231.402 28.3919C231.215 26.5596 230.964 25.2181 230.652 24.3674C230.401 23.6476 229.932 22.7969 229.244 21.8153C228.618 21.03 227.742 20.0811 226.616 18.9687C225.553 17.7908 224.114 16.482 222.3 15.0423ZM242.101 51.1647C242.226 56.9887 242.507 61.4713 242.945 64.6124C243.446 67.688 243.977 69.9784 244.54 71.4835C245.229 73.1849 245.979 74.1992 246.793 74.5264C247.981 74.5264 249.326 74.0029 250.828 72.9558C252.329 71.8434 253.8 70.1747 255.239 67.9498C256.74 65.7248 258.085 62.9437 259.274 59.6063C260.525 56.2689 261.432 52.3753 261.995 47.9254C262.558 43.4756 262.402 39.5492 261.526 36.1464C260.65 32.7436 259.493 29.897 258.054 27.6066C256.615 25.2508 255.145 23.484 253.643 22.3061C252.142 21.0627 251.016 20.4411 250.265 20.4411C249.389 20.4411 248.607 20.7028 247.919 21.2263C247.231 21.6844 246.261 22.7641 245.01 24.4656C244.384 25.3817 243.821 26.6905 243.32 28.3919C242.883 29.897 242.507 31.8929 242.194 34.3796C241.882 36.8662 241.788 40.0728 241.913 43.9991L242.101 51.1647Z" fill="#3FD33C"/>
<path d="M313.046 15.0423C315.236 15.3695 317.144 15.6313 318.77 15.8276C320.397 16.0239 321.742 16.1875 322.806 16.3184C324.057 16.4493 325.12 16.5474 325.996 16.6129C326.997 16.7438 328.217 16.6783 329.656 16.4166C331.158 16.1548 332.753 15.8931 334.442 15.6313C336.131 15.3041 337.883 15.0423 339.697 14.846C341.512 14.6497 343.263 14.6497 344.953 14.846C346.079 14.9769 347.518 15.2387 349.269 15.6313C351.021 16.0239 352.867 16.6456 354.806 17.4963C356.808 18.347 358.81 19.4595 360.812 20.8337C362.814 22.2079 364.628 23.942 366.255 26.0361C367.882 28.1301 369.227 30.6168 370.29 33.4961C371.354 36.3754 371.948 39.7456 372.073 43.6065C372.261 49.3651 371.761 54.6002 370.572 59.3118C369.383 64.0234 367.538 68.0479 365.035 71.3853C362.595 74.7227 359.498 77.3402 355.745 79.238C351.991 81.1357 347.612 82.1827 342.607 82.379C338.79 82.7062 335.037 83.0007 331.345 83.2625C329.781 83.3933 328.123 83.4915 326.372 83.5569C324.683 83.6224 322.993 83.6878 321.304 83.7533C319.615 83.7533 317.988 83.7205 316.424 83.6551C314.86 83.5897 313.421 83.4915 312.108 83.3606C313.546 82.6408 314.704 81.921 315.58 81.2011C316.518 80.4813 317.238 79.8596 317.738 79.3361C318.301 78.6817 318.708 78.0928 318.958 77.5693C319.083 76.8495 319.271 75.4425 319.521 73.3485C319.709 71.5816 319.959 69.0622 320.272 65.7903C320.585 62.5183 320.96 58.0685 321.398 52.4407L321.961 45.4715C322.274 41.1525 322.399 37.6188 322.336 34.8704C322.336 32.1219 322.274 29.9624 322.149 28.3919C321.961 26.5596 321.711 25.2181 321.398 24.3674C321.148 23.6476 320.679 22.7969 319.99 21.8153C319.365 21.03 318.489 20.0811 317.363 18.9687C316.299 17.7908 314.86 16.482 313.046 15.0423ZM332.847 51.1647C332.972 56.9887 333.254 61.4713 333.691 64.6124C334.192 67.688 334.724 69.9784 335.287 71.4835C335.975 73.1849 336.726 74.1992 337.539 74.5264C338.728 74.5264 340.073 74.0029 341.574 72.9558C343.076 71.8434 344.546 70.1747 345.985 67.9498C347.486 65.7248 348.831 62.9437 350.02 59.6063C351.271 56.2689 352.179 52.3753 352.742 47.9254C353.305 43.4756 353.148 39.5492 352.272 36.1464C351.397 32.7436 350.239 29.897 348.8 27.6066C347.361 25.2508 345.891 23.484 344.39 22.3061C342.888 21.0627 341.762 20.4411 341.011 20.4411C340.135 20.4411 339.353 20.7028 338.665 21.2263C337.977 21.6844 337.007 22.7641 335.756 24.4656C335.13 25.3817 334.567 26.6905 334.067 28.3919C333.629 29.897 333.254 31.8929 332.941 34.3796C332.628 36.8662 332.534 40.0728 332.659 43.9991L332.847 51.1647Z" fill="#3FD33C"/>
<path d="M386.337 18.576C389.466 18.7724 392.093 18.936 394.22 19.0668C396.41 19.1323 398.224 19.1977 399.663 19.2632C401.29 19.3286 402.666 19.3286 403.792 19.2632C404.918 19.1977 406.451 19.0341 408.391 18.7724C410.017 18.576 412.176 18.2816 414.866 17.8889C417.619 17.4309 421.028 16.8419 425.095 16.1221C423.656 17.6272 422.53 19.0014 421.716 20.2447C420.966 21.4226 420.371 22.4369 419.933 23.2877C419.433 24.3347 419.089 25.2181 418.901 25.9379C418.776 26.5923 418.901 28.2283 419.276 30.8459C419.652 33.4634 420.184 36.5718 420.872 40.1709C421.56 43.7046 422.311 47.5001 423.124 51.5573C423.937 55.5491 424.751 59.3118 425.564 62.8455C426.377 66.3138 427.097 69.2912 427.722 71.7779C428.411 74.1992 428.911 75.6388 429.224 76.0969C430.162 77.4711 430.757 78.3873 431.007 78.8453C431.257 79.238 431.695 79.5979 432.321 79.9251C432.571 80.056 432.978 80.2523 433.541 80.514C434.041 80.7758 434.698 81.103 435.511 81.4956C436.387 81.8883 437.482 82.3463 438.796 82.8698C436.356 83.0007 434.26 83.0989 432.508 83.1643C430.757 83.1643 429.318 83.197 428.192 83.2625C426.878 83.3279 425.752 83.3933 424.813 83.4588C423.875 83.4588 422.749 83.5242 421.435 83.6551C420.309 83.786 418.839 83.9169 417.024 84.0477C415.272 84.1786 413.208 84.3095 410.831 84.4404C412.082 83.5242 413.083 82.7062 413.834 81.9864C414.647 81.2011 415.272 80.5468 415.71 80.0232C416.211 79.3689 416.555 78.7799 416.743 78.2564C416.868 77.6674 416.962 76.784 417.024 75.6061C417.087 74.5591 417.087 73.1849 417.024 71.4835C416.962 69.7166 416.805 67.4262 416.555 64.6124L391.874 67.2626C391.249 68.3751 390.779 69.3567 390.467 70.2074C390.154 70.9927 389.935 71.6798 389.81 72.2687C389.622 72.9886 389.559 73.5775 389.622 74.0356C389.747 74.5591 389.966 75.1808 390.279 75.9006C390.592 76.555 391.03 77.3402 391.593 78.2564C392.218 79.1071 393.125 80.1214 394.314 81.2993C392.75 81.2339 391.155 81.2011 389.528 81.2011C387.902 81.2011 386.4 81.2339 385.024 81.2993C383.397 81.3647 381.802 81.4302 380.238 81.4956C378.674 81.5611 376.891 81.6592 374.889 81.7901C373.199 81.921 371.229 82.0846 368.976 82.2809C366.662 82.4118 364.19 82.6081 361.563 82.8698C363.189 82.0846 364.566 81.2993 365.692 80.514C366.818 79.6633 367.757 78.8781 368.507 78.1582C369.383 77.373 370.134 76.6204 370.76 75.9006C371.197 75.2462 372.073 73.7411 373.387 71.3853C374.701 68.9641 376.171 66.1175 377.798 62.8455C379.487 59.5736 381.239 56.0726 383.053 52.3426C384.93 48.6125 386.619 45.1116 388.121 41.8396C389.622 38.5022 390.842 35.6229 391.78 33.2017C392.719 30.7804 393.188 29.2099 393.188 28.4901C393.063 27.6393 392.75 26.6905 392.25 25.6435C391.812 24.7273 391.123 23.6803 390.185 22.5024C389.309 21.3245 388.027 20.0157 386.337 18.576ZM415.429 57.3486C415.053 55.0583 414.709 53.0951 414.397 51.4591C414.084 49.7577 413.834 48.3508 413.646 47.2383C413.396 45.9295 413.208 44.7844 413.083 43.8028C412.895 42.8866 412.676 41.7087 412.426 40.2691C412.176 39.0257 411.863 37.4879 411.487 35.6556C411.175 33.7579 410.768 31.5002 410.267 28.8827C406.701 36.3427 403.917 42.1341 401.915 46.2567C399.976 50.3139 398.568 53.2914 397.693 55.1892C396.629 57.4141 396.035 58.7229 395.909 59.1155L415.429 57.3486Z" fill="#3FD33C"/>
<path d="M494.726 13.1773C493.85 15.2714 493.068 17.1037 492.38 18.6742C491.692 20.2447 491.098 21.5862 490.597 22.6987C490.034 23.942 489.565 25.0545 489.19 26.0361C488.877 26.7559 488.47 27.7375 487.97 28.9808C487.469 30.0933 486.844 31.5657 486.093 33.398C485.405 35.1648 484.497 37.4552 483.371 40.2691C482.808 37.8478 482.12 35.7211 481.307 33.8888C480.493 32.0565 479.618 30.4532 478.679 29.079C477.741 27.7048 476.74 26.5923 475.676 25.7416C474.675 24.8255 473.674 24.0729 472.673 23.484C470.358 22.1752 467.918 21.4554 465.353 21.3245C461.975 21.5208 459.316 22.1098 457.377 23.0913C455.5 24.0075 454.124 25.0872 453.248 26.3306C452.372 27.5085 451.903 28.7518 451.84 30.0606C451.777 31.3039 451.934 32.351 452.309 33.2017C452.622 33.9869 453.717 34.9031 455.594 35.9501C457.533 36.9971 459.848 38.2077 462.538 39.582C465.291 40.8907 468.231 42.3958 471.359 44.0972C474.488 45.7332 477.365 47.5655 479.993 49.5941C482.683 51.5573 484.935 53.7168 486.75 56.0726C488.627 58.3629 489.659 60.8169 489.847 63.4345C490.034 66.7718 490.003 69.782 489.753 72.465C489.502 75.148 488.627 77.4384 487.125 79.3361C485.624 81.2339 483.277 82.739 480.087 83.8514C476.959 84.9639 472.611 85.651 467.043 85.9127C461.287 86.1745 456.563 85.8473 452.872 84.9312C449.181 84.015 446.178 82.7717 443.863 81.2011C441.611 79.6306 439.922 77.8965 438.796 75.9987C437.732 74.101 436.95 72.3014 436.45 70.6C435.949 68.8332 435.605 67.3281 435.417 66.0847C435.23 64.776 434.917 63.9907 434.479 63.7289C433.979 63.4017 433.478 63.1073 432.978 62.8455C432.54 62.5838 432.07 62.3547 431.57 62.1584C431.069 61.8966 430.569 61.6676 430.068 61.4713L457.377 56.8578C455.813 58.1666 454.593 59.3772 453.717 60.4897C452.904 61.6022 452.278 62.5838 451.84 63.4345C451.34 64.416 450.995 65.3322 450.808 66.1829C450.683 67.099 450.964 68.2442 451.652 69.6184C452.341 70.9927 453.279 72.3342 454.468 73.6429C455.719 74.8863 457.158 75.9333 458.784 76.784C460.411 77.6347 462.1 77.9946 463.852 77.8638C466.042 77.6674 467.825 77.1112 469.201 76.1951C470.577 75.2135 471.61 74.0029 472.298 72.5632C473.049 71.1235 473.487 69.553 473.612 67.8516C473.737 66.1502 473.58 64.4815 473.142 62.8455C472.767 61.1441 472.141 59.5736 471.266 58.1339C470.39 56.6288 469.357 55.3855 468.169 54.4039C467.105 53.6186 465.447 52.8661 463.195 52.1462C461.005 51.4264 458.534 50.6411 455.781 49.7904C453.091 48.9397 450.307 47.9581 447.429 46.8457C444.614 45.7332 442.049 44.359 439.734 42.723C437.482 41.0871 435.668 39.1566 434.291 36.9317C432.978 34.7068 432.477 32.0238 432.79 28.8827C433.04 26.1997 433.853 23.9748 435.23 22.2079C436.669 20.3756 438.452 18.936 440.579 17.8889C442.769 16.7765 445.177 15.9585 447.805 15.435C450.495 14.9115 453.216 14.617 455.969 14.5516C458.784 14.4207 461.537 14.4534 464.227 14.6497C466.98 14.846 469.451 15.0751 471.641 15.3368C473.831 15.5986 475.676 15.8603 477.178 16.1221C478.742 16.3184 479.711 16.4493 480.087 16.5147C481.713 16.6456 483.34 16.6129 484.967 16.4166C486.406 16.2857 487.97 15.9912 489.659 15.5331C491.411 15.0096 493.1 14.2244 494.726 13.1773Z" fill="#3FD33C"/>
<path d="M491.348 15.3368C493.538 15.5986 495.383 15.7949 496.885 15.9258C498.386 15.9912 499.575 16.0566 500.451 16.1221C501.514 16.1875 502.359 16.2202 502.985 16.2202C504.048 16.2202 505.268 16.1875 506.644 16.1221C507.833 16.0566 509.209 15.9585 510.774 15.8276C512.4 15.6313 514.152 15.3368 516.029 14.9442C515.153 15.9258 514.433 16.8746 513.87 17.7908C513.307 18.6415 512.869 19.4268 512.557 20.1466C512.181 20.9319 511.868 21.6517 511.618 22.3061C511.368 23.1568 511.086 24.4656 510.774 26.2324C510.461 27.7375 510.117 29.8643 509.741 32.6127C509.428 35.3611 509.022 38.9603 508.521 43.4101C510.648 43.4756 512.494 43.5083 514.058 43.5083C515.622 43.4429 516.936 43.4101 517.999 43.4101H521.096C521.972 43.3447 522.973 43.2793 524.099 43.2138C525.976 43.1484 528.823 42.9521 532.639 42.6249C532.952 39.6147 533.108 37.0298 533.108 34.8704C533.171 32.6454 533.14 30.7804 533.014 29.2753C532.889 27.5739 532.702 26.1342 532.451 24.9563C532.264 24.302 531.982 23.5167 531.607 22.6005C531.294 21.8153 530.856 20.8664 530.293 19.7539C529.792 18.576 529.104 17.1691 528.228 15.5331C529.855 15.7949 531.294 15.9912 532.545 16.1221C533.859 16.1875 534.954 16.253 535.83 16.3184C536.831 16.3838 537.675 16.4166 538.363 16.4166C539.052 16.4166 539.959 16.3838 541.085 16.3184C542.023 16.253 543.181 16.2202 544.557 16.2202C545.933 16.1548 547.623 16.0566 549.625 15.9258C549.124 16.8419 548.686 17.7908 548.311 18.7724C547.935 19.7539 547.623 20.6374 547.372 21.4226C547.122 22.3388 546.872 23.2549 546.622 24.1711C546.309 25.5453 546.027 27.5412 545.777 30.1587C545.589 32.7763 545.402 35.6883 545.214 38.8948C545.089 42.1014 544.964 45.4387 544.839 48.907C544.776 52.3753 544.713 55.6472 544.651 58.7229C544.651 61.7985 544.682 64.5469 544.745 66.9682C544.807 69.324 544.932 70.9927 545.12 71.9742C545.308 73.1521 545.621 74.3628 546.059 75.6061C546.434 76.7186 546.934 77.9292 547.56 79.238C548.186 80.4813 548.999 81.6592 550 82.7717L527.384 84.5385C528.322 83.6224 529.073 82.739 529.636 81.8883C530.199 80.9721 530.637 80.1868 530.95 79.5324C531.263 78.8126 531.482 78.1255 531.607 77.4711C531.669 76.6859 531.763 75.3116 531.888 73.3485C532.013 71.7125 532.139 69.3894 532.264 66.3792C532.389 63.369 532.514 59.3772 532.639 54.4039C531.763 54.4039 530.7 54.4366 529.448 54.502C528.26 54.502 527.134 54.5348 526.07 54.6002C524.819 54.6656 523.505 54.6984 522.129 54.6984C520.752 54.7638 519.313 54.8292 517.812 54.8947C516.561 55.0256 515.153 55.1564 513.589 55.2873C512.087 55.3527 510.586 55.4509 509.084 55.5818C508.959 58.3302 508.959 60.7515 509.084 62.8455C509.209 64.8741 509.397 66.6083 509.647 68.0479C509.898 69.7493 510.21 71.2217 510.586 72.465C510.961 73.6429 511.368 74.8208 511.806 75.9987C512.181 77.0458 512.619 78.1582 513.12 79.3361C513.683 80.514 514.246 81.5611 514.809 82.4772C513.62 82.3463 512.525 82.2482 511.524 82.1827C510.523 82.0518 509.647 81.921 508.897 81.7901C508.021 81.7247 507.176 81.6592 506.363 81.5938C505.55 81.5938 504.58 81.5611 503.454 81.4956C502.453 81.4302 501.202 81.3975 499.7 81.3975C498.199 81.332 496.447 81.2993 494.445 81.2993C495.634 80.056 496.572 78.8453 497.26 77.6674C498.011 76.4241 498.543 75.3116 498.855 74.33C499.231 73.1521 499.481 72.0724 499.606 71.0908C499.669 70.2401 499.7 68.6369 499.7 66.2811C499.763 63.9253 499.763 61.2423 499.7 58.2321C499.7 55.1564 499.669 51.9499 499.606 48.6125C499.544 45.2097 499.45 42.0359 499.325 39.0912C499.262 36.1464 499.168 33.627 499.043 31.533C498.981 29.3735 498.918 28.032 498.855 27.5085C498.543 26.3306 498.073 25.0545 497.448 23.6803C496.885 22.5678 496.134 21.2918 495.196 19.8521C494.257 18.347 492.975 16.8419 491.348 15.3368Z" fill="#3FD33C"/>
<path d="M15 16.0239C17.0646 16.2857 18.9414 16.482 20.6306 16.6129C22.2572 16.7438 23.6649 16.8746 24.8535 17.0055C26.2299 17.1364 27.4499 17.2345 28.5134 17.3C29.6395 17.3 31.0785 17.2673 32.8302 17.2018C34.3317 17.1364 36.2398 17.0382 38.5546 16.9074C40.8694 16.7765 43.716 16.5474 47.0944 16.2202C45.4678 17.2018 44.1227 18.1834 43.0591 19.165C42.0581 20.1466 41.2761 21.03 40.713 21.8153C40.0248 22.7314 39.5244 23.6476 39.2115 24.5637C39.0239 25.8071 39.0864 28.2283 39.3992 31.8274C39.5244 33.3325 39.712 35.1975 39.9623 37.4225C40.2751 39.582 40.6505 42.1668 41.0884 45.177C41.5889 48.1217 42.1832 51.5246 42.8714 55.3855C43.6222 59.2464 44.4668 63.6308 45.4052 68.5387C46.6564 64.8087 47.6887 61.504 48.502 58.6247C49.3153 55.6799 50.0035 53.1605 50.5666 51.0665C51.1922 48.7107 51.724 46.6166 52.1619 44.7844C52.5998 42.8866 53.1316 40.4327 53.7572 37.4225C54.2577 34.8704 54.9146 31.5657 55.7279 27.5085C56.5412 23.4513 57.5422 18.4452 58.7309 12.4902L62.1093 12.981C62.4221 17.6272 62.7349 21.7171 63.0477 25.2508C63.4231 28.7845 63.7359 31.7947 63.9861 34.2814C64.2364 37.1607 64.4866 39.6474 64.7369 41.7414C64.9871 43.6392 65.3625 45.8314 65.863 48.3181C66.3009 50.4121 66.864 52.9969 67.5522 56.0726C68.2404 59.0828 69.1475 62.4856 70.2736 66.2811C71.3998 61.6349 72.4007 57.4795 73.2766 53.8149C74.215 50.1504 74.9971 46.9111 75.6227 44.0972C76.3109 41.2834 76.8739 38.8621 77.3119 36.8335C77.8124 34.8049 78.219 33.1035 78.5318 31.7293C79.22 28.4573 79.6267 26.2651 79.7518 25.1527C79.6892 23.9093 79.4077 22.6987 78.9072 21.5208C78.4693 20.4738 77.7811 19.3286 76.8427 18.0853C75.9042 16.8419 74.5279 15.6313 72.7136 14.4534C76.5298 14.5843 79.6267 14.6824 82.004 14.7479C84.444 14.7479 86.3834 14.7479 87.8223 14.7479H94.9544C96.2056 14.7479 97.8323 14.7479 99.8342 14.7479C101.899 14.6824 104.526 14.5843 107.717 14.4534C104.964 15.9585 102.743 17.3327 101.054 18.576C99.365 19.8194 98.0512 20.8664 97.1128 21.7171C95.9867 22.7641 95.1734 23.6476 94.6729 24.3674C94.1724 25.6762 93.3591 28.6209 92.2329 33.2017C91.7324 35.1648 91.1694 37.6188 90.5438 40.5635C89.9181 43.4429 89.1674 46.9111 88.2915 50.9683C87.4782 55.0256 86.5398 59.7699 85.4762 65.2013C84.4127 70.5673 83.224 76.7186 81.9102 83.6551L65.6753 81.8883L58.7309 51.361C57.6674 56.9233 56.8228 61.4386 56.1972 64.9068C55.5715 68.3097 55.1023 70.9599 54.7895 72.8577C54.4141 75.148 54.1952 76.8167 54.1326 77.8638C54.07 78.7799 54.0075 79.6633 53.9449 80.514C53.8824 81.2339 53.7885 82.0191 53.6634 82.8698C53.6008 83.7205 53.507 84.5058 53.3819 85.2256H36.7716C35.145 77.7656 33.6748 71.189 32.361 65.4958C31.1097 59.7372 29.9836 54.6984 28.9826 50.3794C27.9816 46.0604 27.1058 42.3958 26.355 39.3856C25.6668 36.3754 25.0412 33.856 24.4782 31.8274C23.2269 27.1158 22.3198 24.2038 21.7567 23.0913C21.3188 22.5678 20.7557 21.9462 20.0675 21.2263C19.5045 20.6374 18.8163 19.9175 18.003 19.0668C17.1271 18.1507 16.1261 17.1364 15 16.0239Z" stroke="#294B0F" stroke-width="10" mask="url(#path-1-outside-1_27_2)"/>
<path d="M131.366 11.0178C134.744 11.1487 138.154 11.8031 141.594 12.981C145.098 14.0935 148.32 15.9258 151.26 18.4779C154.201 20.9646 156.703 24.2038 158.768 28.1956C160.832 32.1219 162.115 36.9317 162.615 42.6249C163.053 47.271 162.49 51.8845 160.926 56.4652C159.425 60.9805 157.329 65.1359 154.639 68.9313C151.948 72.7268 148.852 75.966 145.348 78.649C141.845 81.2666 138.341 83.0007 134.838 83.8514C132.711 84.3749 130.365 84.4404 127.8 84.0477C125.297 83.5897 122.732 82.7717 120.104 81.5938C117.539 80.3504 115.006 78.7799 112.503 76.8822C110.063 74.9844 107.842 72.825 105.84 70.4037C103.838 67.917 102.149 65.234 100.773 62.3547C99.4589 59.4754 98.6456 56.4652 98.3327 53.3241C98.0199 50.7066 97.9887 47.8273 98.2389 44.6862C98.5517 41.4797 99.1461 38.3059 100.022 35.1648C100.96 31.9583 102.243 28.8827 103.869 25.9379C105.559 22.9277 107.686 20.3102 110.251 18.0853C112.816 15.7949 115.819 14.028 119.26 12.7847C122.763 11.4759 126.799 10.887 131.366 11.0178ZM114.568 50.772C113.692 57.774 114.317 63.4017 116.444 67.6553C118.634 71.9088 121.919 74.4936 126.298 75.4098C128.425 75.8679 130.458 75.4098 132.398 74.0356C134.4 72.5959 136.214 70.5346 137.841 67.8516C139.467 65.1686 140.875 62.0275 142.064 58.4284C143.252 54.8292 144.128 51.0665 144.691 47.1402C145.254 43.2138 145.286 39.6801 144.785 36.539C144.347 33.3325 143.565 30.6168 142.439 28.3919C141.313 26.1015 139.937 24.3347 138.31 23.0913C136.746 21.848 135.119 21.1609 133.43 21.03C130.49 20.8337 127.925 21.6517 125.735 23.484C123.545 25.2508 121.7 27.5739 120.198 30.4532C118.697 33.3325 117.477 36.5718 116.538 40.1709C115.662 43.7701 115.006 47.3038 114.568 50.772Z" stroke="#294B0F" stroke-width="10" mask="url(#path-1-outside-1_27_2)"/>
<path d="M161.302 13.3736C163.304 13.7008 165.118 13.9953 166.744 14.2571C168.371 14.4534 169.779 14.617 170.967 14.7479C172.344 14.9442 173.564 15.1078 174.627 15.2387C175.941 15.435 177.912 15.2059 180.539 14.5516C183.167 13.8317 186.045 13.1773 189.173 12.5884C192.364 11.934 195.617 11.5741 198.933 11.5086C202.248 11.3778 205.283 11.9994 208.035 13.3736C210.788 14.7479 213.04 16.1221 214.792 17.4963C216.544 18.8705 217.92 20.3429 218.921 21.9134C219.985 23.4185 220.736 25.0218 221.173 26.7232C221.611 28.4246 221.862 30.2896 221.924 32.3182C221.862 35.3284 221.173 38.2405 219.86 41.0543C219.297 42.2322 218.546 43.4756 217.607 44.7844C216.732 46.0277 215.637 47.2383 214.323 48.4162C213.009 49.5941 211.445 50.7066 209.631 51.7536C207.879 52.8006 205.814 53.7168 203.437 54.502C205.752 55.2219 207.66 56.0726 209.162 57.0542C210.726 58.0357 211.977 58.9519 212.915 59.8026C214.041 60.8496 214.886 61.8639 215.449 62.8455C216.137 64.2197 216.606 65.3976 216.857 66.3792C217.107 67.3608 217.263 68.3097 217.326 69.2258C217.451 70.0765 217.607 70.9599 217.795 71.8761C217.983 72.7922 218.389 73.8393 219.015 75.0172C219.516 75.9333 220.11 76.8822 220.798 77.8638C221.424 78.7145 222.143 79.6306 222.956 80.6122C223.832 81.5938 224.896 82.5426 226.147 83.4588C224.395 83.5242 222.769 83.5569 221.267 83.5569C219.828 83.5569 218.577 83.5569 217.514 83.5569C216.262 83.5569 215.074 83.5242 213.948 83.4588C212.821 83.3933 211.414 83.3606 209.725 83.3606C208.286 83.3606 206.44 83.3606 204.188 83.3606C201.998 83.3606 199.339 83.3933 196.211 83.4588C197.588 82.3463 198.714 81.2339 199.59 80.1214C200.465 79.0089 201.154 77.9946 201.654 77.0785C202.217 76.0315 202.624 75.0172 202.874 74.0356C203.187 72.2687 203.218 70.4364 202.968 68.5387C202.78 66.9027 202.28 65.1032 201.466 63.14C200.653 61.1114 199.339 59.0828 197.525 57.0542C195.711 57.3814 194.178 57.6431 192.927 57.8394C191.738 57.9703 190.706 58.1012 189.83 58.2321C188.829 58.3629 188.016 58.4611 187.39 58.5265C186.827 58.592 186.201 58.6574 185.513 58.7229C184.95 58.7883 184.324 58.8865 183.636 59.0173C183.011 59.0828 182.416 59.1809 181.853 59.3118C181.728 62.1257 181.728 64.5796 181.853 66.6737C181.978 68.7023 182.135 70.4037 182.322 71.7779C182.573 73.4139 182.854 74.8208 183.167 75.9987C183.48 77.1766 183.918 78.3218 184.481 79.4343C184.919 80.3504 185.482 81.332 186.17 82.379C186.858 83.3606 187.64 84.1786 188.516 84.833C186.889 84.833 185.325 84.833 183.824 84.833C182.385 84.833 181.071 84.8003 179.882 84.7348C178.506 84.7348 177.192 84.7021 175.941 84.6367C174.69 84.5712 173.282 84.5385 171.718 84.5385C170.404 84.5385 168.84 84.5385 167.026 84.5385C165.274 84.5385 163.366 84.5712 161.302 84.6367C162.928 82.8698 164.211 81.3647 165.149 80.1214C166.088 78.8781 166.807 77.831 167.307 76.9803C167.871 76.0642 168.215 75.2789 168.34 74.6245C168.465 73.5775 168.559 71.7125 168.621 69.0295C168.746 66.2811 168.84 63.14 168.903 59.6063C168.965 56.0726 168.997 52.3753 168.997 48.5144C168.997 44.6535 168.965 41.0543 168.903 37.7169C168.84 34.3141 168.778 31.4021 168.715 28.9808C168.653 26.5596 168.59 25.0218 168.527 24.3674C168.34 23.1895 167.933 22.0116 167.307 20.8337C166.807 19.7867 166.088 18.6088 165.149 17.3C164.211 15.9912 162.928 14.6824 161.302 13.3736ZM196.774 47.9254C197.4 47.5328 197.932 47.1402 198.37 46.7475C198.808 46.3549 199.183 45.7332 199.496 44.8825C199.809 43.9664 200.059 42.6903 200.246 41.0543C200.497 39.4184 200.778 37.1934 201.091 34.3796C201.341 31.5657 201.154 29.2426 200.528 27.4103C199.965 25.578 199.183 24.1384 198.182 23.0913C197.243 21.9789 196.18 21.2263 194.991 20.8337C193.865 20.3756 192.864 20.1466 191.988 20.1466C190.237 20.1466 188.516 20.7028 186.827 21.8153C185.138 22.9277 183.855 24.4328 182.979 26.3306C182.666 27.1813 182.385 28.5882 182.135 30.5514C181.947 32.2528 181.822 34.6086 181.759 37.6188C181.697 40.629 181.791 44.588 182.041 49.496C184.418 49.8886 186.514 50.0522 188.328 49.9868C190.143 49.8559 191.675 49.6268 192.927 49.2996C194.428 48.9724 195.711 48.5144 196.774 47.9254Z" stroke="#294B0F" stroke-width="10" mask="url(#path-1-outside-1_27_2)"/>
<path d="M222.3 15.0423C224.489 15.3695 226.397 15.6313 228.024 15.8276C229.651 16.0239 230.996 16.1875 232.059 16.3184C233.311 16.4493 234.374 16.5474 235.25 16.6129C236.251 16.7438 237.471 16.6783 238.91 16.4166C240.411 16.1548 242.007 15.8931 243.696 15.6313C245.385 15.3041 247.137 15.0423 248.951 14.846C250.765 14.6497 252.517 14.6497 254.206 14.846C255.332 14.9769 256.771 15.2387 258.523 15.6313C260.275 16.0239 262.12 16.6456 264.06 17.4963C266.062 18.347 268.064 19.4595 270.066 20.8337C272.068 22.2079 273.882 23.942 275.509 26.0361C277.135 28.1301 278.48 30.6168 279.544 33.4961C280.607 36.3754 281.202 39.7456 281.327 43.6065C281.515 49.3651 281.014 54.6002 279.825 59.3118C278.637 64.0234 276.791 68.0479 274.289 71.3853C271.849 74.7227 268.752 77.3402 264.998 79.238C261.245 81.1357 256.865 82.1827 251.86 82.379C248.044 82.7062 244.29 83.0007 240.599 83.2625C239.035 83.3933 237.377 83.4915 235.625 83.5569C233.936 83.6224 232.247 83.6878 230.558 83.7533C228.869 83.7533 227.242 83.7205 225.678 83.6551C224.114 83.5897 222.675 83.4915 221.361 83.3606C222.8 82.6408 223.957 81.921 224.833 81.2011C225.772 80.4813 226.491 79.8596 226.992 79.3361C227.555 78.6817 227.961 78.0928 228.212 77.5693C228.337 76.8495 228.525 75.4425 228.775 73.3485C228.962 71.5816 229.213 69.0622 229.526 65.7903C229.838 62.5183 230.214 58.0685 230.652 52.4407L231.215 45.4715C231.528 41.1525 231.653 37.6188 231.59 34.8704C231.59 32.1219 231.528 29.9624 231.402 28.3919C231.215 26.5596 230.964 25.2181 230.652 24.3674C230.401 23.6476 229.932 22.7969 229.244 21.8153C228.618 21.03 227.742 20.0811 226.616 18.9687C225.553 17.7908 224.114 16.482 222.3 15.0423ZM242.101 51.1647C242.226 56.9887 242.507 61.4713 242.945 64.6124C243.446 67.688 243.977 69.9784 244.54 71.4835C245.229 73.1849 245.979 74.1992 246.793 74.5264C247.981 74.5264 249.326 74.0029 250.828 72.9558C252.329 71.8434 253.8 70.1747 255.239 67.9498C256.74 65.7248 258.085 62.9437 259.274 59.6063C260.525 56.2689 261.432 52.3753 261.995 47.9254C262.558 43.4756 262.402 39.5492 261.526 36.1464C260.65 32.7436 259.493 29.897 258.054 27.6066C256.615 25.2508 255.145 23.484 253.643 22.3061C252.142 21.0627 251.016 20.4411 250.265 20.4411C249.389 20.4411 248.607 20.7028 247.919 21.2263C247.231 21.6844 246.261 22.7641 245.01 24.4656C244.384 25.3817 243.821 26.6905 243.32 28.3919C242.883 29.897 242.507 31.8929 242.194 34.3796C241.882 36.8662 241.788 40.0728 241.913 43.9991L242.101 51.1647Z" stroke="#294B0F" stroke-width="10" mask="url(#path-1-outside-1_27_2)"/>
<path d="M313.046 15.0423C315.236 15.3695 317.144 15.6313 318.77 15.8276C320.397 16.0239 321.742 16.1875 322.806 16.3184C324.057 16.4493 325.12 16.5474 325.996 16.6129C326.997 16.7438 328.217 16.6783 329.656 16.4166C331.158 16.1548 332.753 15.8931 334.442 15.6313C336.131 15.3041 337.883 15.0423 339.697 14.846C341.512 14.6497 343.263 14.6497 344.953 14.846C346.079 14.9769 347.518 15.2387 349.269 15.6313C351.021 16.0239 352.867 16.6456 354.806 17.4963C356.808 18.347 358.81 19.4595 360.812 20.8337C362.814 22.2079 364.628 23.942 366.255 26.0361C367.882 28.1301 369.227 30.6168 370.29 33.4961C371.354 36.3754 371.948 39.7456 372.073 43.6065C372.261 49.3651 371.761 54.6002 370.572 59.3118C369.383 64.0234 367.538 68.0479 365.035 71.3853C362.595 74.7227 359.498 77.3402 355.745 79.238C351.991 81.1357 347.612 82.1827 342.607 82.379C338.79 82.7062 335.037 83.0007 331.345 83.2625C329.781 83.3933 328.123 83.4915 326.372 83.5569C324.683 83.6224 322.993 83.6878 321.304 83.7533C319.615 83.7533 317.988 83.7205 316.424 83.6551C314.86 83.5897 313.421 83.4915 312.108 83.3606C313.546 82.6408 314.704 81.921 315.58 81.2011C316.518 80.4813 317.238 79.8596 317.738 79.3361C318.301 78.6817 318.708 78.0928 318.958 77.5693C319.083 76.8495 319.271 75.4425 319.521 73.3485C319.709 71.5816 319.959 69.0622 320.272 65.7903C320.585 62.5183 320.96 58.0685 321.398 52.4407L321.961 45.4715C322.274 41.1525 322.399 37.6188 322.336 34.8704C322.336 32.1219 322.274 29.9624 322.149 28.3919C321.961 26.5596 321.711 25.2181 321.398 24.3674C321.148 23.6476 320.679 22.7969 319.99 21.8153C319.365 21.03 318.489 20.0811 317.363 18.9687C316.299 17.7908 314.86 16.482 313.046 15.0423ZM332.847 51.1647C332.972 56.9887 333.254 61.4713 333.691 64.6124C334.192 67.688 334.724 69.9784 335.287 71.4835C335.975 73.1849 336.726 74.1992 337.539 74.5264C338.728 74.5264 340.073 74.0029 341.574 72.9558C343.076 71.8434 344.546 70.1747 345.985 67.9498C347.486 65.7248 348.831 62.9437 350.02 59.6063C351.271 56.2689 352.179 52.3753 352.742 47.9254C353.305 43.4756 353.148 39.5492 352.272 36.1464C351.397 32.7436 350.239 29.897 348.8 27.6066C347.361 25.2508 345.891 23.484 344.39 22.3061C342.888 21.0627 341.762 20.4411 341.011 20.4411C340.135 20.4411 339.353 20.7028 338.665 21.2263C337.977 21.6844 337.007 22.7641 335.756 24.4656C335.13 25.3817 334.567 26.6905 334.067 28.3919C333.629 29.897 333.254 31.8929 332.941 34.3796C332.628 36.8662 332.534 40.0728 332.659 43.9991L332.847 51.1647Z" stroke="#294B0F" stroke-width="10" mask="url(#path-1-outside-1_27_2)"/>
<path d="M386.337 18.576C389.466 18.7724 392.093 18.936 394.22 19.0668C396.41 19.1323 398.224 19.1977 399.663 19.2632C401.29 19.3286 402.666 19.3286 403.792 19.2632C404.918 19.1977 406.451 19.0341 408.391 18.7724C410.017 18.576 412.176 18.2816 414.866 17.8889C417.619 17.4309 421.028 16.8419 425.095 16.1221C423.656 17.6272 422.53 19.0014 421.716 20.2447C420.966 21.4226 420.371 22.4369 419.933 23.2877C419.433 24.3347 419.089 25.2181 418.901 25.9379C418.776 26.5923 418.901 28.2283 419.276 30.8459C419.652 33.4634 420.184 36.5718 420.872 40.1709C421.56 43.7046 422.311 47.5001 423.124 51.5573C423.937 55.5491 424.751 59.3118 425.564 62.8455C426.377 66.3138 427.097 69.2912 427.722 71.7779C428.411 74.1992 428.911 75.6388 429.224 76.0969C430.162 77.4711 430.757 78.3873 431.007 78.8453C431.257 79.238 431.695 79.5979 432.321 79.9251C432.571 80.056 432.978 80.2523 433.541 80.514C434.041 80.7758 434.698 81.103 435.511 81.4956C436.387 81.8883 437.482 82.3463 438.796 82.8698C436.356 83.0007 434.26 83.0989 432.508 83.1643C430.757 83.1643 429.318 83.197 428.192 83.2625C426.878 83.3279 425.752 83.3933 424.813 83.4588C423.875 83.4588 422.749 83.5242 421.435 83.6551C420.309 83.786 418.839 83.9169 417.024 84.0477C415.272 84.1786 413.208 84.3095 410.831 84.4404C412.082 83.5242 413.083 82.7062 413.834 81.9864C414.647 81.2011 415.272 80.5468 415.71 80.0232C416.211 79.3689 416.555 78.7799 416.743 78.2564C416.868 77.6674 416.962 76.784 417.024 75.6061C417.087 74.5591 417.087 73.1849 417.024 71.4835C416.962 69.7166 416.805 67.4262 416.555 64.6124L391.874 67.2626C391.249 68.3751 390.779 69.3567 390.467 70.2074C390.154 70.9927 389.935 71.6798 389.81 72.2687C389.622 72.9886 389.559 73.5775 389.622 74.0356C389.747 74.5591 389.966 75.1808 390.279 75.9006C390.592 76.555 391.03 77.3402 391.593 78.2564C392.218 79.1071 393.125 80.1214 394.314 81.2993C392.75 81.2339 391.155 81.2011 389.528 81.2011C387.902 81.2011 386.4 81.2339 385.024 81.2993C383.397 81.3647 381.802 81.4302 380.238 81.4956C378.674 81.5611 376.891 81.6592 374.889 81.7901C373.199 81.921 371.229 82.0846 368.976 82.2809C366.662 82.4118 364.19 82.6081 361.563 82.8698C363.189 82.0846 364.566 81.2993 365.692 80.514C366.818 79.6633 367.757 78.8781 368.507 78.1582C369.383 77.373 370.134 76.6204 370.76 75.9006C371.197 75.2462 372.073 73.7411 373.387 71.3853C374.701 68.9641 376.171 66.1175 377.798 62.8455C379.487 59.5736 381.239 56.0726 383.053 52.3426C384.93 48.6125 386.619 45.1116 388.121 41.8396C389.622 38.5022 390.842 35.6229 391.78 33.2017C392.719 30.7804 393.188 29.2099 393.188 28.4901C393.063 27.6393 392.75 26.6905 392.25 25.6435C391.812 24.7273 391.123 23.6803 390.185 22.5024C389.309 21.3245 388.027 20.0157 386.337 18.576ZM415.429 57.3486C415.053 55.0583 414.709 53.0951 414.397 51.4591C414.084 49.7577 413.834 48.3508 413.646 47.2383C413.396 45.9295 413.208 44.7844 413.083 43.8028C412.895 42.8866 412.676 41.7087 412.426 40.2691C412.176 39.0257 411.863 37.4879 411.487 35.6556C411.175 33.7579 410.768 31.5002 410.267 28.8827C406.701 36.3427 403.917 42.1341 401.915 46.2567C399.976 50.3139 398.568 53.2914 397.693 55.1892C396.629 57.4141 396.035 58.7229 395.909 59.1155L415.429 57.3486Z" stroke="#294B0F" stroke-width="10" mask="url(#path-1-outside-1_27_2)"/>
<path d="M494.726 13.1773C493.85 15.2714 493.068 17.1037 492.38 18.6742C491.692 20.2447 491.098 21.5862 490.597 22.6987C490.034 23.942 489.565 25.0545 489.19 26.0361C488.877 26.7559 488.47 27.7375 487.97 28.9808C487.469 30.0933 486.844 31.5657 486.093 33.398C485.405 35.1648 484.497 37.4552 483.371 40.2691C482.808 37.8478 482.12 35.7211 481.307 33.8888C480.493 32.0565 479.618 30.4532 478.679 29.079C477.741 27.7048 476.74 26.5923 475.676 25.7416C474.675 24.8255 473.674 24.0729 472.673 23.484C470.358 22.1752 467.918 21.4554 465.353 21.3245C461.975 21.5208 459.316 22.1098 457.377 23.0913C455.5 24.0075 454.124 25.0872 453.248 26.3306C452.372 27.5085 451.903 28.7518 451.84 30.0606C451.777 31.3039 451.934 32.351 452.309 33.2017C452.622 33.9869 453.717 34.9031 455.594 35.9501C457.533 36.9971 459.848 38.2077 462.538 39.582C465.291 40.8907 468.231 42.3958 471.359 44.0972C474.488 45.7332 477.365 47.5655 479.993 49.5941C482.683 51.5573 484.935 53.7168 486.75 56.0726C488.627 58.3629 489.659 60.8169 489.847 63.4345C490.034 66.7718 490.003 69.782 489.753 72.465C489.502 75.148 488.627 77.4384 487.125 79.3361C485.624 81.2339 483.277 82.739 480.087 83.8514C476.959 84.9639 472.611 85.651 467.043 85.9127C461.287 86.1745 456.563 85.8473 452.872 84.9312C449.181 84.015 446.178 82.7717 443.863 81.2011C441.611 79.6306 439.922 77.8965 438.796 75.9987C437.732 74.101 436.95 72.3014 436.45 70.6C435.949 68.8332 435.605 67.3281 435.417 66.0847C435.23 64.776 434.917 63.9907 434.479 63.7289C433.979 63.4017 433.478 63.1073 432.978 62.8455C432.54 62.5838 432.07 62.3547 431.57 62.1584C431.069 61.8966 430.569 61.6676 430.068 61.4713L457.377 56.8578C455.813 58.1666 454.593 59.3772 453.717 60.4897C452.904 61.6022 452.278 62.5838 451.84 63.4345C451.34 64.416 450.995 65.3322 450.808 66.1829C450.683 67.099 450.964 68.2442 451.652 69.6184C452.341 70.9927 453.279 72.3342 454.468 73.6429C455.719 74.8863 457.158 75.9333 458.784 76.784C460.411 77.6347 462.1 77.9946 463.852 77.8638C466.042 77.6674 467.825 77.1112 469.201 76.1951C470.577 75.2135 471.61 74.0029 472.298 72.5632C473.049 71.1235 473.487 69.553 473.612 67.8516C473.737 66.1502 473.58 64.4815 473.142 62.8455C472.767 61.1441 472.141 59.5736 471.266 58.1339C470.39 56.6288 469.357 55.3855 468.169 54.4039C467.105 53.6186 465.447 52.8661 463.195 52.1462C461.005 51.4264 458.534 50.6411 455.781 49.7904C453.091 48.9397 450.307 47.9581 447.429 46.8457C444.614 45.7332 442.049 44.359 439.734 42.723C437.482 41.0871 435.668 39.1566 434.291 36.9317C432.978 34.7068 432.477 32.0238 432.79 28.8827C433.04 26.1997 433.853 23.9748 435.23 22.2079C436.669 20.3756 438.452 18.936 440.579 17.8889C442.769 16.7765 445.177 15.9585 447.805 15.435C450.495 14.9115 453.216 14.617 455.969 14.5516C458.784 14.4207 461.537 14.4534 464.227 14.6497C466.98 14.846 469.451 15.0751 471.641 15.3368C473.831 15.5986 475.676 15.8603 477.178 16.1221C478.742 16.3184 479.711 16.4493 480.087 16.5147C481.713 16.6456 483.34 16.6129 484.967 16.4166C486.406 16.2857 487.97 15.9912 489.659 15.5331C491.411 15.0096 493.1 14.2244 494.726 13.1773Z" stroke="#294B0F" stroke-width="10" mask="url(#path-1-outside-1_27_2)"/>
<path d="M491.348 15.3368C493.538 15.5986 495.383 15.7949 496.885 15.9258C498.386 15.9912 499.575 16.0566 500.451 16.1221C501.514 16.1875 502.359 16.2202 502.985 16.2202C504.048 16.2202 505.268 16.1875 506.644 16.1221C507.833 16.0566 509.209 15.9585 510.774 15.8276C512.4 15.6313 514.152 15.3368 516.029 14.9442C515.153 15.9258 514.433 16.8746 513.87 17.7908C513.307 18.6415 512.869 19.4268 512.557 20.1466C512.181 20.9319 511.868 21.6517 511.618 22.3061C511.368 23.1568 511.086 24.4656 510.774 26.2324C510.461 27.7375 510.117 29.8643 509.741 32.6127C509.428 35.3611 509.022 38.9603 508.521 43.4101C510.648 43.4756 512.494 43.5083 514.058 43.5083C515.622 43.4429 516.936 43.4101 517.999 43.4101H521.096C521.972 43.3447 522.973 43.2793 524.099 43.2138C525.976 43.1484 528.823 42.9521 532.639 42.6249C532.952 39.6147 533.108 37.0298 533.108 34.8704C533.171 32.6454 533.14 30.7804 533.014 29.2753C532.889 27.5739 532.702 26.1342 532.451 24.9563C532.264 24.302 531.982 23.5167 531.607 22.6005C531.294 21.8153 530.856 20.8664 530.293 19.7539C529.792 18.576 529.104 17.1691 528.228 15.5331C529.855 15.7949 531.294 15.9912 532.545 16.1221C533.859 16.1875 534.954 16.253 535.83 16.3184C536.831 16.3838 537.675 16.4166 538.363 16.4166C539.052 16.4166 539.959 16.3838 541.085 16.3184C542.023 16.253 543.181 16.2202 544.557 16.2202C545.933 16.1548 547.623 16.0566 549.625 15.9258C549.124 16.8419 548.686 17.7908 548.311 18.7724C547.935 19.7539 547.623 20.6374 547.372 21.4226C547.122 22.3388 546.872 23.2549 546.622 24.1711C546.309 25.5453 546.027 27.5412 545.777 30.1587C545.589 32.7763 545.402 35.6883 545.214 38.8948C545.089 42.1014 544.964 45.4387 544.839 48.907C544.776 52.3753 544.713 55.6472 544.651 58.7229C544.651 61.7985 544.682 64.5469 544.745 66.9682C544.807 69.324 544.932 70.9927 545.12 71.9742C545.308 73.1521 545.621 74.3628 546.059 75.6061C546.434 76.7186 546.934 77.9292 547.56 79.238C548.186 80.4813 548.999 81.6592 550 82.7717L527.384 84.5385C528.322 83.6224 529.073 82.739 529.636 81.8883C530.199 80.9721 530.637 80.1868 530.95 79.5324C531.263 78.8126 531.482 78.1255 531.607 77.4711C531.669 76.6859 531.763 75.3116 531.888 73.3485C532.013 71.7125 532.139 69.3894 532.264 66.3792C532.389 63.369 532.514 59.3772 532.639 54.4039C531.763 54.4039 530.7 54.4366 529.448 54.502C528.26 54.502 527.134 54.5348 526.07 54.6002C524.819 54.6656 523.505 54.6984 522.129 54.6984C520.752 54.7638 519.313 54.8292 517.812 54.8947C516.561 55.0256 515.153 55.1564 513.589 55.2873C512.087 55.3527 510.586 55.4509 509.084 55.5818C508.959 58.3302 508.959 60.7515 509.084 62.8455C509.209 64.8741 509.397 66.6083 509.647 68.0479C509.898 69.7493 510.21 71.2217 510.586 72.465C510.961 73.6429 511.368 74.8208 511.806 75.9987C512.181 77.0458 512.619 78.1582 513.12 79.3361C513.683 80.514 514.246 81.5611 514.809 82.4772C513.62 82.3463 512.525 82.2482 511.524 82.1827C510.523 82.0518 509.647 81.921 508.897 81.7901C508.021 81.7247 507.176 81.6592 506.363 81.5938C505.55 81.5938 504.58 81.5611 503.454 81.4956C502.453 81.4302 501.202 81.3975 499.7 81.3975C498.199 81.332 496.447 81.2993 494.445 81.2993C495.634 80.056 496.572 78.8453 497.26 77.6674C498.011 76.4241 498.543 75.3116 498.855 74.33C499.231 73.1521 499.481 72.0724 499.606 71.0908C499.669 70.2401 499.7 68.6369 499.7 66.2811C499.763 63.9253 499.763 61.2423 499.7 58.2321C499.7 55.1564 499.669 51.9499 499.606 48.6125C499.544 45.2097 499.45 42.0359 499.325 39.0912C499.262 36.1464 499.168 33.627 499.043 31.533C498.981 29.3735 498.918 28.032 498.855 27.5085C498.543 26.3306 498.073 25.0545 497.448 23.6803C496.885 22.5678 496.134 21.2918 495.196 19.8521C494.257 18.347 492.975 16.8419 491.348 15.3368Z" stroke="#294B0F" stroke-width="10" mask="url(#path-1-outside-1_27_2)"/>
</svg>
