<svg width="535" height="72" viewBox="0 0 535 72" fill="none" xmlns="http://www.w3.org/2000/svg">
<path d="M0.25 5.09375C2.3125 5.34375 4.1875 5.53125 5.875 5.65625C7.5 5.78125 8.90625 5.90625 10.0938 6.03125C11.4688 6.15625 12.6875 6.25 13.75 6.3125C14.875 6.3125 16.3125 6.28125 18.0625 6.21875C19.5625 6.15625 21.4688 6.0625 23.7812 5.9375C26.0938 5.8125 28.9375 5.59375 32.3125 5.28125C30.6875 6.21875 29.3438 7.15625 28.2812 8.09375C27.2812 9.03125 26.5 9.875 25.9375 10.625C25.25 11.5 24.75 12.375 24.4375 13.25C24.25 14.4375 24.3125 16.75 24.625 20.1875C24.75 21.625 24.9375 23.4063 25.1875 25.5313C25.5 27.5938 25.875 30.0625 26.3125 32.9375C26.8125 35.75 27.4062 39 28.0938 42.6875C28.8438 46.375 29.6875 50.5625 30.625 55.25C31.875 51.6875 32.9062 48.5312 33.7188 45.7812C34.5312 42.9688 35.2188 40.5625 35.7812 38.5625C36.4062 36.3125 36.9375 34.3125 37.375 32.5625C37.8125 30.75 38.3438 28.4063 38.9688 25.5313C39.4688 23.0938 40.125 19.9375 40.9375 16.0625C41.75 12.1875 42.75 7.40625 43.9375 1.71875L47.3125 2.1875C47.625 6.625 47.9375 10.5313 48.25 13.9063C48.625 17.2813 48.9375 20.1563 49.1875 22.5313C49.4375 25.2813 49.6875 27.6563 49.9375 29.6563C50.1875 31.4688 50.5625 33.5625 51.0625 35.9375C51.5 37.9375 52.0625 40.4062 52.75 43.3438C53.4375 46.2188 54.3438 49.4688 55.4688 53.0938C56.5938 48.6562 57.5938 44.6875 58.4688 41.1875C59.4062 37.6875 60.1875 34.5938 60.8125 31.9063C61.5 29.2188 62.0625 26.9063 62.5 24.9688C63 23.0313 63.4062 21.4063 63.7188 20.0938C64.4062 16.9688 64.8125 14.875 64.9375 13.8125C64.875 12.625 64.5938 11.4688 64.0938 10.3438C63.6562 9.34375 62.9688 8.25 62.0312 7.0625C61.0938 5.875 59.7188 4.71875 57.9062 3.59375C61.7188 3.71875 64.8125 3.8125 67.1875 3.875C69.625 3.875 71.5625 3.875 73 3.875H80.125C81.375 3.875 83 3.875 85 3.875C87.0625 3.8125 89.6875 3.71875 92.875 3.59375C90.125 5.03125 87.9062 6.34375 86.2188 7.53125C84.5312 8.71875 83.2188 9.71875 82.2812 10.5313C81.1562 11.5313 80.3438 12.375 79.8438 13.0625C79.3438 14.3125 78.5312 17.125 77.4062 21.5C76.9062 23.375 76.3438 25.7188 75.7188 28.5313C75.0938 31.2813 74.3438 34.5938 73.4688 38.4688C72.6562 42.3438 71.7188 46.875 70.6562 52.0625C69.5938 57.1875 68.4062 63.0625 67.0938 69.6875L50.875 68L43.9375 38.8438C42.875 44.1562 42.0312 48.4688 41.4062 51.7812C40.7812 55.0312 40.3125 57.5625 40 59.375C39.625 61.5625 39.4062 63.1562 39.3438 64.1562C39.2812 65.0312 39.2188 65.875 39.1562 66.6875C39.0938 67.375 39 68.125 38.875 68.9375C38.8125 69.75 38.7188 70.5 38.5938 71.1875H22C20.375 64.0625 18.9062 57.7812 17.5938 52.3438C16.3438 46.8438 15.2188 42.0312 14.2188 37.9062C13.2188 33.7812 12.3438 30.2813 11.5938 27.4063C10.9062 24.5313 10.2812 22.125 9.71875 20.1875C8.46875 15.6875 7.5625 12.9063 7 11.8438C6.5625 11.3438 6 10.75 5.3125 10.0625C4.75 9.5 4.0625 8.8125 3.25 8C2.375 7.125 1.375 6.15625 0.25 5.09375Z" fill="#00C400"/>
<path d="M116.5 0.312501C119.875 0.437501 123.281 1.0625 126.719 2.1875C130.219 3.25 133.438 5 136.375 7.4375C139.312 9.8125 141.812 12.9063 143.875 16.7188C145.938 20.4688 147.219 25.0625 147.719 30.5C148.156 34.9375 147.594 39.3438 146.031 43.7188C144.531 48.0312 142.438 52 139.75 55.625C137.062 59.25 133.969 62.3438 130.469 64.9062C126.969 67.4062 123.469 69.0625 119.969 69.875C117.844 70.375 115.5 70.4375 112.938 70.0625C110.438 69.625 107.875 68.8438 105.25 67.7188C102.688 66.5312 100.156 65.0312 97.6562 63.2188C95.2188 61.4062 93 59.3438 91 57.0312C89 54.6562 87.3125 52.0938 85.9375 49.3438C84.625 46.5938 83.8125 43.7188 83.5 40.7188C83.1875 38.2188 83.1562 35.4688 83.4062 32.4688C83.7188 29.4062 84.3125 26.375 85.1875 23.375C86.125 20.3125 87.4062 17.375 89.0312 14.5625C90.7188 11.6875 92.8438 9.1875 95.4062 7.0625C97.9688 4.875 100.969 3.1875 104.406 2C107.906 0.750001 111.938 0.187501 116.5 0.312501ZM99.7188 38.2812C98.8438 44.9688 99.4688 50.3438 101.594 54.4062C103.781 58.4688 107.062 60.9375 111.438 61.8125C113.562 62.25 115.594 61.8125 117.531 60.5C119.531 59.125 121.344 57.1562 122.969 54.5938C124.594 52.0312 126 49.0312 127.188 45.5938C128.375 42.1562 129.25 38.5625 129.812 34.8125C130.375 31.0625 130.406 27.6875 129.906 24.6875C129.469 21.625 128.688 19.0313 127.562 16.9063C126.438 14.7188 125.062 13.0313 123.438 11.8438C121.875 10.6563 120.25 10 118.562 9.875C115.625 9.6875 113.062 10.4688 110.875 12.2188C108.688 13.9063 106.844 16.125 105.344 18.875C103.844 21.625 102.625 24.7188 101.688 28.1563C100.812 31.5938 100.156 34.9688 99.7188 38.2812Z" fill="#00C400"/>
<path d="M146.406 2.5625C148.406 2.875 150.219 3.15625 151.844 3.40625C153.469 3.59375 154.875 3.75 156.062 3.875C157.438 4.0625 158.656 4.21875 159.719 4.34375C161.031 4.53125 163 4.3125 165.625 3.6875C168.25 3 171.125 2.375 174.25 1.8125C177.438 1.1875 180.688 0.843751 184 0.781251C187.312 0.656251 190.344 1.25 193.094 2.5625C195.844 3.875 198.094 5.1875 199.844 6.5C201.594 7.8125 202.969 9.21875 203.969 10.7188C205.031 12.1563 205.781 13.6875 206.219 15.3125C206.656 16.9375 206.906 18.7188 206.969 20.6563C206.906 23.5313 206.219 26.3125 204.906 29C204.344 30.125 203.594 31.3125 202.656 32.5625C201.781 33.75 200.688 34.9062 199.375 36.0312C198.062 37.1562 196.5 38.2188 194.688 39.2188C192.938 40.2188 190.875 41.0938 188.5 41.8438C190.812 42.5312 192.719 43.3438 194.219 44.2812C195.781 45.2188 197.031 46.0938 197.969 46.9062C199.094 47.9062 199.938 48.875 200.5 49.8125C201.188 51.125 201.656 52.25 201.906 53.1875C202.156 54.125 202.312 55.0312 202.375 55.9062C202.5 56.7188 202.656 57.5625 202.844 58.4375C203.031 59.3125 203.438 60.3125 204.062 61.4375C204.562 62.3125 205.156 63.2188 205.844 64.1562C206.469 64.9688 207.188 65.8438 208 66.7812C208.875 67.7188 209.938 68.625 211.188 69.5C209.438 69.5625 207.812 69.5938 206.312 69.5938C204.875 69.5938 203.625 69.5938 202.562 69.5938C201.312 69.5938 200.125 69.5625 199 69.5C197.875 69.4375 196.469 69.4062 194.781 69.4062C193.344 69.4062 191.5 69.4062 189.25 69.4062C187.062 69.4062 184.406 69.4375 181.281 69.5C182.656 68.4375 183.781 67.375 184.656 66.3125C185.531 65.25 186.219 64.2812 186.719 63.4062C187.281 62.4062 187.688 61.4375 187.938 60.5C188.25 58.8125 188.281 57.0625 188.031 55.25C187.844 53.6875 187.344 51.9688 186.531 50.0938C185.719 48.1562 184.406 46.2188 182.594 44.2812C180.781 44.5938 179.25 44.8438 178 45.0312C176.812 45.1562 175.781 45.2812 174.906 45.4062C173.906 45.5312 173.094 45.625 172.469 45.6875C171.906 45.75 171.281 45.8125 170.594 45.875C170.031 45.9375 169.406 46.0312 168.719 46.1562C168.094 46.2188 167.5 46.3125 166.938 46.4375C166.812 49.125 166.812 51.4688 166.938 53.4688C167.062 55.4062 167.219 57.0312 167.406 58.3438C167.656 59.9062 167.938 61.25 168.25 62.375C168.562 63.5 169 64.5938 169.562 65.6562C170 66.5312 170.562 67.4688 171.25 68.4688C171.938 69.4062 172.719 70.1875 173.594 70.8125C171.969 70.8125 170.406 70.8125 168.906 70.8125C167.469 70.8125 166.156 70.7812 164.969 70.7188C163.594 70.7188 162.281 70.6875 161.031 70.625C159.781 70.5625 158.375 70.5312 156.812 70.5312C155.5 70.5312 153.938 70.5312 152.125 70.5312C150.375 70.5312 148.469 70.5625 146.406 70.625C148.031 68.9375 149.312 67.5 150.25 66.3125C151.188 65.125 151.906 64.125 152.406 63.3125C152.969 62.4375 153.312 61.6875 153.438 61.0625C153.562 60.0625 153.656 58.2812 153.719 55.7188C153.844 53.0938 153.938 50.0938 154 46.7188C154.062 43.3438 154.094 39.8125 154.094 36.125C154.094 32.4375 154.062 29 154 25.8125C153.938 22.5625 153.875 19.7813 153.812 17.4688C153.75 15.1563 153.688 13.6875 153.625 13.0625C153.438 11.9375 153.031 10.8125 152.406 9.6875C151.906 8.6875 151.188 7.5625 150.25 6.3125C149.312 5.0625 148.031 3.8125 146.406 2.5625ZM181.844 35.5625C182.469 35.1875 183 34.8125 183.438 34.4375C183.875 34.0625 184.25 33.4688 184.562 32.6562C184.875 31.7812 185.125 30.5625 185.312 29C185.562 27.4375 185.844 25.3125 186.156 22.625C186.406 19.9375 186.219 17.7188 185.594 15.9688C185.031 14.2188 184.25 12.8438 183.25 11.8438C182.312 10.7813 181.25 10.0625 180.062 9.6875C178.938 9.25 177.938 9.03125 177.062 9.03125C175.312 9.03125 173.594 9.5625 171.906 10.625C170.219 11.6875 168.938 13.125 168.062 14.9375C167.75 15.75 167.469 17.0938 167.219 18.9688C167.031 20.5938 166.906 22.8438 166.844 25.7188C166.781 28.5938 166.875 32.375 167.125 37.0625C169.5 37.4375 171.594 37.5938 173.406 37.5312C175.219 37.4062 176.75 37.1875 178 36.875C179.5 36.5625 180.781 36.125 181.844 35.5625Z" fill="#00C400"/>
<path d="M207.344 4.15625C209.531 4.46875 211.438 4.71875 213.062 4.90625C214.688 5.09375 216.031 5.25 217.094 5.375C218.344 5.5 219.406 5.59375 220.281 5.65625C221.281 5.78125 222.5 5.71875 223.938 5.46875C225.438 5.21875 227.031 4.96875 228.719 4.71875C230.406 4.40625 232.156 4.15625 233.969 3.96875C235.781 3.78125 237.531 3.78125 239.219 3.96875C240.344 4.09375 241.781 4.34375 243.531 4.71875C245.281 5.09375 247.125 5.6875 249.062 6.5C251.062 7.3125 253.062 8.375 255.062 9.6875C257.062 11 258.875 12.6563 260.5 14.6563C262.125 16.6563 263.469 19.0313 264.531 21.7813C265.594 24.5313 266.188 27.75 266.312 31.4375C266.5 36.9375 266 41.9375 264.812 46.4375C263.625 50.9375 261.781 54.7812 259.281 57.9688C256.844 61.1562 253.75 63.6562 250 65.4688C246.25 67.2812 241.875 68.2812 236.875 68.4688C233.062 68.7812 229.312 69.0625 225.625 69.3125C224.062 69.4375 222.406 69.5312 220.656 69.5938C218.969 69.6562 217.281 69.7188 215.594 69.7812C213.906 69.7812 212.281 69.75 210.719 69.6875C209.156 69.625 207.719 69.5312 206.406 69.4062C207.844 68.7188 209 68.0312 209.875 67.3438C210.812 66.6562 211.531 66.0625 212.031 65.5625C212.594 64.9375 213 64.375 213.25 63.875C213.375 63.1875 213.562 61.8438 213.812 59.8438C214 58.1562 214.25 55.75 214.562 52.625C214.875 49.5 215.25 45.25 215.688 39.875L216.25 33.2188C216.562 29.0938 216.688 25.7188 216.625 23.0938C216.625 20.4688 216.562 18.4063 216.438 16.9063C216.25 15.1563 216 13.875 215.688 13.0625C215.438 12.375 214.969 11.5625 214.281 10.625C213.656 9.875 212.781 8.96875 211.656 7.90625C210.594 6.78125 209.156 5.53125 207.344 4.15625ZM227.125 38.6562C227.25 44.2188 227.531 48.5 227.969 51.5C228.469 54.4375 229 56.625 229.562 58.0625C230.25 59.6875 231 60.6562 231.812 60.9688C233 60.9688 234.344 60.4688 235.844 59.4688C237.344 58.4062 238.812 56.8125 240.25 54.6875C241.75 52.5625 243.094 49.9062 244.281 46.7188C245.531 43.5312 246.438 39.8125 247 35.5625C247.562 31.3125 247.406 27.5625 246.531 24.3125C245.656 21.0625 244.5 18.3438 243.062 16.1563C241.625 13.9063 240.156 12.2188 238.656 11.0938C237.156 9.90625 236.031 9.3125 235.281 9.3125C234.406 9.3125 233.625 9.5625 232.938 10.0625C232.25 10.5 231.281 11.5313 230.031 13.1563C229.406 14.0313 228.844 15.2813 228.344 16.9063C227.906 18.3438 227.531 20.25 227.219 22.625C226.906 25 226.812 28.0625 226.938 31.8125L227.125 38.6562Z" fill="#00C400"/>
<path d="M298 4.15625C300.188 4.46875 302.094 4.71875 303.719 4.90625C305.344 5.09375 306.688 5.25 307.75 5.375C309 5.5 310.062 5.59375 310.938 5.65625C311.938 5.78125 313.156 5.71875 314.594 5.46875C316.094 5.21875 317.688 4.96875 319.375 4.71875C321.062 4.40625 322.812 4.15625 324.625 3.96875C326.438 3.78125 328.188 3.78125 329.875 3.96875C331 4.09375 332.438 4.34375 334.188 4.71875C335.938 5.09375 337.781 5.6875 339.719 6.5C341.719 7.3125 343.719 8.375 345.719 9.6875C347.719 11 349.531 12.6563 351.156 14.6563C352.781 16.6563 354.125 19.0313 355.188 21.7813C356.25 24.5313 356.844 27.75 356.969 31.4375C357.156 36.9375 356.656 41.9375 355.469 46.4375C354.281 50.9375 352.438 54.7812 349.938 57.9688C347.5 61.1562 344.406 63.6562 340.656 65.4688C336.906 67.2812 332.531 68.2812 327.531 68.4688C323.719 68.7812 319.969 69.0625 316.281 69.3125C314.719 69.4375 313.062 69.5312 311.312 69.5938C309.625 69.6562 307.938 69.7188 306.25 69.7812C304.562 69.7812 302.938 69.75 301.375 69.6875C299.812 69.625 298.375 69.5312 297.062 69.4062C298.5 68.7188 299.656 68.0312 300.531 67.3438C301.469 66.6562 302.188 66.0625 302.688 65.5625C303.25 64.9375 303.656 64.375 303.906 63.875C304.031 63.1875 304.219 61.8438 304.469 59.8438C304.656 58.1562 304.906 55.75 305.219 52.625C305.531 49.5 305.906 45.25 306.344 39.875L306.906 33.2188C307.219 29.0938 307.344 25.7188 307.281 23.0938C307.281 20.4688 307.219 18.4063 307.094 16.9063C306.906 15.1563 306.656 13.875 306.344 13.0625C306.094 12.375 305.625 11.5625 304.938 10.625C304.312 9.875 303.438 8.96875 302.312 7.90625C301.25 6.78125 299.812 5.53125 298 4.15625ZM317.781 38.6562C317.906 44.2188 318.188 48.5 318.625 51.5C319.125 54.4375 319.656 56.625 320.219 58.0625C320.906 59.6875 321.656 60.6562 322.469 60.9688C323.656 60.9688 325 60.4688 326.5 59.4688C328 58.4062 329.469 56.8125 330.906 54.6875C332.406 52.5625 333.75 49.9062 334.938 46.7188C336.188 43.5312 337.094 39.8125 337.656 35.5625C338.219 31.3125 338.062 27.5625 337.188 24.3125C336.312 21.0625 335.156 18.3438 333.719 16.1563C332.281 13.9063 330.812 12.2188 329.312 11.0938C327.812 9.90625 326.688 9.3125 325.938 9.3125C325.062 9.3125 324.281 9.5625 323.594 10.0625C322.906 10.5 321.938 11.5313 320.688 13.1563C320.062 14.0313 319.5 15.2813 319 16.9063C318.562 18.3438 318.188 20.25 317.875 22.625C317.562 25 317.469 28.0625 317.594 31.8125L317.781 38.6562Z" fill="#00C400"/>
<path d="M371.219 7.53125C374.344 7.71875 376.969 7.875 379.094 8C381.281 8.0625 383.094 8.125 384.531 8.1875C386.156 8.25 387.531 8.25 388.656 8.1875C389.781 8.125 391.312 7.96875 393.25 7.71875C394.875 7.53125 397.031 7.25 399.719 6.875C402.469 6.4375 405.875 5.875 409.938 5.1875C408.5 6.625 407.375 7.9375 406.562 9.125C405.812 10.25 405.219 11.2188 404.781 12.0313C404.281 13.0313 403.938 13.875 403.75 14.5625C403.625 15.1875 403.75 16.75 404.125 19.25C404.5 21.75 405.031 24.7188 405.719 28.1563C406.406 31.5313 407.156 35.1562 407.969 39.0312C408.781 42.8438 409.594 46.4375 410.406 49.8125C411.219 53.125 411.938 55.9688 412.562 58.3438C413.25 60.6562 413.75 62.0312 414.062 62.4688C415 63.7812 415.594 64.6562 415.844 65.0938C416.094 65.4688 416.531 65.8125 417.156 66.125C417.406 66.25 417.812 66.4375 418.375 66.6875C418.875 66.9375 419.531 67.25 420.344 67.625C421.219 68 422.312 68.4375 423.625 68.9375C421.188 69.0625 419.094 69.1562 417.344 69.2188C415.594 69.2188 414.156 69.25 413.031 69.3125C411.719 69.375 410.594 69.4375 409.656 69.5C408.719 69.5 407.594 69.5625 406.281 69.6875C405.156 69.8125 403.688 69.9375 401.875 70.0625C400.125 70.1875 398.062 70.3125 395.688 70.4375C396.938 69.5625 397.938 68.7812 398.688 68.0938C399.5 67.3438 400.125 66.7188 400.562 66.2188C401.062 65.5938 401.406 65.0312 401.594 64.5312C401.719 63.9688 401.812 63.125 401.875 62C401.938 61 401.938 59.6875 401.875 58.0625C401.812 56.375 401.656 54.1875 401.406 51.5L376.75 54.0312C376.125 55.0938 375.656 56.0312 375.344 56.8438C375.031 57.5938 374.812 58.25 374.688 58.8125C374.5 59.5 374.438 60.0625 374.5 60.5C374.625 61 374.844 61.5938 375.156 62.2812C375.469 62.9062 375.906 63.6562 376.469 64.5312C377.094 65.3438 378 66.3125 379.188 67.4375C377.625 67.375 376.031 67.3438 374.406 67.3438C372.781 67.3438 371.281 67.375 369.906 67.4375C368.281 67.5 366.688 67.5625 365.125 67.625C363.562 67.6875 361.781 67.7812 359.781 67.9062C358.094 68.0312 356.125 68.1875 353.875 68.375C351.562 68.5 349.094 68.6875 346.469 68.9375C348.094 68.1875 349.469 67.4375 350.594 66.6875C351.719 65.875 352.656 65.125 353.406 64.4375C354.281 63.6875 355.031 62.9688 355.656 62.2812C356.094 61.6562 356.969 60.2188 358.281 57.9688C359.594 55.6562 361.062 52.9375 362.688 49.8125C364.375 46.6875 366.125 43.3438 367.938 39.7812C369.812 36.2188 371.5 32.875 373 29.75C374.5 26.5625 375.719 23.8125 376.656 21.5C377.594 19.1875 378.062 17.6875 378.062 17C377.938 16.1875 377.625 15.2813 377.125 14.2813C376.688 13.4063 376 12.4063 375.062 11.2813C374.188 10.1563 372.906 8.90625 371.219 7.53125ZM400.281 44.5625C399.906 42.375 399.562 40.5 399.25 38.9375C398.938 37.3125 398.688 35.9688 398.5 34.9062C398.25 33.6562 398.062 32.5625 397.938 31.625C397.75 30.75 397.531 29.625 397.281 28.25C397.031 27.0625 396.719 25.5938 396.344 23.8438C396.031 22.0313 395.625 19.875 395.125 17.375C391.562 24.5 388.781 30.0312 386.781 33.9688C384.844 37.8438 383.438 40.6875 382.562 42.5C381.5 44.625 380.906 45.875 380.781 46.25L400.281 44.5625Z" fill="#00C400"/>
<path d="M479.5 2.375C478.625 4.375 477.844 6.125 477.156 7.625C476.469 9.125 475.875 10.4063 475.375 11.4688C474.812 12.6563 474.344 13.7188 473.969 14.6563C473.656 15.3438 473.25 16.2813 472.75 17.4688C472.25 18.5313 471.625 19.9375 470.875 21.6875C470.188 23.375 469.281 25.5625 468.156 28.25C467.594 25.9375 466.906 23.9063 466.094 22.1563C465.281 20.4063 464.406 18.875 463.469 17.5625C462.531 16.25 461.531 15.1875 460.469 14.375C459.469 13.5 458.469 12.7813 457.469 12.2188C455.156 10.9688 452.719 10.2813 450.156 10.1563C446.781 10.3438 444.125 10.9063 442.188 11.8438C440.312 12.7188 438.938 13.75 438.062 14.9375C437.188 16.0625 436.719 17.25 436.656 18.5C436.594 19.6875 436.75 20.6875 437.125 21.5C437.438 22.25 438.531 23.125 440.406 24.125C442.344 25.125 444.656 26.2813 447.344 27.5938C450.094 28.8438 453.031 30.2813 456.156 31.9063C459.281 33.4688 462.156 35.2188 464.781 37.1562C467.469 39.0312 469.719 41.0938 471.531 43.3438C473.406 45.5312 474.438 47.875 474.625 50.375C474.812 53.5625 474.781 56.4375 474.531 59C474.281 61.5625 473.406 63.75 471.906 65.5625C470.406 67.375 468.062 68.8125 464.875 69.875C461.75 70.9375 457.406 71.5938 451.844 71.8438C446.094 72.0938 441.375 71.7812 437.688 70.9062C434 70.0312 431 68.8438 428.688 67.3438C426.438 65.8438 424.75 64.1875 423.625 62.375C422.562 60.5625 421.781 58.8438 421.281 57.2188C420.781 55.5312 420.438 54.0938 420.25 52.9062C420.062 51.6562 419.75 50.9062 419.312 50.6562C418.812 50.3438 418.312 50.0625 417.812 49.8125C417.375 49.5625 416.906 49.3438 416.406 49.1562C415.906 48.9062 415.406 48.6875 414.906 48.5L442.188 44.0938C440.625 45.3438 439.406 46.5 438.531 47.5625C437.719 48.625 437.094 49.5625 436.656 50.375C436.156 51.3125 435.812 52.1875 435.625 53C435.5 53.875 435.781 54.9688 436.469 56.2812C437.156 57.5938 438.094 58.875 439.281 60.125C440.531 61.3125 441.969 62.3125 443.594 63.125C445.219 63.9375 446.906 64.2812 448.656 64.1562C450.844 63.9688 452.625 63.4375 454 62.5625C455.375 61.625 456.406 60.4688 457.094 59.0938C457.844 57.7188 458.281 56.2188 458.406 54.5938C458.531 52.9688 458.375 51.375 457.938 49.8125C457.562 48.1875 456.938 46.6875 456.062 45.3125C455.188 43.875 454.156 42.6875 452.969 41.75C451.906 41 450.25 40.2812 448 39.5938C445.812 38.9062 443.344 38.1562 440.594 37.3438C437.906 36.5312 435.125 35.5938 432.25 34.5312C429.438 33.4688 426.875 32.1563 424.562 30.5938C422.312 29.0313 420.5 27.1875 419.125 25.0625C417.812 22.9375 417.312 20.375 417.625 17.375C417.875 14.8125 418.688 12.6875 420.062 11C421.5 9.25 423.281 7.875 425.406 6.875C427.594 5.8125 430 5.03125 432.625 4.53125C435.312 4.03125 438.031 3.75 440.781 3.6875C443.594 3.5625 446.344 3.59375 449.031 3.78125C451.781 3.96875 454.25 4.1875 456.438 4.4375C458.625 4.6875 460.469 4.9375 461.969 5.1875C463.531 5.375 464.5 5.5 464.875 5.5625C466.5 5.6875 468.125 5.65625 469.75 5.46875C471.188 5.34375 472.75 5.0625 474.438 4.625C476.188 4.125 477.875 3.375 479.5 2.375Z" fill="#00C400"/>
<path d="M476.125 4.4375C478.312 4.6875 480.156 4.875 481.656 5C483.156 5.0625 484.344 5.125 485.219 5.1875C486.281 5.25 487.125 5.28125 487.75 5.28125C488.812 5.28125 490.031 5.25 491.406 5.1875C492.594 5.125 493.969 5.03125 495.531 4.90625C497.156 4.71875 498.906 4.4375 500.781 4.0625C499.906 5 499.188 5.90625 498.625 6.78125C498.062 7.59375 497.625 8.34375 497.312 9.03125C496.938 9.78125 496.625 10.4688 496.375 11.0938C496.125 11.9063 495.844 13.1563 495.531 14.8438C495.219 16.2813 494.875 18.3125 494.5 20.9375C494.188 23.5625 493.781 27 493.281 31.25C495.406 31.3125 497.25 31.3438 498.812 31.3438C500.375 31.2813 501.688 31.25 502.75 31.25H505.844C506.719 31.1875 507.719 31.125 508.844 31.0625C510.719 31 513.562 30.8125 517.375 30.5C517.688 27.625 517.844 25.1563 517.844 23.0938C517.906 20.9688 517.875 19.1875 517.75 17.75C517.625 16.125 517.438 14.75 517.188 13.625C517 13 516.719 12.25 516.344 11.375C516.031 10.625 515.594 9.71875 515.031 8.65625C514.531 7.53125 513.844 6.1875 512.969 4.625C514.594 4.875 516.031 5.0625 517.281 5.1875C518.594 5.25 519.688 5.3125 520.562 5.375C521.562 5.4375 522.406 5.46875 523.094 5.46875C523.781 5.46875 524.688 5.4375 525.812 5.375C526.75 5.3125 527.906 5.28125 529.281 5.28125C530.656 5.21875 532.344 5.125 534.344 5C533.844 5.875 533.406 6.78125 533.031 7.71875C532.656 8.65625 532.344 9.5 532.094 10.25C531.844 11.125 531.594 12 531.344 12.875C531.031 14.1875 530.75 16.0938 530.5 18.5938C530.312 21.0938 530.125 23.875 529.938 26.9375C529.812 30 529.688 33.1875 529.562 36.5C529.5 39.8125 529.438 42.9375 529.375 45.875C529.375 48.8125 529.406 51.4375 529.469 53.75C529.531 56 529.656 57.5938 529.844 58.5312C530.031 59.6562 530.344 60.8125 530.781 62C531.156 63.0625 531.656 64.2188 532.281 65.4688C532.906 66.6562 533.719 67.7812 534.719 68.8438L512.125 70.5312C513.062 69.6562 513.812 68.8125 514.375 68C514.938 67.125 515.375 66.375 515.688 65.75C516 65.0625 516.219 64.4062 516.344 63.7812C516.406 63.0312 516.5 61.7188 516.625 59.8438C516.75 58.2812 516.875 56.0625 517 53.1875C517.125 50.3125 517.25 46.5 517.375 41.75C516.5 41.75 515.438 41.7812 514.188 41.8438C513 41.8438 511.875 41.875 510.812 41.9375C509.562 42 508.25 42.0312 506.875 42.0312C505.5 42.0938 504.062 42.1562 502.562 42.2188C501.312 42.3438 499.906 42.4688 498.344 42.5938C496.844 42.6562 495.344 42.75 493.844 42.875C493.719 45.5 493.719 47.8125 493.844 49.8125C493.969 51.75 494.156 53.4062 494.406 54.7812C494.656 56.4062 494.969 57.8125 495.344 59C495.719 60.125 496.125 61.25 496.562 62.375C496.938 63.375 497.375 64.4375 497.875 65.5625C498.438 66.6875 499 67.6875 499.562 68.5625C498.375 68.4375 497.281 68.3438 496.281 68.2812C495.281 68.1562 494.406 68.0312 493.656 67.9062C492.781 67.8438 491.938 67.7812 491.125 67.7188C490.312 67.7188 489.344 67.6875 488.219 67.625C487.219 67.5625 485.969 67.5312 484.469 67.5312C482.969 67.4688 481.219 67.4375 479.219 67.4375C480.406 66.25 481.344 65.0938 482.031 63.9688C482.781 62.7812 483.312 61.7188 483.625 60.7812C484 59.6562 484.25 58.625 484.375 57.6875C484.438 56.875 484.469 55.3438 484.469 53.0938C484.531 50.8438 484.531 48.2812 484.469 45.4062C484.469 42.4688 484.438 39.4062 484.375 36.2188C484.312 32.9688 484.219 29.9375 484.094 27.125C484.031 24.3125 483.938 21.9063 483.812 19.9063C483.75 17.8438 483.688 16.5625 483.625 16.0625C483.312 14.9375 482.844 13.7188 482.219 12.4063C481.656 11.3438 480.906 10.125 479.969 8.75C479.031 7.3125 477.75 5.875 476.125 4.4375Z" fill="#00C400"/>
</svg>
