<svg width="284" height="46" viewBox="0 0 284 46" fill="none" xmlns="http://www.w3.org/2000/svg">
<mask id="path-1-outside-1_22_69" maskUnits="userSpaceOnUse" x="0.625" y="-0.35228" width="283" height="46" fill="black">
<rect fill="white" x="0.625" y="-0.35228" width="283" height="46"/>
<path d="M9.625 9.04687C10.6562 9.17187 11.5938 9.26562 12.4375 9.32812C13.25 9.39062 13.9531 9.45312 14.5469 9.51562C15.2344 9.57812 15.8438 9.62499 16.375 9.65624C16.9375 9.65624 17.6562 9.64062 18.5312 9.60937C19.2812 9.57812 20.2344 9.53124 21.3906 9.46874C22.5469 9.40624 23.9688 9.29687 25.6562 9.14062C24.8438 9.60937 24.1719 10.0781 23.6406 10.5469C23.1406 11.0156 22.75 11.4375 22.4688 11.8125C22.125 12.25 21.875 12.6875 21.7188 13.125C21.625 13.7187 21.6562 14.875 21.8125 16.5937C21.875 17.3125 21.9688 18.2031 22.0938 19.2656C22.25 20.2969 22.4375 21.5312 22.6562 22.9687C22.9062 24.375 23.2031 26 23.5469 27.8437C23.9219 29.6875 24.3438 31.7812 24.8125 34.125C25.4375 32.3437 25.9531 30.7656 26.3594 29.3906C26.7656 27.9844 27.1094 26.7812 27.3906 25.7812C27.7031 24.6562 27.9688 23.6562 28.1875 22.7812C28.4062 21.875 28.6719 20.7031 28.9844 19.2656C29.2344 18.0469 29.5625 16.4687 29.9688 14.5312C30.375 12.5937 30.875 10.2031 31.4688 7.35937L33.1562 7.59374C33.3125 9.81249 33.4688 11.7656 33.625 13.4531C33.8125 15.1406 33.9688 16.5781 34.0938 17.7656C34.2188 19.1406 34.3438 20.3281 34.4688 21.3281C34.5938 22.2344 34.7812 23.2812 35.0312 24.4687C35.25 25.4687 35.5312 26.7031 35.875 28.1719C36.2188 29.6094 36.6719 31.2344 37.2344 33.0469C37.7969 30.8281 38.2969 28.8437 38.7344 27.0937C39.2031 25.3437 39.5938 23.7969 39.9062 22.4531C40.25 21.1094 40.5312 19.9531 40.75 18.9844C41 18.0156 41.2031 17.2031 41.3594 16.5469C41.7031 14.9844 41.9062 13.9375 41.9688 13.4062C41.9375 12.8125 41.7969 12.2344 41.5469 11.6719C41.3281 11.1719 40.9844 10.625 40.5156 10.0312C40.0469 9.43749 39.3594 8.85937 38.4531 8.29687C40.3594 8.35937 41.9062 8.40624 43.0938 8.43749C44.3125 8.43749 45.2812 8.43749 46 8.43749H49.5625C50.1875 8.43749 51 8.43749 52 8.43749C53.0312 8.40624 54.3438 8.35937 55.9375 8.29687C54.5625 9.01562 53.4531 9.67187 52.6094 10.2656C51.7656 10.8594 51.1094 11.3594 50.6406 11.7656C50.0781 12.2656 49.6719 12.6875 49.4219 13.0312C49.1719 13.6562 48.7656 15.0625 48.2031 17.25C47.9531 18.1875 47.6719 19.3594 47.3594 20.7656C47.0469 22.1406 46.6719 23.7969 46.2344 25.7344C45.8281 27.6719 45.3594 29.9375 44.8281 32.5312C44.2969 35.0937 43.7031 38.0312 43.0469 41.3437L34.9375 40.5L31.4688 25.9219C30.9375 28.5781 30.5156 30.7344 30.2031 32.3906C29.8906 34.0156 29.6562 35.2812 29.5 36.1875C29.3125 37.2812 29.2031 38.0781 29.1719 38.5781C29.1406 39.0156 29.1094 39.4375 29.0781 39.8437C29.0469 40.1875 29 40.5625 28.9375 40.9687C28.9062 41.375 28.8594 41.75 28.7969 42.0937H20.5C19.6875 38.5312 18.9531 35.3906 18.2969 32.6719C17.6719 29.9219 17.1094 27.5156 16.6094 25.4531C16.1094 23.3906 15.6719 21.6406 15.2969 20.2031C14.9531 18.7656 14.6406 17.5625 14.3594 16.5937C13.7344 14.3437 13.2812 12.9531 13 12.4219C12.7812 12.1719 12.5 11.875 12.1562 11.5312C11.875 11.25 11.5312 10.9062 11.125 10.5C10.6875 10.0625 10.1875 9.57812 9.625 9.04687Z"/>
<path d="M67.75 6.65624C69.4375 6.71874 71.1406 7.03124 72.8594 7.59374C74.6094 8.12499 76.2188 8.99999 77.6875 10.2187C79.1562 11.4062 80.4062 12.9531 81.4375 14.8594C82.4688 16.7344 83.1094 19.0312 83.3594 21.75C83.5781 23.9687 83.2969 26.1719 82.5156 28.3594C81.7656 30.5156 80.7188 32.5 79.375 34.3125C78.0312 36.125 76.4844 37.6719 74.7344 38.9531C72.9844 40.2031 71.2344 41.0312 69.4844 41.4375C68.4219 41.6875 67.25 41.7187 65.9688 41.5312C64.7188 41.3125 63.4375 40.9219 62.125 40.3594C60.8438 39.7656 59.5781 39.0156 58.3281 38.1094C57.1094 37.2031 56 36.1719 55 35.0156C54 33.8281 53.1562 32.5469 52.4688 31.1719C51.8125 29.7969 51.4062 28.3594 51.25 26.8594C51.0938 25.6094 51.0781 24.2344 51.2031 22.7344C51.3594 21.2031 51.6562 19.6875 52.0938 18.1875C52.5625 16.6562 53.2031 15.1875 54.0156 13.7812C54.8594 12.3437 55.9219 11.0937 57.2031 10.0312C58.4844 8.93749 59.9844 8.09374 61.7031 7.49999C63.4531 6.87499 65.4688 6.59374 67.75 6.65624ZM59.3594 25.6406C58.9219 28.9844 59.2344 31.6719 60.2969 33.7031C61.3906 35.7344 63.0312 36.9687 65.2188 37.4062C66.2812 37.625 67.2969 37.4062 68.2656 36.75C69.2656 36.0625 70.1719 35.0781 70.9844 33.7969C71.7969 32.5156 72.5 31.0156 73.0938 29.2969C73.6875 27.5781 74.125 25.7812 74.4062 23.9062C74.6875 22.0312 74.7031 20.3437 74.4531 18.8437C74.2344 17.3125 73.8438 16.0156 73.2812 14.9531C72.7188 13.8594 72.0312 13.0156 71.2188 12.4219C70.4375 11.8281 69.625 11.5 68.7812 11.4375C67.3125 11.3437 66.0312 11.7344 64.9375 12.6094C63.8438 13.4531 62.9219 14.5625 62.1719 15.9375C61.4219 17.3125 60.8125 18.8594 60.3438 20.5781C59.9062 22.2969 59.5781 23.9844 59.3594 25.6406Z"/>
<path d="M82.7031 7.78124C83.7031 7.93749 84.6094 8.07812 85.4219 8.20312C86.2344 8.29687 86.9375 8.37499 87.5312 8.43749C88.2188 8.53124 88.8281 8.60937 89.3594 8.67187C90.0156 8.76562 91 8.65624 92.3125 8.34374C93.625 7.99999 95.0625 7.68749 96.625 7.40624C98.2188 7.09374 99.8438 6.92187 101.5 6.89062C103.156 6.82812 104.672 7.12499 106.047 7.78124C107.422 8.43749 108.547 9.09374 109.422 9.74999C110.297 10.4062 110.984 11.1094 111.484 11.8594C112.016 12.5781 112.391 13.3437 112.609 14.1562C112.828 14.9687 112.953 15.8594 112.984 16.8281C112.953 18.2656 112.609 19.6562 111.953 21C111.672 21.5625 111.297 22.1562 110.828 22.7812C110.391 23.375 109.844 23.9531 109.188 24.5156C108.531 25.0781 107.75 25.6094 106.844 26.1094C105.969 26.6094 104.938 27.0469 103.75 27.4219C104.906 27.7656 105.859 28.1719 106.609 28.6406C107.391 29.1094 108.016 29.5469 108.484 29.9531C109.047 30.4531 109.469 30.9375 109.75 31.4062C110.094 32.0625 110.328 32.625 110.453 33.0937C110.578 33.5625 110.656 34.0156 110.688 34.4531C110.75 34.8594 110.828 35.2812 110.922 35.7187C111.016 36.1562 111.219 36.6562 111.531 37.2187C111.781 37.6562 112.078 38.1094 112.422 38.5781C112.734 38.9844 113.094 39.4219 113.5 39.8906C113.938 40.3594 114.469 40.8125 115.094 41.25C114.219 41.2812 113.406 41.2969 112.656 41.2969C111.938 41.2969 111.312 41.2969 110.781 41.2969C110.156 41.2969 109.562 41.2812 109 41.25C108.438 41.2187 107.734 41.2031 106.891 41.2031C106.172 41.2031 105.25 41.2031 104.125 41.2031C103.031 41.2031 101.703 41.2187 100.141 41.25C100.828 40.7187 101.391 40.1875 101.828 39.6562C102.266 39.125 102.609 38.6406 102.859 38.2031C103.141 37.7031 103.344 37.2187 103.469 36.75C103.625 35.9062 103.641 35.0312 103.516 34.125C103.422 33.3437 103.172 32.4844 102.766 31.5469C102.359 30.5781 101.703 29.6094 100.797 28.6406C99.8906 28.7969 99.125 28.9219 98.5 29.0156C97.9062 29.0781 97.3906 29.1406 96.9531 29.2031C96.4531 29.2656 96.0469 29.3125 95.7344 29.3437C95.4531 29.375 95.1406 29.4062 94.7969 29.4375C94.5156 29.4687 94.2031 29.5156 93.8594 29.5781C93.5469 29.6094 93.25 29.6562 92.9688 29.7187C92.9062 31.0625 92.9062 32.2344 92.9688 33.2344C93.0312 34.2031 93.1094 35.0156 93.2031 35.6719C93.3281 36.4531 93.4688 37.125 93.625 37.6875C93.7812 38.25 94 38.7969 94.2812 39.3281C94.5 39.7656 94.7812 40.2344 95.125 40.7344C95.4688 41.2031 95.8594 41.5937 96.2969 41.9062C95.4844 41.9062 94.7031 41.9062 93.9531 41.9062C93.2344 41.9062 92.5781 41.8906 91.9844 41.8594C91.2969 41.8594 90.6406 41.8437 90.0156 41.8125C89.3906 41.7812 88.6875 41.7656 87.9062 41.7656C87.25 41.7656 86.4688 41.7656 85.5625 41.7656C84.6875 41.7656 83.7344 41.7812 82.7031 41.8125C83.5156 40.9687 84.1562 40.25 84.625 39.6562C85.0938 39.0625 85.4531 38.5625 85.7031 38.1562C85.9844 37.7187 86.1562 37.3437 86.2188 37.0312C86.2812 36.5312 86.3281 35.6406 86.3594 34.3594C86.4219 33.0469 86.4688 31.5469 86.5 29.8594C86.5312 28.1719 86.5469 26.4062 86.5469 24.5625C86.5469 22.7187 86.5312 21 86.5 19.4062C86.4688 17.7812 86.4375 16.3906 86.4062 15.2344C86.375 14.0781 86.3438 13.3437 86.3125 13.0312C86.2188 12.4687 86.0156 11.9062 85.7031 11.3437C85.4531 10.8437 85.0938 10.2812 84.625 9.65624C84.1562 9.03124 83.5156 8.40624 82.7031 7.78124ZM100.422 24.2812C100.734 24.0937 101 23.9062 101.219 23.7187C101.438 23.5312 101.625 23.2344 101.781 22.8281C101.938 22.3906 102.062 21.7812 102.156 21C102.281 20.2187 102.422 19.1562 102.578 17.8125C102.703 16.4687 102.609 15.3594 102.297 14.4844C102.016 13.6094 101.625 12.9219 101.125 12.4219C100.656 11.8906 100.125 11.5312 99.5312 11.3437C98.9688 11.125 98.4688 11.0156 98.0312 11.0156C97.1562 11.0156 96.2969 11.2812 95.4531 11.8125C94.6094 12.3437 93.9688 13.0625 93.5312 13.9687C93.375 14.375 93.2344 15.0469 93.1094 15.9844C93.0156 16.7969 92.9531 17.9219 92.9219 19.3594C92.8906 20.7969 92.9375 22.6875 93.0625 25.0312C94.25 25.2187 95.2969 25.2969 96.2031 25.2656C97.1094 25.2031 97.875 25.0937 98.5 24.9375C99.25 24.7812 99.8906 24.5625 100.422 24.2812Z"/>
<path d="M113.172 8.57812C114.266 8.73437 115.219 8.85937 116.031 8.95312C116.844 9.04687 117.516 9.12499 118.047 9.18749C118.672 9.24999 119.203 9.29687 119.641 9.32812C120.141 9.39062 120.75 9.35937 121.469 9.23437C122.219 9.10937 123.016 8.98437 123.859 8.85937C124.703 8.70312 125.578 8.57812 126.484 8.48437C127.391 8.39062 128.266 8.39062 129.109 8.48437C129.672 8.54687 130.391 8.67187 131.266 8.85937C132.141 9.04687 133.062 9.34374 134.031 9.74999C135.031 10.1562 136.031 10.6875 137.031 11.3437C138.031 12 138.938 12.8281 139.75 13.8281C140.562 14.8281 141.234 16.0156 141.766 17.3906C142.297 18.7656 142.594 20.375 142.656 22.2187C142.75 24.9687 142.5 27.4687 141.906 29.7187C141.312 31.9687 140.391 33.8906 139.141 35.4844C137.922 37.0781 136.375 38.3281 134.5 39.2344C132.625 40.1406 130.438 40.6406 127.938 40.7344C126.031 40.8906 124.156 41.0312 122.312 41.1562C121.531 41.2187 120.703 41.2656 119.828 41.2969C118.984 41.3281 118.141 41.3594 117.297 41.3906C116.453 41.3906 115.641 41.375 114.859 41.3437C114.078 41.3125 113.359 41.2656 112.703 41.2031C113.422 40.8594 114 40.5156 114.438 40.1719C114.906 39.8281 115.266 39.5312 115.516 39.2812C115.797 38.9687 116 38.6875 116.125 38.4375C116.188 38.0937 116.281 37.4219 116.406 36.4219C116.5 35.5781 116.625 34.375 116.781 32.8125C116.938 31.25 117.125 29.125 117.344 26.4375L117.625 23.1094C117.781 21.0469 117.844 19.3594 117.812 18.0469C117.812 16.7344 117.781 15.7031 117.719 14.9531C117.625 14.0781 117.5 13.4375 117.344 13.0312C117.219 12.6875 116.984 12.2812 116.641 11.8125C116.328 11.4375 115.891 10.9844 115.328 10.4531C114.797 9.89062 114.078 9.26562 113.172 8.57812ZM123.062 25.8281C123.125 28.6094 123.266 30.75 123.484 32.25C123.734 33.7187 124 34.8125 124.281 35.5312C124.625 36.3437 125 36.8281 125.406 36.9844C126 36.9844 126.672 36.7344 127.422 36.2344C128.172 35.7031 128.906 34.9062 129.625 33.8437C130.375 32.7812 131.047 31.4531 131.641 29.8594C132.266 28.2656 132.719 26.4062 133 24.2812C133.281 22.1562 133.203 20.2812 132.766 18.6562C132.328 17.0312 131.75 15.6719 131.031 14.5781C130.312 13.4531 129.578 12.6094 128.828 12.0469C128.078 11.4531 127.516 11.1562 127.141 11.1562C126.703 11.1562 126.312 11.2812 125.969 11.5312C125.625 11.75 125.141 12.2656 124.516 13.0781C124.203 13.5156 123.922 14.1406 123.672 14.9531C123.453 15.6719 123.266 16.625 123.109 17.8125C122.953 19 122.906 20.5312 122.969 22.4062L123.062 25.8281Z"/>
<path d="M158.5 8.57812C159.594 8.73437 160.547 8.85937 161.359 8.95312C162.172 9.04687 162.844 9.12499 163.375 9.18749C164 9.24999 164.531 9.29687 164.969 9.32812C165.469 9.39062 166.078 9.35937 166.797 9.23437C167.547 9.10937 168.344 8.98437 169.188 8.85937C170.031 8.70312 170.906 8.57812 171.812 8.48437C172.719 8.39062 173.594 8.39062 174.438 8.48437C175 8.54687 175.719 8.67187 176.594 8.85937C177.469 9.04687 178.391 9.34374 179.359 9.74999C180.359 10.1562 181.359 10.6875 182.359 11.3437C183.359 12 184.266 12.8281 185.078 13.8281C185.891 14.8281 186.562 16.0156 187.094 17.3906C187.625 18.7656 187.922 20.375 187.984 22.2187C188.078 24.9687 187.828 27.4687 187.234 29.7187C186.641 31.9687 185.719 33.8906 184.469 35.4844C183.25 37.0781 181.703 38.3281 179.828 39.2344C177.953 40.1406 175.766 40.6406 173.266 40.7344C171.359 40.8906 169.484 41.0312 167.641 41.1562C166.859 41.2187 166.031 41.2656 165.156 41.2969C164.312 41.3281 163.469 41.3594 162.625 41.3906C161.781 41.3906 160.969 41.375 160.188 41.3437C159.406 41.3125 158.688 41.2656 158.031 41.2031C158.75 40.8594 159.328 40.5156 159.766 40.1719C160.234 39.8281 160.594 39.5312 160.844 39.2812C161.125 38.9687 161.328 38.6875 161.453 38.4375C161.516 38.0937 161.609 37.4219 161.734 36.4219C161.828 35.5781 161.953 34.375 162.109 32.8125C162.266 31.25 162.453 29.125 162.672 26.4375L162.953 23.1094C163.109 21.0469 163.172 19.3594 163.141 18.0469C163.141 16.7344 163.109 15.7031 163.047 14.9531C162.953 14.0781 162.828 13.4375 162.672 13.0312C162.547 12.6875 162.312 12.2812 161.969 11.8125C161.656 11.4375 161.219 10.9844 160.656 10.4531C160.125 9.89062 159.406 9.26562 158.5 8.57812ZM168.391 25.8281C168.453 28.6094 168.594 30.75 168.812 32.25C169.062 33.7187 169.328 34.8125 169.609 35.5312C169.953 36.3437 170.328 36.8281 170.734 36.9844C171.328 36.9844 172 36.7344 172.75 36.2344C173.5 35.7031 174.234 34.9062 174.953 33.8437C175.703 32.7812 176.375 31.4531 176.969 29.8594C177.594 28.2656 178.047 26.4062 178.328 24.2812C178.609 22.1562 178.531 20.2812 178.094 18.6562C177.656 17.0312 177.078 15.6719 176.359 14.5781C175.641 13.4531 174.906 12.6094 174.156 12.0469C173.406 11.4531 172.844 11.1562 172.469 11.1562C172.031 11.1562 171.641 11.2812 171.297 11.5312C170.953 11.75 170.469 12.2656 169.844 13.0781C169.531 13.5156 169.25 14.1406 169 14.9531C168.781 15.6719 168.594 16.625 168.438 17.8125C168.281 19 168.234 20.5312 168.297 22.4062L168.391 25.8281Z"/>
<path d="M195.109 10.2656C196.672 10.3594 197.984 10.4375 199.047 10.5C200.141 10.5312 201.047 10.5625 201.766 10.5937C202.578 10.625 203.266 10.625 203.828 10.5937C204.391 10.5625 205.156 10.4844 206.125 10.3594C206.938 10.2656 208.016 10.125 209.359 9.93749C210.734 9.71874 212.438 9.43749 214.469 9.09374C213.75 9.81249 213.188 10.4687 212.781 11.0625C212.406 11.625 212.109 12.1094 211.891 12.5156C211.641 13.0156 211.469 13.4375 211.375 13.7812C211.312 14.0937 211.375 14.875 211.562 16.125C211.75 17.375 212.016 18.8594 212.359 20.5781C212.703 22.2656 213.078 24.0781 213.484 26.0156C213.891 27.9219 214.297 29.7187 214.703 31.4062C215.109 33.0625 215.469 34.4844 215.781 35.6719C216.125 36.8281 216.375 37.5156 216.531 37.7344C217 38.3906 217.297 38.8281 217.422 39.0469C217.547 39.2344 217.766 39.4062 218.078 39.5625C218.203 39.625 218.406 39.7187 218.688 39.8437C218.938 39.9687 219.266 40.125 219.672 40.3125C220.109 40.5 220.656 40.7187 221.312 40.9687C220.094 41.0312 219.047 41.0781 218.172 41.1094C217.297 41.1094 216.578 41.125 216.016 41.1562C215.359 41.1875 214.797 41.2187 214.328 41.25C213.859 41.25 213.297 41.2812 212.641 41.3437C212.078 41.4062 211.344 41.4687 210.438 41.5312C209.562 41.5937 208.531 41.6562 207.344 41.7187C207.969 41.2812 208.469 40.8906 208.844 40.5469C209.25 40.1719 209.562 39.8594 209.781 39.6094C210.031 39.2969 210.203 39.0156 210.297 38.7656C210.359 38.4844 210.406 38.0625 210.438 37.5C210.469 37 210.469 36.3437 210.438 35.5312C210.406 34.6875 210.328 33.5937 210.203 32.25L197.875 33.5156C197.562 34.0469 197.328 34.5156 197.172 34.9219C197.016 35.2969 196.906 35.625 196.844 35.9062C196.75 36.25 196.719 36.5312 196.75 36.75C196.812 37 196.922 37.2969 197.078 37.6406C197.234 37.9531 197.453 38.3281 197.734 38.7656C198.047 39.1719 198.5 39.6562 199.094 40.2187C198.312 40.1875 197.516 40.1719 196.703 40.1719C195.891 40.1719 195.141 40.1875 194.453 40.2187C193.641 40.25 192.844 40.2812 192.062 40.3125C191.281 40.3437 190.391 40.3906 189.391 40.4531C188.547 40.5156 187.562 40.5937 186.438 40.6875C185.281 40.75 184.047 40.8437 182.734 40.9687C183.547 40.5937 184.234 40.2187 184.797 39.8437C185.359 39.4375 185.828 39.0625 186.203 38.7187C186.641 38.3437 187.016 37.9844 187.328 37.6406C187.547 37.3281 187.984 36.6094 188.641 35.4844C189.297 34.3281 190.031 32.9687 190.844 31.4062C191.688 29.8437 192.562 28.1719 193.469 26.3906C194.406 24.6094 195.25 22.9375 196 21.375C196.75 19.7812 197.359 18.4062 197.828 17.25C198.297 16.0937 198.531 15.3437 198.531 15C198.469 14.5937 198.312 14.1406 198.062 13.6406C197.844 13.2031 197.5 12.7031 197.031 12.1406C196.594 11.5781 195.953 10.9531 195.109 10.2656ZM209.641 28.7812C209.453 27.6875 209.281 26.75 209.125 25.9687C208.969 25.1562 208.844 24.4844 208.75 23.9531C208.625 23.3281 208.531 22.7812 208.469 22.3125C208.375 21.875 208.266 21.3125 208.141 20.625C208.016 20.0312 207.859 19.2969 207.672 18.4219C207.516 17.5156 207.312 16.4375 207.062 15.1875C205.281 18.75 203.891 21.5156 202.891 23.4844C201.922 25.4219 201.219 26.8437 200.781 27.75C200.25 28.8125 199.953 29.4375 199.891 29.625L209.641 28.7812Z"/>
<path d="M249.25 7.68749C248.812 8.68749 248.422 9.56249 248.078 10.3125C247.734 11.0625 247.438 11.7031 247.188 12.2344C246.906 12.8281 246.672 13.3594 246.484 13.8281C246.328 14.1719 246.125 14.6406 245.875 15.2344C245.625 15.7656 245.312 16.4687 244.938 17.3437C244.594 18.1875 244.141 19.2812 243.578 20.625C243.297 19.4687 242.953 18.4531 242.547 17.5781C242.141 16.7031 241.703 15.9375 241.234 15.2812C240.766 14.625 240.266 14.0937 239.734 13.6875C239.234 13.25 238.734 12.8906 238.234 12.6094C237.078 11.9844 235.859 11.6406 234.578 11.5781C232.891 11.6719 231.562 11.9531 230.594 12.4219C229.656 12.8594 228.969 13.375 228.531 13.9687C228.094 14.5312 227.859 15.125 227.828 15.75C227.797 16.3437 227.875 16.8437 228.062 17.25C228.219 17.625 228.766 18.0625 229.703 18.5625C230.672 19.0625 231.828 19.6406 233.172 20.2969C234.547 20.9219 236.016 21.6406 237.578 22.4531C239.141 23.2344 240.578 24.1094 241.891 25.0781C243.234 26.0156 244.359 27.0469 245.266 28.1719C246.203 29.2656 246.719 30.4375 246.812 31.6875C246.906 33.2812 246.891 34.7187 246.766 36C246.641 37.2812 246.203 38.375 245.453 39.2812C244.703 40.1875 243.531 40.9062 241.938 41.4375C240.375 41.9687 238.203 42.2969 235.422 42.4219C232.547 42.5469 230.188 42.3906 228.344 41.9531C226.5 41.5156 225 40.9219 223.844 40.1719C222.719 39.4219 221.875 38.5937 221.312 37.6875C220.781 36.7812 220.391 35.9219 220.141 35.1094C219.891 34.2656 219.719 33.5469 219.625 32.9531C219.531 32.3281 219.375 31.9531 219.156 31.8281C218.906 31.6719 218.656 31.5312 218.406 31.4062C218.188 31.2812 217.953 31.1719 217.703 31.0781C217.453 30.9531 217.203 30.8437 216.953 30.75L230.594 28.5469C229.812 29.1719 229.203 29.75 228.766 30.2812C228.359 30.8125 228.047 31.2812 227.828 31.6875C227.578 32.1562 227.406 32.5937 227.312 33C227.25 33.4375 227.391 33.9844 227.734 34.6406C228.078 35.2969 228.547 35.9375 229.141 36.5625C229.766 37.1562 230.484 37.6562 231.297 38.0625C232.109 38.4687 232.953 38.6406 233.828 38.5781C234.922 38.4844 235.812 38.2187 236.5 37.7812C237.188 37.3125 237.703 36.7344 238.047 36.0469C238.422 35.3594 238.641 34.6094 238.703 33.7969C238.766 32.9844 238.688 32.1875 238.469 31.4062C238.281 30.5937 237.969 29.8437 237.531 29.1562C237.094 28.4375 236.578 27.8437 235.984 27.375C235.453 27 234.625 26.6406 233.5 26.2969C232.406 25.9531 231.172 25.5781 229.797 25.1719C228.453 24.7656 227.062 24.2969 225.625 23.7656C224.219 23.2344 222.938 22.5781 221.781 21.7969C220.656 21.0156 219.75 20.0937 219.062 19.0312C218.406 17.9687 218.156 16.6875 218.312 15.1875C218.438 13.9062 218.844 12.8437 219.531 12C220.25 11.125 221.141 10.4375 222.203 9.93749C223.297 9.40624 224.5 9.01562 225.812 8.76562C227.156 8.51562 228.516 8.37499 229.891 8.34374C231.297 8.28124 232.672 8.29687 234.016 8.39062C235.391 8.48437 236.625 8.59374 237.719 8.71874C238.812 8.84374 239.734 8.96874 240.484 9.09374C241.266 9.18749 241.75 9.24999 241.938 9.28124C242.75 9.34374 243.562 9.32812 244.375 9.23437C245.094 9.17187 245.875 9.03124 246.719 8.81249C247.594 8.56249 248.438 8.18749 249.25 7.68749Z"/>
<path d="M247.562 8.71874C248.656 8.84374 249.578 8.93749 250.328 8.99999C251.078 9.03124 251.672 9.06249 252.109 9.09374C252.641 9.12499 253.062 9.14062 253.375 9.14062C253.906 9.14062 254.516 9.12499 255.203 9.09374C255.797 9.06249 256.484 9.01562 257.266 8.95312C258.078 8.85937 258.953 8.71874 259.891 8.53124C259.453 8.99999 259.094 9.45312 258.812 9.89062C258.531 10.2969 258.312 10.6719 258.156 11.0156C257.969 11.3906 257.812 11.7344 257.688 12.0469C257.562 12.4531 257.422 13.0781 257.266 13.9219C257.109 14.6406 256.938 15.6562 256.75 16.9687C256.594 18.2812 256.391 20 256.141 22.125C257.203 22.1562 258.125 22.1719 258.906 22.1719C259.688 22.1406 260.344 22.125 260.875 22.125H262.422C262.859 22.0937 263.359 22.0625 263.922 22.0312C264.859 22 266.281 21.9062 268.188 21.75C268.344 20.3125 268.422 19.0781 268.422 18.0469C268.453 16.9844 268.438 16.0937 268.375 15.375C268.312 14.5625 268.219 13.875 268.094 13.3125C268 13 267.859 12.625 267.672 12.1875C267.516 11.8125 267.297 11.3594 267.016 10.8281C266.766 10.2656 266.422 9.59374 265.984 8.81249C266.797 8.93749 267.516 9.03124 268.141 9.09374C268.797 9.12499 269.344 9.15624 269.781 9.18749C270.281 9.21874 270.703 9.23437 271.047 9.23437C271.391 9.23437 271.844 9.21874 272.406 9.18749C272.875 9.15624 273.453 9.14062 274.141 9.14062C274.828 9.10937 275.672 9.06249 276.672 8.99999C276.422 9.43749 276.203 9.89062 276.016 10.3594C275.828 10.8281 275.672 11.25 275.547 11.625C275.422 12.0625 275.297 12.5 275.172 12.9375C275.016 13.5937 274.875 14.5469 274.75 15.7969C274.656 17.0469 274.562 18.4375 274.469 19.9687C274.406 21.5 274.344 23.0937 274.281 24.75C274.25 26.4062 274.219 27.9687 274.188 29.4375C274.188 30.9062 274.203 32.2187 274.234 33.375C274.266 34.5 274.328 35.2969 274.422 35.7656C274.516 36.3281 274.672 36.9062 274.891 37.5C275.078 38.0312 275.328 38.6094 275.641 39.2344C275.953 39.8281 276.359 40.3906 276.859 40.9219L265.562 41.7656C266.031 41.3281 266.406 40.9062 266.688 40.5C266.969 40.0625 267.188 39.6875 267.344 39.375C267.5 39.0312 267.609 38.7031 267.672 38.3906C267.703 38.0156 267.75 37.3594 267.812 36.4219C267.875 35.6406 267.938 34.5312 268 33.0937C268.062 31.6562 268.125 29.75 268.188 27.375C267.75 27.375 267.219 27.3906 266.594 27.4219C266 27.4219 265.438 27.4375 264.906 27.4687C264.281 27.5 263.625 27.5156 262.938 27.5156C262.25 27.5469 261.531 27.5781 260.781 27.6094C260.156 27.6719 259.453 27.7344 258.672 27.7969C257.922 27.8281 257.172 27.875 256.422 27.9375C256.359 29.25 256.359 30.4062 256.422 31.4062C256.484 32.375 256.578 33.2031 256.703 33.8906C256.828 34.7031 256.984 35.4062 257.172 36C257.359 36.5625 257.562 37.125 257.781 37.6875C257.969 38.1875 258.188 38.7187 258.438 39.2812C258.719 39.8437 259 40.3437 259.281 40.7812C258.688 40.7187 258.141 40.6719 257.641 40.6406C257.141 40.5781 256.703 40.5156 256.328 40.4531C255.891 40.4219 255.469 40.3906 255.062 40.3594C254.656 40.3594 254.172 40.3437 253.609 40.3125C253.109 40.2812 252.484 40.2656 251.734 40.2656C250.984 40.2344 250.109 40.2187 249.109 40.2187C249.703 39.625 250.172 39.0469 250.516 38.4844C250.891 37.8906 251.156 37.3594 251.312 36.8906C251.5 36.3281 251.625 35.8125 251.688 35.3437C251.719 34.9375 251.734 34.1719 251.734 33.0469C251.766 31.9219 251.766 30.6406 251.734 29.2031C251.734 27.7344 251.719 26.2031 251.688 24.6094C251.656 22.9844 251.609 21.4687 251.547 20.0625C251.516 18.6562 251.469 17.4531 251.406 16.4531C251.375 15.4219 251.344 14.7812 251.312 14.5312C251.156 13.9687 250.922 13.3594 250.609 12.7031C250.328 12.1719 249.953 11.5625 249.484 10.875C249.016 10.1562 248.375 9.43749 247.562 8.71874Z"/>
</mask>
<path d="M9.625 9.04687C10.6562 9.17187 11.5938 9.26562 12.4375 9.32812C13.25 9.39062 13.9531 9.45312 14.5469 9.51562C15.2344 9.57812 15.8438 9.62499 16.375 9.65624C16.9375 9.65624 17.6562 9.64062 18.5312 9.60937C19.2812 9.57812 20.2344 9.53124 21.3906 9.46874C22.5469 9.40624 23.9688 9.29687 25.6562 9.14062C24.8438 9.60937 24.1719 10.0781 23.6406 10.5469C23.1406 11.0156 22.75 11.4375 22.4688 11.8125C22.125 12.25 21.875 12.6875 21.7188 13.125C21.625 13.7187 21.6562 14.875 21.8125 16.5937C21.875 17.3125 21.9688 18.2031 22.0938 19.2656C22.25 20.2969 22.4375 21.5312 22.6562 22.9687C22.9062 24.375 23.2031 26 23.5469 27.8437C23.9219 29.6875 24.3438 31.7812 24.8125 34.125C25.4375 32.3437 25.9531 30.7656 26.3594 29.3906C26.7656 27.9844 27.1094 26.7812 27.3906 25.7812C27.7031 24.6562 27.9688 23.6562 28.1875 22.7812C28.4062 21.875 28.6719 20.7031 28.9844 19.2656C29.2344 18.0469 29.5625 16.4687 29.9688 14.5312C30.375 12.5937 30.875 10.2031 31.4688 7.35937L33.1562 7.59374C33.3125 9.81249 33.4688 11.7656 33.625 13.4531C33.8125 15.1406 33.9688 16.5781 34.0938 17.7656C34.2188 19.1406 34.3438 20.3281 34.4688 21.3281C34.5938 22.2344 34.7812 23.2812 35.0312 24.4687C35.25 25.4687 35.5312 26.7031 35.875 28.1719C36.2188 29.6094 36.6719 31.2344 37.2344 33.0469C37.7969 30.8281 38.2969 28.8437 38.7344 27.0937C39.2031 25.3437 39.5938 23.7969 39.9062 22.4531C40.25 21.1094 40.5312 19.9531 40.75 18.9844C41 18.0156 41.2031 17.2031 41.3594 16.5469C41.7031 14.9844 41.9062 13.9375 41.9688 13.4062C41.9375 12.8125 41.7969 12.2344 41.5469 11.6719C41.3281 11.1719 40.9844 10.625 40.5156 10.0312C40.0469 9.43749 39.3594 8.85937 38.4531 8.29687C40.3594 8.35937 41.9062 8.40624 43.0938 8.43749C44.3125 8.43749 45.2812 8.43749 46 8.43749H49.5625C50.1875 8.43749 51 8.43749 52 8.43749C53.0312 8.40624 54.3438 8.35937 55.9375 8.29687C54.5625 9.01562 53.4531 9.67187 52.6094 10.2656C51.7656 10.8594 51.1094 11.3594 50.6406 11.7656C50.0781 12.2656 49.6719 12.6875 49.4219 13.0312C49.1719 13.6562 48.7656 15.0625 48.2031 17.25C47.9531 18.1875 47.6719 19.3594 47.3594 20.7656C47.0469 22.1406 46.6719 23.7969 46.2344 25.7344C45.8281 27.6719 45.3594 29.9375 44.8281 32.5312C44.2969 35.0937 43.7031 38.0312 43.0469 41.3437L34.9375 40.5L31.4688 25.9219C30.9375 28.5781 30.5156 30.7344 30.2031 32.3906C29.8906 34.0156 29.6562 35.2812 29.5 36.1875C29.3125 37.2812 29.2031 38.0781 29.1719 38.5781C29.1406 39.0156 29.1094 39.4375 29.0781 39.8437C29.0469 40.1875 29 40.5625 28.9375 40.9687C28.9062 41.375 28.8594 41.75 28.7969 42.0937H20.5C19.6875 38.5312 18.9531 35.3906 18.2969 32.6719C17.6719 29.9219 17.1094 27.5156 16.6094 25.4531C16.1094 23.3906 15.6719 21.6406 15.2969 20.2031C14.9531 18.7656 14.6406 17.5625 14.3594 16.5937C13.7344 14.3437 13.2812 12.9531 13 12.4219C12.7812 12.1719 12.5 11.875 12.1562 11.5312C11.875 11.25 11.5312 10.9062 11.125 10.5C10.6875 10.0625 10.1875 9.57812 9.625 9.04687Z" fill="#3FD33C"/>
<path d="M67.75 6.65624C69.4375 6.71874 71.1406 7.03124 72.8594 7.59374C74.6094 8.12499 76.2188 8.99999 77.6875 10.2187C79.1562 11.4062 80.4062 12.9531 81.4375 14.8594C82.4688 16.7344 83.1094 19.0312 83.3594 21.75C83.5781 23.9687 83.2969 26.1719 82.5156 28.3594C81.7656 30.5156 80.7188 32.5 79.375 34.3125C78.0312 36.125 76.4844 37.6719 74.7344 38.9531C72.9844 40.2031 71.2344 41.0312 69.4844 41.4375C68.4219 41.6875 67.25 41.7187 65.9688 41.5312C64.7188 41.3125 63.4375 40.9219 62.125 40.3594C60.8438 39.7656 59.5781 39.0156 58.3281 38.1094C57.1094 37.2031 56 36.1719 55 35.0156C54 33.8281 53.1562 32.5469 52.4688 31.1719C51.8125 29.7969 51.4062 28.3594 51.25 26.8594C51.0938 25.6094 51.0781 24.2344 51.2031 22.7344C51.3594 21.2031 51.6562 19.6875 52.0938 18.1875C52.5625 16.6562 53.2031 15.1875 54.0156 13.7812C54.8594 12.3437 55.9219 11.0937 57.2031 10.0312C58.4844 8.93749 59.9844 8.09374 61.7031 7.49999C63.4531 6.87499 65.4688 6.59374 67.75 6.65624ZM59.3594 25.6406C58.9219 28.9844 59.2344 31.6719 60.2969 33.7031C61.3906 35.7344 63.0312 36.9687 65.2188 37.4062C66.2812 37.625 67.2969 37.4062 68.2656 36.75C69.2656 36.0625 70.1719 35.0781 70.9844 33.7969C71.7969 32.5156 72.5 31.0156 73.0938 29.2969C73.6875 27.5781 74.125 25.7812 74.4062 23.9062C74.6875 22.0312 74.7031 20.3437 74.4531 18.8437C74.2344 17.3125 73.8438 16.0156 73.2812 14.9531C72.7188 13.8594 72.0312 13.0156 71.2188 12.4219C70.4375 11.8281 69.625 11.5 68.7812 11.4375C67.3125 11.3437 66.0312 11.7344 64.9375 12.6094C63.8438 13.4531 62.9219 14.5625 62.1719 15.9375C61.4219 17.3125 60.8125 18.8594 60.3438 20.5781C59.9062 22.2969 59.5781 23.9844 59.3594 25.6406Z" fill="#3FD33C"/>
<path d="M82.7031 7.78124C83.7031 7.93749 84.6094 8.07812 85.4219 8.20312C86.2344 8.29687 86.9375 8.37499 87.5312 8.43749C88.2188 8.53124 88.8281 8.60937 89.3594 8.67187C90.0156 8.76562 91 8.65624 92.3125 8.34374C93.625 7.99999 95.0625 7.68749 96.625 7.40624C98.2188 7.09374 99.8438 6.92187 101.5 6.89062C103.156 6.82812 104.672 7.12499 106.047 7.78124C107.422 8.43749 108.547 9.09374 109.422 9.74999C110.297 10.4062 110.984 11.1094 111.484 11.8594C112.016 12.5781 112.391 13.3437 112.609 14.1562C112.828 14.9687 112.953 15.8594 112.984 16.8281C112.953 18.2656 112.609 19.6562 111.953 21C111.672 21.5625 111.297 22.1562 110.828 22.7812C110.391 23.375 109.844 23.9531 109.188 24.5156C108.531 25.0781 107.75 25.6094 106.844 26.1094C105.969 26.6094 104.938 27.0469 103.75 27.4219C104.906 27.7656 105.859 28.1719 106.609 28.6406C107.391 29.1094 108.016 29.5469 108.484 29.9531C109.047 30.4531 109.469 30.9375 109.75 31.4062C110.094 32.0625 110.328 32.625 110.453 33.0937C110.578 33.5625 110.656 34.0156 110.688 34.4531C110.75 34.8594 110.828 35.2812 110.922 35.7187C111.016 36.1562 111.219 36.6562 111.531 37.2187C111.781 37.6562 112.078 38.1094 112.422 38.5781C112.734 38.9844 113.094 39.4219 113.5 39.8906C113.938 40.3594 114.469 40.8125 115.094 41.25C114.219 41.2812 113.406 41.2969 112.656 41.2969C111.938 41.2969 111.312 41.2969 110.781 41.2969C110.156 41.2969 109.562 41.2812 109 41.25C108.438 41.2187 107.734 41.2031 106.891 41.2031C106.172 41.2031 105.25 41.2031 104.125 41.2031C103.031 41.2031 101.703 41.2187 100.141 41.25C100.828 40.7187 101.391 40.1875 101.828 39.6562C102.266 39.125 102.609 38.6406 102.859 38.2031C103.141 37.7031 103.344 37.2187 103.469 36.75C103.625 35.9062 103.641 35.0312 103.516 34.125C103.422 33.3437 103.172 32.4844 102.766 31.5469C102.359 30.5781 101.703 29.6094 100.797 28.6406C99.8906 28.7969 99.125 28.9219 98.5 29.0156C97.9062 29.0781 97.3906 29.1406 96.9531 29.2031C96.4531 29.2656 96.0469 29.3125 95.7344 29.3437C95.4531 29.375 95.1406 29.4062 94.7969 29.4375C94.5156 29.4687 94.2031 29.5156 93.8594 29.5781C93.5469 29.6094 93.25 29.6562 92.9688 29.7187C92.9062 31.0625 92.9062 32.2344 92.9688 33.2344C93.0312 34.2031 93.1094 35.0156 93.2031 35.6719C93.3281 36.4531 93.4688 37.125 93.625 37.6875C93.7812 38.25 94 38.7969 94.2812 39.3281C94.5 39.7656 94.7812 40.2344 95.125 40.7344C95.4688 41.2031 95.8594 41.5937 96.2969 41.9062C95.4844 41.9062 94.7031 41.9062 93.9531 41.9062C93.2344 41.9062 92.5781 41.8906 91.9844 41.8594C91.2969 41.8594 90.6406 41.8437 90.0156 41.8125C89.3906 41.7812 88.6875 41.7656 87.9062 41.7656C87.25 41.7656 86.4688 41.7656 85.5625 41.7656C84.6875 41.7656 83.7344 41.7812 82.7031 41.8125C83.5156 40.9687 84.1562 40.25 84.625 39.6562C85.0938 39.0625 85.4531 38.5625 85.7031 38.1562C85.9844 37.7187 86.1562 37.3437 86.2188 37.0312C86.2812 36.5312 86.3281 35.6406 86.3594 34.3594C86.4219 33.0469 86.4688 31.5469 86.5 29.8594C86.5312 28.1719 86.5469 26.4062 86.5469 24.5625C86.5469 22.7187 86.5312 21 86.5 19.4062C86.4688 17.7812 86.4375 16.3906 86.4062 15.2344C86.375 14.0781 86.3438 13.3437 86.3125 13.0312C86.2188 12.4687 86.0156 11.9062 85.7031 11.3437C85.4531 10.8437 85.0938 10.2812 84.625 9.65624C84.1562 9.03124 83.5156 8.40624 82.7031 7.78124ZM100.422 24.2812C100.734 24.0937 101 23.9062 101.219 23.7187C101.438 23.5312 101.625 23.2344 101.781 22.8281C101.938 22.3906 102.062 21.7812 102.156 21C102.281 20.2187 102.422 19.1562 102.578 17.8125C102.703 16.4687 102.609 15.3594 102.297 14.4844C102.016 13.6094 101.625 12.9219 101.125 12.4219C100.656 11.8906 100.125 11.5312 99.5312 11.3437C98.9688 11.125 98.4688 11.0156 98.0312 11.0156C97.1562 11.0156 96.2969 11.2812 95.4531 11.8125C94.6094 12.3437 93.9688 13.0625 93.5312 13.9687C93.375 14.375 93.2344 15.0469 93.1094 15.9844C93.0156 16.7969 92.9531 17.9219 92.9219 19.3594C92.8906 20.7969 92.9375 22.6875 93.0625 25.0312C94.25 25.2187 95.2969 25.2969 96.2031 25.2656C97.1094 25.2031 97.875 25.0937 98.5 24.9375C99.25 24.7812 99.8906 24.5625 100.422 24.2812Z" fill="#3FD33C"/>
<path d="M113.172 8.57812C114.266 8.73437 115.219 8.85937 116.031 8.95312C116.844 9.04687 117.516 9.12499 118.047 9.18749C118.672 9.24999 119.203 9.29687 119.641 9.32812C120.141 9.39062 120.75 9.35937 121.469 9.23437C122.219 9.10937 123.016 8.98437 123.859 8.85937C124.703 8.70312 125.578 8.57812 126.484 8.48437C127.391 8.39062 128.266 8.39062 129.109 8.48437C129.672 8.54687 130.391 8.67187 131.266 8.85937C132.141 9.04687 133.062 9.34374 134.031 9.74999C135.031 10.1562 136.031 10.6875 137.031 11.3437C138.031 12 138.938 12.8281 139.75 13.8281C140.562 14.8281 141.234 16.0156 141.766 17.3906C142.297 18.7656 142.594 20.375 142.656 22.2187C142.75 24.9687 142.5 27.4687 141.906 29.7187C141.312 31.9687 140.391 33.8906 139.141 35.4844C137.922 37.0781 136.375 38.3281 134.5 39.2344C132.625 40.1406 130.438 40.6406 127.938 40.7344C126.031 40.8906 124.156 41.0312 122.312 41.1562C121.531 41.2187 120.703 41.2656 119.828 41.2969C118.984 41.3281 118.141 41.3594 117.297 41.3906C116.453 41.3906 115.641 41.375 114.859 41.3437C114.078 41.3125 113.359 41.2656 112.703 41.2031C113.422 40.8594 114 40.5156 114.438 40.1719C114.906 39.8281 115.266 39.5312 115.516 39.2812C115.797 38.9687 116 38.6875 116.125 38.4375C116.188 38.0937 116.281 37.4219 116.406 36.4219C116.5 35.5781 116.625 34.375 116.781 32.8125C116.938 31.25 117.125 29.125 117.344 26.4375L117.625 23.1094C117.781 21.0469 117.844 19.3594 117.812 18.0469C117.812 16.7344 117.781 15.7031 117.719 14.9531C117.625 14.0781 117.5 13.4375 117.344 13.0312C117.219 12.6875 116.984 12.2812 116.641 11.8125C116.328 11.4375 115.891 10.9844 115.328 10.4531C114.797 9.89062 114.078 9.26562 113.172 8.57812ZM123.062 25.8281C123.125 28.6094 123.266 30.75 123.484 32.25C123.734 33.7187 124 34.8125 124.281 35.5312C124.625 36.3437 125 36.8281 125.406 36.9844C126 36.9844 126.672 36.7344 127.422 36.2344C128.172 35.7031 128.906 34.9062 129.625 33.8437C130.375 32.7812 131.047 31.4531 131.641 29.8594C132.266 28.2656 132.719 26.4062 133 24.2812C133.281 22.1562 133.203 20.2812 132.766 18.6562C132.328 17.0312 131.75 15.6719 131.031 14.5781C130.312 13.4531 129.578 12.6094 128.828 12.0469C128.078 11.4531 127.516 11.1562 127.141 11.1562C126.703 11.1562 126.312 11.2812 125.969 11.5312C125.625 11.75 125.141 12.2656 124.516 13.0781C124.203 13.5156 123.922 14.1406 123.672 14.9531C123.453 15.6719 123.266 16.625 123.109 17.8125C122.953 19 122.906 20.5312 122.969 22.4062L123.062 25.8281Z" fill="#3FD33C"/>
<path d="M158.5 8.57812C159.594 8.73437 160.547 8.85937 161.359 8.95312C162.172 9.04687 162.844 9.12499 163.375 9.18749C164 9.24999 164.531 9.29687 164.969 9.32812C165.469 9.39062 166.078 9.35937 166.797 9.23437C167.547 9.10937 168.344 8.98437 169.188 8.85937C170.031 8.70312 170.906 8.57812 171.812 8.48437C172.719 8.39062 173.594 8.39062 174.438 8.48437C175 8.54687 175.719 8.67187 176.594 8.85937C177.469 9.04687 178.391 9.34374 179.359 9.74999C180.359 10.1562 181.359 10.6875 182.359 11.3437C183.359 12 184.266 12.8281 185.078 13.8281C185.891 14.8281 186.562 16.0156 187.094 17.3906C187.625 18.7656 187.922 20.375 187.984 22.2187C188.078 24.9687 187.828 27.4687 187.234 29.7187C186.641 31.9687 185.719 33.8906 184.469 35.4844C183.25 37.0781 181.703 38.3281 179.828 39.2344C177.953 40.1406 175.766 40.6406 173.266 40.7344C171.359 40.8906 169.484 41.0312 167.641 41.1562C166.859 41.2187 166.031 41.2656 165.156 41.2969C164.312 41.3281 163.469 41.3594 162.625 41.3906C161.781 41.3906 160.969 41.375 160.188 41.3437C159.406 41.3125 158.688 41.2656 158.031 41.2031C158.75 40.8594 159.328 40.5156 159.766 40.1719C160.234 39.8281 160.594 39.5312 160.844 39.2812C161.125 38.9687 161.328 38.6875 161.453 38.4375C161.516 38.0937 161.609 37.4219 161.734 36.4219C161.828 35.5781 161.953 34.375 162.109 32.8125C162.266 31.25 162.453 29.125 162.672 26.4375L162.953 23.1094C163.109 21.0469 163.172 19.3594 163.141 18.0469C163.141 16.7344 163.109 15.7031 163.047 14.9531C162.953 14.0781 162.828 13.4375 162.672 13.0312C162.547 12.6875 162.312 12.2812 161.969 11.8125C161.656 11.4375 161.219 10.9844 160.656 10.4531C160.125 9.89062 159.406 9.26562 158.5 8.57812ZM168.391 25.8281C168.453 28.6094 168.594 30.75 168.812 32.25C169.062 33.7187 169.328 34.8125 169.609 35.5312C169.953 36.3437 170.328 36.8281 170.734 36.9844C171.328 36.9844 172 36.7344 172.75 36.2344C173.5 35.7031 174.234 34.9062 174.953 33.8437C175.703 32.7812 176.375 31.4531 176.969 29.8594C177.594 28.2656 178.047 26.4062 178.328 24.2812C178.609 22.1562 178.531 20.2812 178.094 18.6562C177.656 17.0312 177.078 15.6719 176.359 14.5781C175.641 13.4531 174.906 12.6094 174.156 12.0469C173.406 11.4531 172.844 11.1562 172.469 11.1562C172.031 11.1562 171.641 11.2812 171.297 11.5312C170.953 11.75 170.469 12.2656 169.844 13.0781C169.531 13.5156 169.25 14.1406 169 14.9531C168.781 15.6719 168.594 16.625 168.438 17.8125C168.281 19 168.234 20.5312 168.297 22.4062L168.391 25.8281Z" fill="#3FD33C"/>
<path d="M195.109 10.2656C196.672 10.3594 197.984 10.4375 199.047 10.5C200.141 10.5312 201.047 10.5625 201.766 10.5937C202.578 10.625 203.266 10.625 203.828 10.5937C204.391 10.5625 205.156 10.4844 206.125 10.3594C206.938 10.2656 208.016 10.125 209.359 9.93749C210.734 9.71874 212.438 9.43749 214.469 9.09374C213.75 9.81249 213.188 10.4687 212.781 11.0625C212.406 11.625 212.109 12.1094 211.891 12.5156C211.641 13.0156 211.469 13.4375 211.375 13.7812C211.312 14.0937 211.375 14.875 211.562 16.125C211.75 17.375 212.016 18.8594 212.359 20.5781C212.703 22.2656 213.078 24.0781 213.484 26.0156C213.891 27.9219 214.297 29.7187 214.703 31.4062C215.109 33.0625 215.469 34.4844 215.781 35.6719C216.125 36.8281 216.375 37.5156 216.531 37.7344C217 38.3906 217.297 38.8281 217.422 39.0469C217.547 39.2344 217.766 39.4062 218.078 39.5625C218.203 39.625 218.406 39.7187 218.688 39.8437C218.938 39.9687 219.266 40.125 219.672 40.3125C220.109 40.5 220.656 40.7187 221.312 40.9687C220.094 41.0312 219.047 41.0781 218.172 41.1094C217.297 41.1094 216.578 41.125 216.016 41.1562C215.359 41.1875 214.797 41.2187 214.328 41.25C213.859 41.25 213.297 41.2812 212.641 41.3437C212.078 41.4062 211.344 41.4687 210.438 41.5312C209.562 41.5937 208.531 41.6562 207.344 41.7187C207.969 41.2812 208.469 40.8906 208.844 40.5469C209.25 40.1719 209.562 39.8594 209.781 39.6094C210.031 39.2969 210.203 39.0156 210.297 38.7656C210.359 38.4844 210.406 38.0625 210.438 37.5C210.469 37 210.469 36.3437 210.438 35.5312C210.406 34.6875 210.328 33.5937 210.203 32.25L197.875 33.5156C197.562 34.0469 197.328 34.5156 197.172 34.9219C197.016 35.2969 196.906 35.625 196.844 35.9062C196.75 36.25 196.719 36.5312 196.75 36.75C196.812 37 196.922 37.2969 197.078 37.6406C197.234 37.9531 197.453 38.3281 197.734 38.7656C198.047 39.1719 198.5 39.6562 199.094 40.2187C198.312 40.1875 197.516 40.1719 196.703 40.1719C195.891 40.1719 195.141 40.1875 194.453 40.2187C193.641 40.25 192.844 40.2812 192.062 40.3125C191.281 40.3437 190.391 40.3906 189.391 40.4531C188.547 40.5156 187.562 40.5937 186.438 40.6875C185.281 40.75 184.047 40.8437 182.734 40.9687C183.547 40.5937 184.234 40.2187 184.797 39.8437C185.359 39.4375 185.828 39.0625 186.203 38.7187C186.641 38.3437 187.016 37.9844 187.328 37.6406C187.547 37.3281 187.984 36.6094 188.641 35.4844C189.297 34.3281 190.031 32.9687 190.844 31.4062C191.688 29.8437 192.562 28.1719 193.469 26.3906C194.406 24.6094 195.25 22.9375 196 21.375C196.75 19.7812 197.359 18.4062 197.828 17.25C198.297 16.0937 198.531 15.3437 198.531 15C198.469 14.5937 198.312 14.1406 198.062 13.6406C197.844 13.2031 197.5 12.7031 197.031 12.1406C196.594 11.5781 195.953 10.9531 195.109 10.2656ZM209.641 28.7812C209.453 27.6875 209.281 26.75 209.125 25.9687C208.969 25.1562 208.844 24.4844 208.75 23.9531C208.625 23.3281 208.531 22.7812 208.469 22.3125C208.375 21.875 208.266 21.3125 208.141 20.625C208.016 20.0312 207.859 19.2969 207.672 18.4219C207.516 17.5156 207.312 16.4375 207.062 15.1875C205.281 18.75 203.891 21.5156 202.891 23.4844C201.922 25.4219 201.219 26.8437 200.781 27.75C200.25 28.8125 199.953 29.4375 199.891 29.625L209.641 28.7812Z" fill="#3FD33C"/>
<path d="M249.25 7.68749C248.812 8.68749 248.422 9.56249 248.078 10.3125C247.734 11.0625 247.438 11.7031 247.188 12.2344C246.906 12.8281 246.672 13.3594 246.484 13.8281C246.328 14.1719 246.125 14.6406 245.875 15.2344C245.625 15.7656 245.312 16.4687 244.938 17.3437C244.594 18.1875 244.141 19.2812 243.578 20.625C243.297 19.4687 242.953 18.4531 242.547 17.5781C242.141 16.7031 241.703 15.9375 241.234 15.2812C240.766 14.625 240.266 14.0937 239.734 13.6875C239.234 13.25 238.734 12.8906 238.234 12.6094C237.078 11.9844 235.859 11.6406 234.578 11.5781C232.891 11.6719 231.562 11.9531 230.594 12.4219C229.656 12.8594 228.969 13.375 228.531 13.9687C228.094 14.5312 227.859 15.125 227.828 15.75C227.797 16.3437 227.875 16.8437 228.062 17.25C228.219 17.625 228.766 18.0625 229.703 18.5625C230.672 19.0625 231.828 19.6406 233.172 20.2969C234.547 20.9219 236.016 21.6406 237.578 22.4531C239.141 23.2344 240.578 24.1094 241.891 25.0781C243.234 26.0156 244.359 27.0469 245.266 28.1719C246.203 29.2656 246.719 30.4375 246.812 31.6875C246.906 33.2812 246.891 34.7187 246.766 36C246.641 37.2812 246.203 38.375 245.453 39.2812C244.703 40.1875 243.531 40.9062 241.938 41.4375C240.375 41.9687 238.203 42.2969 235.422 42.4219C232.547 42.5469 230.188 42.3906 228.344 41.9531C226.5 41.5156 225 40.9219 223.844 40.1719C222.719 39.4219 221.875 38.5937 221.312 37.6875C220.781 36.7812 220.391 35.9219 220.141 35.1094C219.891 34.2656 219.719 33.5469 219.625 32.9531C219.531 32.3281 219.375 31.9531 219.156 31.8281C218.906 31.6719 218.656 31.5312 218.406 31.4062C218.188 31.2812 217.953 31.1719 217.703 31.0781C217.453 30.9531 217.203 30.8437 216.953 30.75L230.594 28.5469C229.812 29.1719 229.203 29.75 228.766 30.2812C228.359 30.8125 228.047 31.2812 227.828 31.6875C227.578 32.1562 227.406 32.5937 227.312 33C227.25 33.4375 227.391 33.9844 227.734 34.6406C228.078 35.2969 228.547 35.9375 229.141 36.5625C229.766 37.1562 230.484 37.6562 231.297 38.0625C232.109 38.4687 232.953 38.6406 233.828 38.5781C234.922 38.4844 235.812 38.2187 236.5 37.7812C237.188 37.3125 237.703 36.7344 238.047 36.0469C238.422 35.3594 238.641 34.6094 238.703 33.7969C238.766 32.9844 238.688 32.1875 238.469 31.4062C238.281 30.5937 237.969 29.8437 237.531 29.1562C237.094 28.4375 236.578 27.8437 235.984 27.375C235.453 27 234.625 26.6406 233.5 26.2969C232.406 25.9531 231.172 25.5781 229.797 25.1719C228.453 24.7656 227.062 24.2969 225.625 23.7656C224.219 23.2344 222.938 22.5781 221.781 21.7969C220.656 21.0156 219.75 20.0937 219.062 19.0312C218.406 17.9687 218.156 16.6875 218.312 15.1875C218.438 13.9062 218.844 12.8437 219.531 12C220.25 11.125 221.141 10.4375 222.203 9.93749C223.297 9.40624 224.5 9.01562 225.812 8.76562C227.156 8.51562 228.516 8.37499 229.891 8.34374C231.297 8.28124 232.672 8.29687 234.016 8.39062C235.391 8.48437 236.625 8.59374 237.719 8.71874C238.812 8.84374 239.734 8.96874 240.484 9.09374C241.266 9.18749 241.75 9.24999 241.938 9.28124C242.75 9.34374 243.562 9.32812 244.375 9.23437C245.094 9.17187 245.875 9.03124 246.719 8.81249C247.594 8.56249 248.438 8.18749 249.25 7.68749Z" fill="#3FD33C"/>
<path d="M247.562 8.71874C248.656 8.84374 249.578 8.93749 250.328 8.99999C251.078 9.03124 251.672 9.06249 252.109 9.09374C252.641 9.12499 253.062 9.14062 253.375 9.14062C253.906 9.14062 254.516 9.12499 255.203 9.09374C255.797 9.06249 256.484 9.01562 257.266 8.95312C258.078 8.85937 258.953 8.71874 259.891 8.53124C259.453 8.99999 259.094 9.45312 258.812 9.89062C258.531 10.2969 258.312 10.6719 258.156 11.0156C257.969 11.3906 257.812 11.7344 257.688 12.0469C257.562 12.4531 257.422 13.0781 257.266 13.9219C257.109 14.6406 256.938 15.6562 256.75 16.9687C256.594 18.2812 256.391 20 256.141 22.125C257.203 22.1562 258.125 22.1719 258.906 22.1719C259.688 22.1406 260.344 22.125 260.875 22.125H262.422C262.859 22.0937 263.359 22.0625 263.922 22.0312C264.859 22 266.281 21.9062 268.188 21.75C268.344 20.3125 268.422 19.0781 268.422 18.0469C268.453 16.9844 268.438 16.0937 268.375 15.375C268.312 14.5625 268.219 13.875 268.094 13.3125C268 13 267.859 12.625 267.672 12.1875C267.516 11.8125 267.297 11.3594 267.016 10.8281C266.766 10.2656 266.422 9.59374 265.984 8.81249C266.797 8.93749 267.516 9.03124 268.141 9.09374C268.797 9.12499 269.344 9.15624 269.781 9.18749C270.281 9.21874 270.703 9.23437 271.047 9.23437C271.391 9.23437 271.844 9.21874 272.406 9.18749C272.875 9.15624 273.453 9.14062 274.141 9.14062C274.828 9.10937 275.672 9.06249 276.672 8.99999C276.422 9.43749 276.203 9.89062 276.016 10.3594C275.828 10.8281 275.672 11.25 275.547 11.625C275.422 12.0625 275.297 12.5 275.172 12.9375C275.016 13.5937 274.875 14.5469 274.75 15.7969C274.656 17.0469 274.562 18.4375 274.469 19.9687C274.406 21.5 274.344 23.0937 274.281 24.75C274.25 26.4062 274.219 27.9687 274.188 29.4375C274.188 30.9062 274.203 32.2187 274.234 33.375C274.266 34.5 274.328 35.2969 274.422 35.7656C274.516 36.3281 274.672 36.9062 274.891 37.5C275.078 38.0312 275.328 38.6094 275.641 39.2344C275.953 39.8281 276.359 40.3906 276.859 40.9219L265.562 41.7656C266.031 41.3281 266.406 40.9062 266.688 40.5C266.969 40.0625 267.188 39.6875 267.344 39.375C267.5 39.0312 267.609 38.7031 267.672 38.3906C267.703 38.0156 267.75 37.3594 267.812 36.4219C267.875 35.6406 267.938 34.5312 268 33.0937C268.062 31.6562 268.125 29.75 268.188 27.375C267.75 27.375 267.219 27.3906 266.594 27.4219C266 27.4219 265.438 27.4375 264.906 27.4687C264.281 27.5 263.625 27.5156 262.938 27.5156C262.25 27.5469 261.531 27.5781 260.781 27.6094C260.156 27.6719 259.453 27.7344 258.672 27.7969C257.922 27.8281 257.172 27.875 256.422 27.9375C256.359 29.25 256.359 30.4062 256.422 31.4062C256.484 32.375 256.578 33.2031 256.703 33.8906C256.828 34.7031 256.984 35.4062 257.172 36C257.359 36.5625 257.562 37.125 257.781 37.6875C257.969 38.1875 258.188 38.7187 258.438 39.2812C258.719 39.8437 259 40.3437 259.281 40.7812C258.688 40.7187 258.141 40.6719 257.641 40.6406C257.141 40.5781 256.703 40.5156 256.328 40.4531C255.891 40.4219 255.469 40.3906 255.062 40.3594C254.656 40.3594 254.172 40.3437 253.609 40.3125C253.109 40.2812 252.484 40.2656 251.734 40.2656C250.984 40.2344 250.109 40.2187 249.109 40.2187C249.703 39.625 250.172 39.0469 250.516 38.4844C250.891 37.8906 251.156 37.3594 251.312 36.8906C251.5 36.3281 251.625 35.8125 251.688 35.3437C251.719 34.9375 251.734 34.1719 251.734 33.0469C251.766 31.9219 251.766 30.6406 251.734 29.2031C251.734 27.7344 251.719 26.2031 251.688 24.6094C251.656 22.9844 251.609 21.4687 251.547 20.0625C251.516 18.6562 251.469 17.4531 251.406 16.4531C251.375 15.4219 251.344 14.7812 251.312 14.5312C251.156 13.9687 250.922 13.3594 250.609 12.7031C250.328 12.1719 249.953 11.5625 249.484 10.875C249.016 10.1562 248.375 9.43749 247.562 8.71874Z" fill="#3FD33C"/>
<path d="M9.625 9.04687C10.6562 9.17187 11.5938 9.26562 12.4375 9.32812C13.25 9.39062 13.9531 9.45312 14.5469 9.51562C15.2344 9.57812 15.8438 9.62499 16.375 9.65624C16.9375 9.65624 17.6562 9.64062 18.5312 9.60937C19.2812 9.57812 20.2344 9.53124 21.3906 9.46874C22.5469 9.40624 23.9688 9.29687 25.6562 9.14062C24.8438 9.60937 24.1719 10.0781 23.6406 10.5469C23.1406 11.0156 22.75 11.4375 22.4688 11.8125C22.125 12.25 21.875 12.6875 21.7188 13.125C21.625 13.7187 21.6562 14.875 21.8125 16.5937C21.875 17.3125 21.9688 18.2031 22.0938 19.2656C22.25 20.2969 22.4375 21.5312 22.6562 22.9687C22.9062 24.375 23.2031 26 23.5469 27.8437C23.9219 29.6875 24.3438 31.7812 24.8125 34.125C25.4375 32.3437 25.9531 30.7656 26.3594 29.3906C26.7656 27.9844 27.1094 26.7812 27.3906 25.7812C27.7031 24.6562 27.9688 23.6562 28.1875 22.7812C28.4062 21.875 28.6719 20.7031 28.9844 19.2656C29.2344 18.0469 29.5625 16.4687 29.9688 14.5312C30.375 12.5937 30.875 10.2031 31.4688 7.35937L33.1562 7.59374C33.3125 9.81249 33.4688 11.7656 33.625 13.4531C33.8125 15.1406 33.9688 16.5781 34.0938 17.7656C34.2188 19.1406 34.3438 20.3281 34.4688 21.3281C34.5938 22.2344 34.7812 23.2812 35.0312 24.4687C35.25 25.4687 35.5312 26.7031 35.875 28.1719C36.2188 29.6094 36.6719 31.2344 37.2344 33.0469C37.7969 30.8281 38.2969 28.8437 38.7344 27.0937C39.2031 25.3437 39.5938 23.7969 39.9062 22.4531C40.25 21.1094 40.5312 19.9531 40.75 18.9844C41 18.0156 41.2031 17.2031 41.3594 16.5469C41.7031 14.9844 41.9062 13.9375 41.9688 13.4062C41.9375 12.8125 41.7969 12.2344 41.5469 11.6719C41.3281 11.1719 40.9844 10.625 40.5156 10.0312C40.0469 9.43749 39.3594 8.85937 38.4531 8.29687C40.3594 8.35937 41.9062 8.40624 43.0938 8.43749C44.3125 8.43749 45.2812 8.43749 46 8.43749H49.5625C50.1875 8.43749 51 8.43749 52 8.43749C53.0312 8.40624 54.3438 8.35937 55.9375 8.29687C54.5625 9.01562 53.4531 9.67187 52.6094 10.2656C51.7656 10.8594 51.1094 11.3594 50.6406 11.7656C50.0781 12.2656 49.6719 12.6875 49.4219 13.0312C49.1719 13.6562 48.7656 15.0625 48.2031 17.25C47.9531 18.1875 47.6719 19.3594 47.3594 20.7656C47.0469 22.1406 46.6719 23.7969 46.2344 25.7344C45.8281 27.6719 45.3594 29.9375 44.8281 32.5312C44.2969 35.0937 43.7031 38.0312 43.0469 41.3437L34.9375 40.5L31.4688 25.9219C30.9375 28.5781 30.5156 30.7344 30.2031 32.3906C29.8906 34.0156 29.6562 35.2812 29.5 36.1875C29.3125 37.2812 29.2031 38.0781 29.1719 38.5781C29.1406 39.0156 29.1094 39.4375 29.0781 39.8437C29.0469 40.1875 29 40.5625 28.9375 40.9687C28.9062 41.375 28.8594 41.75 28.7969 42.0937H20.5C19.6875 38.5312 18.9531 35.3906 18.2969 32.6719C17.6719 29.9219 17.1094 27.5156 16.6094 25.4531C16.1094 23.3906 15.6719 21.6406 15.2969 20.2031C14.9531 18.7656 14.6406 17.5625 14.3594 16.5937C13.7344 14.3437 13.2812 12.9531 13 12.4219C12.7812 12.1719 12.5 11.875 12.1562 11.5312C11.875 11.25 11.5312 10.9062 11.125 10.5C10.6875 10.0625 10.1875 9.57812 9.625 9.04687Z" stroke="white" stroke-width="6" mask="url(#path-1-outside-1_22_69)"/>
<path d="M67.75 6.65624C69.4375 6.71874 71.1406 7.03124 72.8594 7.59374C74.6094 8.12499 76.2188 8.99999 77.6875 10.2187C79.1562 11.4062 80.4062 12.9531 81.4375 14.8594C82.4688 16.7344 83.1094 19.0312 83.3594 21.75C83.5781 23.9687 83.2969 26.1719 82.5156 28.3594C81.7656 30.5156 80.7188 32.5 79.375 34.3125C78.0312 36.125 76.4844 37.6719 74.7344 38.9531C72.9844 40.2031 71.2344 41.0312 69.4844 41.4375C68.4219 41.6875 67.25 41.7187 65.9688 41.5312C64.7188 41.3125 63.4375 40.9219 62.125 40.3594C60.8438 39.7656 59.5781 39.0156 58.3281 38.1094C57.1094 37.2031 56 36.1719 55 35.0156C54 33.8281 53.1562 32.5469 52.4688 31.1719C51.8125 29.7969 51.4062 28.3594 51.25 26.8594C51.0938 25.6094 51.0781 24.2344 51.2031 22.7344C51.3594 21.2031 51.6562 19.6875 52.0938 18.1875C52.5625 16.6562 53.2031 15.1875 54.0156 13.7812C54.8594 12.3437 55.9219 11.0937 57.2031 10.0312C58.4844 8.93749 59.9844 8.09374 61.7031 7.49999C63.4531 6.87499 65.4688 6.59374 67.75 6.65624ZM59.3594 25.6406C58.9219 28.9844 59.2344 31.6719 60.2969 33.7031C61.3906 35.7344 63.0312 36.9687 65.2188 37.4062C66.2812 37.625 67.2969 37.4062 68.2656 36.75C69.2656 36.0625 70.1719 35.0781 70.9844 33.7969C71.7969 32.5156 72.5 31.0156 73.0938 29.2969C73.6875 27.5781 74.125 25.7812 74.4062 23.9062C74.6875 22.0312 74.7031 20.3437 74.4531 18.8437C74.2344 17.3125 73.8438 16.0156 73.2812 14.9531C72.7188 13.8594 72.0312 13.0156 71.2188 12.4219C70.4375 11.8281 69.625 11.5 68.7812 11.4375C67.3125 11.3437 66.0312 11.7344 64.9375 12.6094C63.8438 13.4531 62.9219 14.5625 62.1719 15.9375C61.4219 17.3125 60.8125 18.8594 60.3438 20.5781C59.9062 22.2969 59.5781 23.9844 59.3594 25.6406Z" stroke="white" stroke-width="6" mask="url(#path-1-outside-1_22_69)"/>
<path d="M82.7031 7.78124C83.7031 7.93749 84.6094 8.07812 85.4219 8.20312C86.2344 8.29687 86.9375 8.37499 87.5312 8.43749C88.2188 8.53124 88.8281 8.60937 89.3594 8.67187C90.0156 8.76562 91 8.65624 92.3125 8.34374C93.625 7.99999 95.0625 7.68749 96.625 7.40624C98.2188 7.09374 99.8438 6.92187 101.5 6.89062C103.156 6.82812 104.672 7.12499 106.047 7.78124C107.422 8.43749 108.547 9.09374 109.422 9.74999C110.297 10.4062 110.984 11.1094 111.484 11.8594C112.016 12.5781 112.391 13.3437 112.609 14.1562C112.828 14.9687 112.953 15.8594 112.984 16.8281C112.953 18.2656 112.609 19.6562 111.953 21C111.672 21.5625 111.297 22.1562 110.828 22.7812C110.391 23.375 109.844 23.9531 109.188 24.5156C108.531 25.0781 107.75 25.6094 106.844 26.1094C105.969 26.6094 104.938 27.0469 103.75 27.4219C104.906 27.7656 105.859 28.1719 106.609 28.6406C107.391 29.1094 108.016 29.5469 108.484 29.9531C109.047 30.4531 109.469 30.9375 109.75 31.4062C110.094 32.0625 110.328 32.625 110.453 33.0937C110.578 33.5625 110.656 34.0156 110.688 34.4531C110.75 34.8594 110.828 35.2812 110.922 35.7187C111.016 36.1562 111.219 36.6562 111.531 37.2187C111.781 37.6562 112.078 38.1094 112.422 38.5781C112.734 38.9844 113.094 39.4219 113.5 39.8906C113.938 40.3594 114.469 40.8125 115.094 41.25C114.219 41.2812 113.406 41.2969 112.656 41.2969C111.938 41.2969 111.312 41.2969 110.781 41.2969C110.156 41.2969 109.562 41.2812 109 41.25C108.438 41.2187 107.734 41.2031 106.891 41.2031C106.172 41.2031 105.25 41.2031 104.125 41.2031C103.031 41.2031 101.703 41.2187 100.141 41.25C100.828 40.7187 101.391 40.1875 101.828 39.6562C102.266 39.125 102.609 38.6406 102.859 38.2031C103.141 37.7031 103.344 37.2187 103.469 36.75C103.625 35.9062 103.641 35.0312 103.516 34.125C103.422 33.3437 103.172 32.4844 102.766 31.5469C102.359 30.5781 101.703 29.6094 100.797 28.6406C99.8906 28.7969 99.125 28.9219 98.5 29.0156C97.9062 29.0781 97.3906 29.1406 96.9531 29.2031C96.4531 29.2656 96.0469 29.3125 95.7344 29.3437C95.4531 29.375 95.1406 29.4062 94.7969 29.4375C94.5156 29.4687 94.2031 29.5156 93.8594 29.5781C93.5469 29.6094 93.25 29.6562 92.9688 29.7187C92.9062 31.0625 92.9062 32.2344 92.9688 33.2344C93.0312 34.2031 93.1094 35.0156 93.2031 35.6719C93.3281 36.4531 93.4688 37.125 93.625 37.6875C93.7812 38.25 94 38.7969 94.2812 39.3281C94.5 39.7656 94.7812 40.2344 95.125 40.7344C95.4688 41.2031 95.8594 41.5937 96.2969 41.9062C95.4844 41.9062 94.7031 41.9062 93.9531 41.9062C93.2344 41.9062 92.5781 41.8906 91.9844 41.8594C91.2969 41.8594 90.6406 41.8437 90.0156 41.8125C89.3906 41.7812 88.6875 41.7656 87.9062 41.7656C87.25 41.7656 86.4688 41.7656 85.5625 41.7656C84.6875 41.7656 83.7344 41.7812 82.7031 41.8125C83.5156 40.9687 84.1562 40.25 84.625 39.6562C85.0938 39.0625 85.4531 38.5625 85.7031 38.1562C85.9844 37.7187 86.1562 37.3437 86.2188 37.0312C86.2812 36.5312 86.3281 35.6406 86.3594 34.3594C86.4219 33.0469 86.4688 31.5469 86.5 29.8594C86.5312 28.1719 86.5469 26.4062 86.5469 24.5625C86.5469 22.7187 86.5312 21 86.5 19.4062C86.4688 17.7812 86.4375 16.3906 86.4062 15.2344C86.375 14.0781 86.3438 13.3437 86.3125 13.0312C86.2188 12.4687 86.0156 11.9062 85.7031 11.3437C85.4531 10.8437 85.0938 10.2812 84.625 9.65624C84.1562 9.03124 83.5156 8.40624 82.7031 7.78124ZM100.422 24.2812C100.734 24.0937 101 23.9062 101.219 23.7187C101.438 23.5312 101.625 23.2344 101.781 22.8281C101.938 22.3906 102.062 21.7812 102.156 21C102.281 20.2187 102.422 19.1562 102.578 17.8125C102.703 16.4687 102.609 15.3594 102.297 14.4844C102.016 13.6094 101.625 12.9219 101.125 12.4219C100.656 11.8906 100.125 11.5312 99.5312 11.3437C98.9688 11.125 98.4688 11.0156 98.0312 11.0156C97.1562 11.0156 96.2969 11.2812 95.4531 11.8125C94.6094 12.3437 93.9688 13.0625 93.5312 13.9687C93.375 14.375 93.2344 15.0469 93.1094 15.9844C93.0156 16.7969 92.9531 17.9219 92.9219 19.3594C92.8906 20.7969 92.9375 22.6875 93.0625 25.0312C94.25 25.2187 95.2969 25.2969 96.2031 25.2656C97.1094 25.2031 97.875 25.0937 98.5 24.9375C99.25 24.7812 99.8906 24.5625 100.422 24.2812Z" stroke="white" stroke-width="6" mask="url(#path-1-outside-1_22_69)"/>
<path d="M113.172 8.57812C114.266 8.73437 115.219 8.85937 116.031 8.95312C116.844 9.04687 117.516 9.12499 118.047 9.18749C118.672 9.24999 119.203 9.29687 119.641 9.32812C120.141 9.39062 120.75 9.35937 121.469 9.23437C122.219 9.10937 123.016 8.98437 123.859 8.85937C124.703 8.70312 125.578 8.57812 126.484 8.48437C127.391 8.39062 128.266 8.39062 129.109 8.48437C129.672 8.54687 130.391 8.67187 131.266 8.85937C132.141 9.04687 133.062 9.34374 134.031 9.74999C135.031 10.1562 136.031 10.6875 137.031 11.3437C138.031 12 138.938 12.8281 139.75 13.8281C140.562 14.8281 141.234 16.0156 141.766 17.3906C142.297 18.7656 142.594 20.375 142.656 22.2187C142.75 24.9687 142.5 27.4687 141.906 29.7187C141.312 31.9687 140.391 33.8906 139.141 35.4844C137.922 37.0781 136.375 38.3281 134.5 39.2344C132.625 40.1406 130.438 40.6406 127.938 40.7344C126.031 40.8906 124.156 41.0312 122.312 41.1562C121.531 41.2187 120.703 41.2656 119.828 41.2969C118.984 41.3281 118.141 41.3594 117.297 41.3906C116.453 41.3906 115.641 41.375 114.859 41.3437C114.078 41.3125 113.359 41.2656 112.703 41.2031C113.422 40.8594 114 40.5156 114.438 40.1719C114.906 39.8281 115.266 39.5312 115.516 39.2812C115.797 38.9687 116 38.6875 116.125 38.4375C116.188 38.0937 116.281 37.4219 116.406 36.4219C116.5 35.5781 116.625 34.375 116.781 32.8125C116.938 31.25 117.125 29.125 117.344 26.4375L117.625 23.1094C117.781 21.0469 117.844 19.3594 117.812 18.0469C117.812 16.7344 117.781 15.7031 117.719 14.9531C117.625 14.0781 117.5 13.4375 117.344 13.0312C117.219 12.6875 116.984 12.2812 116.641 11.8125C116.328 11.4375 115.891 10.9844 115.328 10.4531C114.797 9.89062 114.078 9.26562 113.172 8.57812ZM123.062 25.8281C123.125 28.6094 123.266 30.75 123.484 32.25C123.734 33.7187 124 34.8125 124.281 35.5312C124.625 36.3437 125 36.8281 125.406 36.9844C126 36.9844 126.672 36.7344 127.422 36.2344C128.172 35.7031 128.906 34.9062 129.625 33.8437C130.375 32.7812 131.047 31.4531 131.641 29.8594C132.266 28.2656 132.719 26.4062 133 24.2812C133.281 22.1562 133.203 20.2812 132.766 18.6562C132.328 17.0312 131.75 15.6719 131.031 14.5781C130.312 13.4531 129.578 12.6094 128.828 12.0469C128.078 11.4531 127.516 11.1562 127.141 11.1562C126.703 11.1562 126.312 11.2812 125.969 11.5312C125.625 11.75 125.141 12.2656 124.516 13.0781C124.203 13.5156 123.922 14.1406 123.672 14.9531C123.453 15.6719 123.266 16.625 123.109 17.8125C122.953 19 122.906 20.5312 122.969 22.4062L123.062 25.8281Z" stroke="white" stroke-width="6" mask="url(#path-1-outside-1_22_69)"/>
<path d="M158.5 8.57812C159.594 8.73437 160.547 8.85937 161.359 8.95312C162.172 9.04687 162.844 9.12499 163.375 9.18749C164 9.24999 164.531 9.29687 164.969 9.32812C165.469 9.39062 166.078 9.35937 166.797 9.23437C167.547 9.10937 168.344 8.98437 169.188 8.85937C170.031 8.70312 170.906 8.57812 171.812 8.48437C172.719 8.39062 173.594 8.39062 174.438 8.48437C175 8.54687 175.719 8.67187 176.594 8.85937C177.469 9.04687 178.391 9.34374 179.359 9.74999C180.359 10.1562 181.359 10.6875 182.359 11.3437C183.359 12 184.266 12.8281 185.078 13.8281C185.891 14.8281 186.562 16.0156 187.094 17.3906C187.625 18.7656 187.922 20.375 187.984 22.2187C188.078 24.9687 187.828 27.4687 187.234 29.7187C186.641 31.9687 185.719 33.8906 184.469 35.4844C183.25 37.0781 181.703 38.3281 179.828 39.2344C177.953 40.1406 175.766 40.6406 173.266 40.7344C171.359 40.8906 169.484 41.0312 167.641 41.1562C166.859 41.2187 166.031 41.2656 165.156 41.2969C164.312 41.3281 163.469 41.3594 162.625 41.3906C161.781 41.3906 160.969 41.375 160.188 41.3437C159.406 41.3125 158.688 41.2656 158.031 41.2031C158.75 40.8594 159.328 40.5156 159.766 40.1719C160.234 39.8281 160.594 39.5312 160.844 39.2812C161.125 38.9687 161.328 38.6875 161.453 38.4375C161.516 38.0937 161.609 37.4219 161.734 36.4219C161.828 35.5781 161.953 34.375 162.109 32.8125C162.266 31.25 162.453 29.125 162.672 26.4375L162.953 23.1094C163.109 21.0469 163.172 19.3594 163.141 18.0469C163.141 16.7344 163.109 15.7031 163.047 14.9531C162.953 14.0781 162.828 13.4375 162.672 13.0312C162.547 12.6875 162.312 12.2812 161.969 11.8125C161.656 11.4375 161.219 10.9844 160.656 10.4531C160.125 9.89062 159.406 9.26562 158.5 8.57812ZM168.391 25.8281C168.453 28.6094 168.594 30.75 168.812 32.25C169.062 33.7187 169.328 34.8125 169.609 35.5312C169.953 36.3437 170.328 36.8281 170.734 36.9844C171.328 36.9844 172 36.7344 172.75 36.2344C173.5 35.7031 174.234 34.9062 174.953 33.8437C175.703 32.7812 176.375 31.4531 176.969 29.8594C177.594 28.2656 178.047 26.4062 178.328 24.2812C178.609 22.1562 178.531 20.2812 178.094 18.6562C177.656 17.0312 177.078 15.6719 176.359 14.5781C175.641 13.4531 174.906 12.6094 174.156 12.0469C173.406 11.4531 172.844 11.1562 172.469 11.1562C172.031 11.1562 171.641 11.2812 171.297 11.5312C170.953 11.75 170.469 12.2656 169.844 13.0781C169.531 13.5156 169.25 14.1406 169 14.9531C168.781 15.6719 168.594 16.625 168.438 17.8125C168.281 19 168.234 20.5312 168.297 22.4062L168.391 25.8281Z" stroke="white" stroke-width="6" mask="url(#path-1-outside-1_22_69)"/>
<path d="M195.109 10.2656C196.672 10.3594 197.984 10.4375 199.047 10.5C200.141 10.5312 201.047 10.5625 201.766 10.5937C202.578 10.625 203.266 10.625 203.828 10.5937C204.391 10.5625 205.156 10.4844 206.125 10.3594C206.938 10.2656 208.016 10.125 209.359 9.93749C210.734 9.71874 212.438 9.43749 214.469 9.09374C213.75 9.81249 213.188 10.4687 212.781 11.0625C212.406 11.625 212.109 12.1094 211.891 12.5156C211.641 13.0156 211.469 13.4375 211.375 13.7812C211.312 14.0937 211.375 14.875 211.562 16.125C211.75 17.375 212.016 18.8594 212.359 20.5781C212.703 22.2656 213.078 24.0781 213.484 26.0156C213.891 27.9219 214.297 29.7187 214.703 31.4062C215.109 33.0625 215.469 34.4844 215.781 35.6719C216.125 36.8281 216.375 37.5156 216.531 37.7344C217 38.3906 217.297 38.8281 217.422 39.0469C217.547 39.2344 217.766 39.4062 218.078 39.5625C218.203 39.625 218.406 39.7187 218.688 39.8437C218.938 39.9687 219.266 40.125 219.672 40.3125C220.109 40.5 220.656 40.7187 221.312 40.9687C220.094 41.0312 219.047 41.0781 218.172 41.1094C217.297 41.1094 216.578 41.125 216.016 41.1562C215.359 41.1875 214.797 41.2187 214.328 41.25C213.859 41.25 213.297 41.2812 212.641 41.3437C212.078 41.4062 211.344 41.4687 210.438 41.5312C209.562 41.5937 208.531 41.6562 207.344 41.7187C207.969 41.2812 208.469 40.8906 208.844 40.5469C209.25 40.1719 209.562 39.8594 209.781 39.6094C210.031 39.2969 210.203 39.0156 210.297 38.7656C210.359 38.4844 210.406 38.0625 210.438 37.5C210.469 37 210.469 36.3437 210.438 35.5312C210.406 34.6875 210.328 33.5937 210.203 32.25L197.875 33.5156C197.562 34.0469 197.328 34.5156 197.172 34.9219C197.016 35.2969 196.906 35.625 196.844 35.9062C196.75 36.25 196.719 36.5312 196.75 36.75C196.812 37 196.922 37.2969 197.078 37.6406C197.234 37.9531 197.453 38.3281 197.734 38.7656C198.047 39.1719 198.5 39.6562 199.094 40.2187C198.312 40.1875 197.516 40.1719 196.703 40.1719C195.891 40.1719 195.141 40.1875 194.453 40.2187C193.641 40.25 192.844 40.2812 192.062 40.3125C191.281 40.3437 190.391 40.3906 189.391 40.4531C188.547 40.5156 187.562 40.5937 186.438 40.6875C185.281 40.75 184.047 40.8437 182.734 40.9687C183.547 40.5937 184.234 40.2187 184.797 39.8437C185.359 39.4375 185.828 39.0625 186.203 38.7187C186.641 38.3437 187.016 37.9844 187.328 37.6406C187.547 37.3281 187.984 36.6094 188.641 35.4844C189.297 34.3281 190.031 32.9687 190.844 31.4062C191.688 29.8437 192.562 28.1719 193.469 26.3906C194.406 24.6094 195.25 22.9375 196 21.375C196.75 19.7812 197.359 18.4062 197.828 17.25C198.297 16.0937 198.531 15.3437 198.531 15C198.469 14.5937 198.312 14.1406 198.062 13.6406C197.844 13.2031 197.5 12.7031 197.031 12.1406C196.594 11.5781 195.953 10.9531 195.109 10.2656ZM209.641 28.7812C209.453 27.6875 209.281 26.75 209.125 25.9687C208.969 25.1562 208.844 24.4844 208.75 23.9531C208.625 23.3281 208.531 22.7812 208.469 22.3125C208.375 21.875 208.266 21.3125 208.141 20.625C208.016 20.0312 207.859 19.2969 207.672 18.4219C207.516 17.5156 207.312 16.4375 207.062 15.1875C205.281 18.75 203.891 21.5156 202.891 23.4844C201.922 25.4219 201.219 26.8437 200.781 27.75C200.25 28.8125 199.953 29.4375 199.891 29.625L209.641 28.7812Z" stroke="white" stroke-width="6" mask="url(#path-1-outside-1_22_69)"/>
<path d="M249.25 7.68749C248.812 8.68749 248.422 9.56249 248.078 10.3125C247.734 11.0625 247.438 11.7031 247.188 12.2344C246.906 12.8281 246.672 13.3594 246.484 13.8281C246.328 14.1719 246.125 14.6406 245.875 15.2344C245.625 15.7656 245.312 16.4687 244.938 17.3437C244.594 18.1875 244.141 19.2812 243.578 20.625C243.297 19.4687 242.953 18.4531 242.547 17.5781C242.141 16.7031 241.703 15.9375 241.234 15.2812C240.766 14.625 240.266 14.0937 239.734 13.6875C239.234 13.25 238.734 12.8906 238.234 12.6094C237.078 11.9844 235.859 11.6406 234.578 11.5781C232.891 11.6719 231.562 11.9531 230.594 12.4219C229.656 12.8594 228.969 13.375 228.531 13.9687C228.094 14.5312 227.859 15.125 227.828 15.75C227.797 16.3437 227.875 16.8437 228.062 17.25C228.219 17.625 228.766 18.0625 229.703 18.5625C230.672 19.0625 231.828 19.6406 233.172 20.2969C234.547 20.9219 236.016 21.6406 237.578 22.4531C239.141 23.2344 240.578 24.1094 241.891 25.0781C243.234 26.0156 244.359 27.0469 245.266 28.1719C246.203 29.2656 246.719 30.4375 246.812 31.6875C246.906 33.2812 246.891 34.7187 246.766 36C246.641 37.2812 246.203 38.375 245.453 39.2812C244.703 40.1875 243.531 40.9062 241.938 41.4375C240.375 41.9687 238.203 42.2969 235.422 42.4219C232.547 42.5469 230.188 42.3906 228.344 41.9531C226.5 41.5156 225 40.9219 223.844 40.1719C222.719 39.4219 221.875 38.5937 221.312 37.6875C220.781 36.7812 220.391 35.9219 220.141 35.1094C219.891 34.2656 219.719 33.5469 219.625 32.9531C219.531 32.3281 219.375 31.9531 219.156 31.8281C218.906 31.6719 218.656 31.5312 218.406 31.4062C218.188 31.2812 217.953 31.1719 217.703 31.0781C217.453 30.9531 217.203 30.8437 216.953 30.75L230.594 28.5469C229.812 29.1719 229.203 29.75 228.766 30.2812C228.359 30.8125 228.047 31.2812 227.828 31.6875C227.578 32.1562 227.406 32.5937 227.312 33C227.25 33.4375 227.391 33.9844 227.734 34.6406C228.078 35.2969 228.547 35.9375 229.141 36.5625C229.766 37.1562 230.484 37.6562 231.297 38.0625C232.109 38.4687 232.953 38.6406 233.828 38.5781C234.922 38.4844 235.812 38.2187 236.5 37.7812C237.188 37.3125 237.703 36.7344 238.047 36.0469C238.422 35.3594 238.641 34.6094 238.703 33.7969C238.766 32.9844 238.688 32.1875 238.469 31.4062C238.281 30.5937 237.969 29.8437 237.531 29.1562C237.094 28.4375 236.578 27.8437 235.984 27.375C235.453 27 234.625 26.6406 233.5 26.2969C232.406 25.9531 231.172 25.5781 229.797 25.1719C228.453 24.7656 227.062 24.2969 225.625 23.7656C224.219 23.2344 222.938 22.5781 221.781 21.7969C220.656 21.0156 219.75 20.0937 219.062 19.0312C218.406 17.9687 218.156 16.6875 218.312 15.1875C218.438 13.9062 218.844 12.8437 219.531 12C220.25 11.125 221.141 10.4375 222.203 9.93749C223.297 9.40624 224.5 9.01562 225.812 8.76562C227.156 8.51562 228.516 8.37499 229.891 8.34374C231.297 8.28124 232.672 8.29687 234.016 8.39062C235.391 8.48437 236.625 8.59374 237.719 8.71874C238.812 8.84374 239.734 8.96874 240.484 9.09374C241.266 9.18749 241.75 9.24999 241.938 9.28124C242.75 9.34374 243.562 9.32812 244.375 9.23437C245.094 9.17187 245.875 9.03124 246.719 8.81249C247.594 8.56249 248.438 8.18749 249.25 7.68749Z" stroke="white" stroke-width="6" mask="url(#path-1-outside-1_22_69)"/>
<path d="M247.562 8.71874C248.656 8.84374 249.578 8.93749 250.328 8.99999C251.078 9.03124 251.672 9.06249 252.109 9.09374C252.641 9.12499 253.062 9.14062 253.375 9.14062C253.906 9.14062 254.516 9.12499 255.203 9.09374C255.797 9.06249 256.484 9.01562 257.266 8.95312C258.078 8.85937 258.953 8.71874 259.891 8.53124C259.453 8.99999 259.094 9.45312 258.812 9.89062C258.531 10.2969 258.312 10.6719 258.156 11.0156C257.969 11.3906 257.812 11.7344 257.688 12.0469C257.562 12.4531 257.422 13.0781 257.266 13.9219C257.109 14.6406 256.938 15.6562 256.75 16.9687C256.594 18.2812 256.391 20 256.141 22.125C257.203 22.1562 258.125 22.1719 258.906 22.1719C259.688 22.1406 260.344 22.125 260.875 22.125H262.422C262.859 22.0937 263.359 22.0625 263.922 22.0312C264.859 22 266.281 21.9062 268.188 21.75C268.344 20.3125 268.422 19.0781 268.422 18.0469C268.453 16.9844 268.438 16.0937 268.375 15.375C268.312 14.5625 268.219 13.875 268.094 13.3125C268 13 267.859 12.625 267.672 12.1875C267.516 11.8125 267.297 11.3594 267.016 10.8281C266.766 10.2656 266.422 9.59374 265.984 8.81249C266.797 8.93749 267.516 9.03124 268.141 9.09374C268.797 9.12499 269.344 9.15624 269.781 9.18749C270.281 9.21874 270.703 9.23437 271.047 9.23437C271.391 9.23437 271.844 9.21874 272.406 9.18749C272.875 9.15624 273.453 9.14062 274.141 9.14062C274.828 9.10937 275.672 9.06249 276.672 8.99999C276.422 9.43749 276.203 9.89062 276.016 10.3594C275.828 10.8281 275.672 11.25 275.547 11.625C275.422 12.0625 275.297 12.5 275.172 12.9375C275.016 13.5937 274.875 14.5469 274.75 15.7969C274.656 17.0469 274.562 18.4375 274.469 19.9687C274.406 21.5 274.344 23.0937 274.281 24.75C274.25 26.4062 274.219 27.9687 274.188 29.4375C274.188 30.9062 274.203 32.2187 274.234 33.375C274.266 34.5 274.328 35.2969 274.422 35.7656C274.516 36.3281 274.672 36.9062 274.891 37.5C275.078 38.0312 275.328 38.6094 275.641 39.2344C275.953 39.8281 276.359 40.3906 276.859 40.9219L265.562 41.7656C266.031 41.3281 266.406 40.9062 266.688 40.5C266.969 40.0625 267.188 39.6875 267.344 39.375C267.5 39.0312 267.609 38.7031 267.672 38.3906C267.703 38.0156 267.75 37.3594 267.812 36.4219C267.875 35.6406 267.938 34.5312 268 33.0937C268.062 31.6562 268.125 29.75 268.188 27.375C267.75 27.375 267.219 27.3906 266.594 27.4219C266 27.4219 265.438 27.4375 264.906 27.4687C264.281 27.5 263.625 27.5156 262.938 27.5156C262.25 27.5469 261.531 27.5781 260.781 27.6094C260.156 27.6719 259.453 27.7344 258.672 27.7969C257.922 27.8281 257.172 27.875 256.422 27.9375C256.359 29.25 256.359 30.4062 256.422 31.4062C256.484 32.375 256.578 33.2031 256.703 33.8906C256.828 34.7031 256.984 35.4062 257.172 36C257.359 36.5625 257.562 37.125 257.781 37.6875C257.969 38.1875 258.188 38.7187 258.438 39.2812C258.719 39.8437 259 40.3437 259.281 40.7812C258.688 40.7187 258.141 40.6719 257.641 40.6406C257.141 40.5781 256.703 40.5156 256.328 40.4531C255.891 40.4219 255.469 40.3906 255.062 40.3594C254.656 40.3594 254.172 40.3437 253.609 40.3125C253.109 40.2812 252.484 40.2656 251.734 40.2656C250.984 40.2344 250.109 40.2187 249.109 40.2187C249.703 39.625 250.172 39.0469 250.516 38.4844C250.891 37.8906 251.156 37.3594 251.312 36.8906C251.5 36.3281 251.625 35.8125 251.688 35.3437C251.719 34.9375 251.734 34.1719 251.734 33.0469C251.766 31.9219 251.766 30.6406 251.734 29.2031C251.734 27.7344 251.719 26.2031 251.688 24.6094C251.656 22.9844 251.609 21.4687 251.547 20.0625C251.516 18.6562 251.469 17.4531 251.406 16.4531C251.375 15.4219 251.344 14.7812 251.312 14.5312C251.156 13.9687 250.922 13.3594 250.609 12.7031C250.328 12.1719 249.953 11.5625 249.484 10.875C249.016 10.1562 248.375 9.43749 247.562 8.71874Z" stroke="white" stroke-width="6" mask="url(#path-1-outside-1_22_69)"/>
</svg>
