<svg class="svg-icon" style="width: 1em; height: 1em;vertical-align: middle;fill: currentColor;overflow: hidden;" viewBox="0 0 1024 1024" version="1.1" xmlns="http://www.w3.org/2000/svg"><path d="M338.7 174.6L135.3 378.3c-12.5 12.5-12.5 32.8 0 45.3l180.1 180.3c6.2 6.2 14.4 9.4 22.6 9.4 8.2 0 16.4-3.1 22.6-9.4l22.6-22.6L203 400.9l158.2-158.4c12.5-12.5 12.5-32.8 0-45.3l-22.5-22.6z"  /><path d="M654.5 369.4h-496c-17.7 0-32 14.3-32 32s14.3 32 32 32h496c97.2 0 176 78.8 176 176s-78.8 176-176 176h-496c-17.7 0-32 14.3-32 32s14.3 32 32 32h496c132.5 0 240-107.5 240-240s-107.5-240-240-240z"  /></svg>